<?xml version="1.0" encoding="utf-8"?>
<!-- Generator: Adobe Illustrator 17.0.0, SVG Export Plug-In . SVG Version: 6.00 Build 0)  -->
<!DOCTYPE svg PUBLIC "-//W3C//DTD SVG 1.1//EN" "http://www.w3.org/Graphics/SVG/1.1/DTD/svg11.dtd">
<svg version="1.1" id="Layer_1" xmlns="http://www.w3.org/2000/svg" xmlns:xlink="http://www.w3.org/1999/xlink" x="0px" y="0px"
	 width="96px" height="53px" viewBox="0 0 96 53" enable-background="new 0 0 96 53" xml:space="preserve">
<g>
	<g>
		<path fill="#232323" d="M94.5,50c0,1.105-0.895,2-2,2h-90c-1.105,0-2-0.895-2-2V4c0-1.105,0.895-2,2-2h90c1.105,0,2,0.895,2,2V50z
			"/>
	</g>
	<g>
		<rect x="8.5" y="16" fill="#FCC34F" width="49" height="2"/>
		<rect x="60.5" y="16" fill="#B68696" width="28" height="2"/>
		<rect x="16.5" y="21" fill="#79BCAD" width="49" height="2"/>
		<rect x="30.5" y="26" fill="#B68696" width="51" height="2"/>
		<rect x="8.5" y="26" fill="#BAC368" width="19" height="2"/>
		<rect x="8.5" y="31" fill="#FCC34F" width="41" height="2"/>
		<rect x="76.5" y="31" fill="#FCC34F" width="8" height="2"/>
		<rect x="52.5" y="31" fill="#BAC368" width="21" height="2"/>
		<rect x="22.5" y="36" fill="#79BCAD" width="49" height="2"/>
		<rect x="74.5" y="36" fill="#BAC368" width="14" height="2"/>
	</g>
	<g>
		<path fill="#FFFFFF" d="M46.5,2h46.6c1.1,0,2.4,0.7,2.4,1.8v46.4c0,1.1-1.3,1.8-2.4,1.8H46.5"/>
	</g>
	<rect x="52.5" y="25" fill="#E6E7E8" width="17" height="10"/>
	<rect x="52.5" y="38" fill="#E6E7E8" width="17" height="11"/>
	<g>
		<rect x="71.5" y="26" fill="#F1F2F2" width="19" height="1"/>
		<rect x="71.5" y="28" fill="#F1F2F2" width="19" height="1"/>
		<rect x="71.5" y="30" fill="#F1F2F2" width="10" height="1"/>
	</g>
	<g>
		<rect x="71.5" y="39" fill="#F1F2F2" width="19" height="1"/>
		<rect x="71.5" y="41" fill="#F1F2F2" width="19" height="1"/>
		<rect x="71.5" y="43" fill="#F1F2F2" width="10" height="1"/>
	</g>
	<path opacity="0.2" fill="#58595B" d="M58.519,27.112c0.236,0.236,0.355,0.524,0.355,0.861c0,0.338-0.118,0.625-0.355,0.861
		c-0.236,0.236-0.524,0.355-0.861,0.355c-0.338,0-0.625-0.118-0.861-0.355c-0.236-0.236-0.355-0.524-0.355-0.861
		c0-0.338,0.118-0.625,0.355-0.861c0.236-0.236,0.524-0.355,0.861-0.355C57.996,26.757,58.283,26.875,58.519,27.112z M65.5,30.405
		V33h-9v-0.973L58.498,30l0.999,1.013l3.306-3.243L65.5,30.405z"/>
	<path opacity="0.2" fill="#58595B" d="M58.519,41.112c0.236,0.236,0.355,0.524,0.355,0.861s-0.118,0.625-0.355,0.861
		c-0.236,0.236-0.524,0.355-0.861,0.355c-0.338,0-0.625-0.118-0.861-0.355c-0.236-0.236-0.355-0.524-0.355-0.861
		s0.118-0.625,0.355-0.861c0.236-0.236,0.524-0.355,0.861-0.355C57.996,40.757,58.283,40.875,58.519,41.112z M65.5,44.405V47h-9
		v-0.973L58.498,44l0.999,1.013l3.306-3.243L65.5,44.405z"/>
	<g>
		<rect x="52" y="7.5" fill="#FFFFFF" stroke="#E6E7E8" stroke-miterlimit="10" width="38" height="14"/>
		<line fill="none" stroke="#E6E7E8" stroke-miterlimit="10" x1="90.253" y1="7" x2="52.253" y2="21"/>
		<line fill="none" stroke="#E6E7E8" stroke-miterlimit="10" x1="52.253" y1="7" x2="90.253" y2="21"/>
	</g>
	<rect x="47.5" y="4" opacity="0.1" fill="#58595B" width="2" height="48"/>
	<g>
		<path fill="#D1D3D4" d="M0.5,4V1.8C0.5,1.25,1.35,1,1.9,1h92.2c0.55,0,1.4,0.25,1.4,0.8V4"/>
	</g>
</g>
</svg>
