<?xml version="1.0" encoding="utf-8"?>
<!-- Generator: Adobe Illustrator 17.0.0, SVG Export Plug-In . SVG Version: 6.00 Build 0)  -->
<!DOCTYPE svg PUBLIC "-//W3C//DTD SVG 1.1//EN" "http://www.w3.org/Graphics/SVG/1.1/DTD/svg11.dtd">
<svg version="1.1" id="Layer_1" xmlns="http://www.w3.org/2000/svg" xmlns:xlink="http://www.w3.org/1999/xlink" x="0px" y="0px"
	 width="50px" height="33px" viewBox="0 0 50 33" enable-background="new 0 0 50 33" xml:space="preserve">
<g>
	<g>
		<g>
			<path fill="#191919" d="M50,32c0,0.552-0.448,1-1,1H1c-0.552,0-1-0.448-1-1V1c0-0.552,0.448-1,1-1h48c0.552,0,1,0.448,1,1V32z"/>
		</g>
	</g>
	<path fill="#D1D3D4" d="M0.019,2.234V1.222c0-0.55,0.45-1,1-1h47.963c0.55,0,1,0.45,1,1v1.013H0.019z"/>
	<g>
		<g>
			<g>
				<polygon fill="#BAC368" points="21.887,22.775 25.826,11.312 27.938,11.312 23.948,22.775 				"/>
			</g>
		</g>
		<g>
			<path fill="#BAC368" d="M14.194,17.862V16.15l6.075-2.863v1.837l-4.013,1.85l4.013,1.9v1.85L14.194,17.862z"/>
			<path fill="#BAC368" d="M35.631,16.15v1.712l-6.075,2.863v-1.85l4.013-1.9l-4.013-1.85v-1.837L35.631,16.15z"/>
		</g>
	</g>
</g>
</svg>
