<?xml version="1.0" encoding="utf-8"?>
<!-- Generator: Adobe Illustrator 17.0.0, SVG Export Plug-In . SVG Version: 6.00 Build 0)  -->
<!DOCTYPE svg PUBLIC "-//W3C//DTD SVG 1.1//EN" "http://www.w3.org/Graphics/SVG/1.1/DTD/svg11.dtd">
<svg version="1.1" id="Layer_1" xmlns="http://www.w3.org/2000/svg" xmlns:xlink="http://www.w3.org/1999/xlink" x="0px" y="0px"
	 width="50px" height="33px" viewBox="0 0 50 33" enable-background="new 0 0 50 33" xml:space="preserve">
<g>
	<g>
		<path fill="#191919" d="M50,32c0,0.552-0.448,1-1,1H1c-0.552,0-1-0.448-1-1V1c0-0.552,0.448-1,1-1h48c0.552,0,1,0.448,1,1V32z"/>
	</g>
	<path fill="#D1D3D4" d="M0,2V0.972C0,0.422,0.025,0,0.575,0h48.781C49.906,0,50,0.422,50,0.972V2H0z"/>
	<path opacity="0.3" fill="#D1D3D4" d="M35.906,20.46c0,1.215-0.43,2.252-1.289,3.111s-1.896,1.289-3.111,1.289H19.04
		c-1.413,0-2.622-0.502-3.627-1.507c-1.005-1.005-1.507-2.213-1.507-3.627c0-0.993,0.267-1.91,0.802-2.75
		c0.535-0.84,1.253-1.47,2.154-1.891c-0.015-0.229-0.023-0.393-0.023-0.493c0-1.619,0.573-3.002,1.719-4.148
		c1.146-1.146,2.528-1.719,4.148-1.719c1.192,0,2.282,0.332,3.271,0.997c0.989,0.665,1.709,1.547,2.16,2.647
		c0.542-0.474,1.176-0.71,1.902-0.71c0.81,0,1.501,0.286,2.074,0.859c0.573,0.573,0.859,1.264,0.859,2.074
		c0,0.581-0.157,1.108-0.47,1.581c0.993,0.237,1.809,0.754,2.446,1.553S35.906,19.437,35.906,20.46z M28.573,17.16
		c0-0.107-0.034-0.195-0.103-0.264l-4.033-4.033c-0.069-0.069-0.157-0.103-0.264-0.103s-0.195,0.034-0.264,0.103l-4.022,4.022
		c-0.076,0.092-0.115,0.183-0.115,0.275c0,0.107,0.034,0.195,0.103,0.264s0.157,0.103,0.264,0.103h2.567v4.033
		c0,0.099,0.036,0.185,0.109,0.258c0.073,0.073,0.159,0.109,0.258,0.109h2.2c0.099,0,0.185-0.036,0.258-0.109
		c0.073-0.073,0.109-0.159,0.109-0.258v-4.033h2.567c0.099,0,0.185-0.036,0.258-0.109C28.537,17.346,28.573,17.26,28.573,17.16z"/>
</g>
</svg>
