<?xml version="1.0" encoding="utf-8"?>
<!-- Generator: Adobe Illustrator 17.0.0, SVG Export Plug-In . SVG Version: 6.00 Build 0)  -->
<!DOCTYPE svg PUBLIC "-//W3C//DTD SVG 1.1//EN" "http://www.w3.org/Graphics/SVG/1.1/DTD/svg11.dtd">
<svg version="1.1" id="Layer_1" xmlns="http://www.w3.org/2000/svg" xmlns:xlink="http://www.w3.org/1999/xlink" x="0px" y="0px"
	 width="312px" height="224px" viewBox="0 0 312 224" enable-background="new 0 0 312 224" xml:space="preserve">
<g>
	<polyline fill="#232323" points="224,197 245,197 245,201 224,201 224,197 	"/>
	<polyline fill="#050505" points="245,197 234,197 234,201 245,201 245,197 	"/>
	<rect x="181" y="197" fill="#58595B" width="3" height="9"/>
	<rect x="194" y="197" fill="#58595B" width="3" height="9"/>
	<polyline fill="#232323" points="67,201 88,201 88,197 67,197 67,201 	"/>
	<polyline fill="#050505" points="88,197 78,197 78,201 88,201 88,197 	"/>
	<rect x="128" y="197" fill="#58595B" width="3" height="9"/>
	<rect x="115" y="197" fill="#58595B" width="3" height="9"/>
	<path fill="#191919" d="M127.997,224h28.157h28.157c0,0,9.69-0.268,9.69-8.781V201h-10v9.793c0,0,0.31,4.207-4.589,4.207h-23.258
		h-23.258c-4.899,0-4.896-4.207-4.896-4.207V201h-10v14.219C118,223.732,127.997,224,127.997,224"/>
	<path fill="#020202" d="M189,201h-5v9.793c0,0,0.004,0.054,0.004,0.15c0,0.749-0.249,4.057-4.593,4.057h-23.258h-23.258l0,0h0
		c-4.823,0-4.894-4.077-4.896-4.204c0-0.002,0-0.003,0-0.003c0,0,0,0,0,0V201h-5v9.752c0,7.85,10.472,8.253,12.62,8.253
		c0.245,0,0.382-0.005,0.382-0.005h46.227c0,0,0.071,0.005,0.199,0.005c1.118,0,6.572-0.402,6.572-8.253V201"/>
	<path fill="#191919" d="M294,190c0,3.314-2.686,6-6,6H25c-3.314,0-6-2.686-6-6V15c0-3.314,2.686-6,6-6h263c3.314,0,6,2.686,6,6V190
		"/>
	<path fill="#BCBEC0" d="M294,190h-1c-0.001,1.384-0.558,2.628-1.464,3.536c-0.908,0.906-2.152,1.464-3.536,1.464H25
		c-1.384-0.001-2.628-0.558-3.536-1.464C20.558,192.628,20,191.384,20,190V15c0.001-1.384,0.558-2.628,1.464-3.536
		C22.372,10.558,23.616,10,25,10h263c1.384,0.001,2.628,0.558,3.536,1.464c0.906,0.908,1.464,2.152,1.464,3.536v175H294h1V15
		c-0.001-3.866-3.134-6.999-7-7H25c-3.866,0.001-6.999,3.134-7,7v175c0.001,3.866,3.134,6.999,7,7h263c3.866-0.001,6.999-3.134,7-7
		H294z"/>
	<path fill="#BAC368" d="M285,40v144.5c0,0.55-0.45,1.5-1,1.5H29c-0.55,0-1-0.95-1-1.5V40H285"/>
	<path fill="#151611" d="M28,184.5v1h0.32C28.124,185.186,28,184.788,28,184.5 M285,41L285,41v143.5c0,0.288-0.124,0.686-0.32,1H285
		V41"/>
	<path fill="#A1AC49" d="M69,41L69,41v6h-8v-6H28v143.5c0,0.288,0.124,0.686,0.32,1H35v-138h34V41 M227,41L227,41v6h-8v-6H93v6h-8
		v0.5h142V41 M285,41h-34v6h-8v0.5h35v138h6.68c0.197-0.314,0.32-0.712,0.32-1V41"/>
	<path fill="#191919" d="M311,37c0,1.657-1.343,3-3,3H4c-1.657,0-3-1.343-3-3V4c0-1.657,1.343-3,3-3h304c1.657,0,3,1.343,3,3V37z"/>
	<path fill="#BCBEC0" d="M311,37h-1c-0.002,1.104-0.896,1.998-2,2H4c-1.104-0.002-1.998-0.896-2-2V4c0.002-1.104,0.896-1.998,2-2
		h304c1.104,0.002,1.998,0.896,2,2v33H311h1V4c-0.001-2.21-1.79-3.999-4-4H4C1.791,0.001,0.001,1.79,0,4v33
		c0.001,2.21,1.791,3.999,4,4h304c2.21-0.001,3.999-1.79,4-4H311"/>
	<path fill="#414042" d="M99,38c0,0.552-0.448,1-1,1H56c-0.552,0-1-0.448-1-1v-8c0-0.552,0.448-1,1-1h42c0.552,0,1,0.448,1,1V38z"/>
	<polyline fill="#58595B" points="85.958,36 70.021,36 61,36 61,39.631 61,47 69,47 69,40 85,40 85,47 93,47 93,39.631 93,36 
		85.958,36 	"/>
	<polyline fill="#1A1B0E" points="85,47.5 69,47.5 69,58 85,58 85,47.5 	"/>
	<polyline fill="#16180A" points="85,41 69,41 69,47.5 85,47.5 85,47 85,41 	"/>
	<polyline fill="#1A1A1A" points="85,40 69,40 69,41 85,41 85,40 	"/>
	<polyline fill="#0C0C0C" points="85,40 69,40 85,40 85,41 85,47 85,40 	"/>
	<path fill="#414042" d="M256,38c0,0.552-0.448,1-1,1h-41c-0.552,0-1-0.448-1-1v-8c0-0.552,0.448-1,1-1h41c0.552,0,1,0.448,1,1V38z"
		/>
	<polyline fill="#58595B" points="242.729,36 226.792,36 219,36 219,39.631 219,47 227,47 227,40 243,40 243,47 251,47 251,39.631 
		251,36 242.729,36 	"/>
	<polyline fill="#1A1B0E" points="243,47.5 227,47.5 227,58 243,58 243,47.5 	"/>
	<polyline fill="#16180A" points="243,41 227,41 227,47.5 243,47.5 243,47 243,41 	"/>
	<polyline fill="#1A1A1A" points="243,40 227,40 227,41 243,41 243,40 	"/>
	<polyline fill="#0C0C0C" points="243,40 227,40 243,40 243,41 243,47 243,40 	"/>
	<polygon fill="#191919" points="48.484,96 48.484,94.312 46.656,94.312 46.656,96 46.645,96 46.079,97 46.079,101 49.079,101 
		49.079,97 	"/>
	<rect x="46.961" y="93.109" fill="#191919" width="1.234" height="1.203"/>
	<path fill="#191919" d="M127,97c0,1.105-0.895,2-2,2H81c-1.105,0-2-0.895-2-2V74c0-1.105,0.895-2,2-2h44c1.105,0,2,0.895,2,2V97z"
		/>
	<path fill="#191919" d="M48.079,93.145c0.007-2.796,1.31-4.852,3.379-6.282c2.069-1.423,4.921-2.165,7.891-2.163
		c2.694-0.001,5.481,0.607,7.86,1.821c2.382,1.215,4.351,3.025,5.471,5.437c0.831,1.79,1.219,3.64,1.219,5.414
		c0,2.764-0.943,5.338-2.61,7.212c-1.67,1.873-4.052,3.059-7.021,3.062c-2.809,0-5.348-1.137-7.189-2.978
		c-1.841-1.841-2.977-4.38-2.978-7.189c0.006-2.816,1.218-4.917,3.166-6.583c2.92-2.492,7.529-3.878,11.816-4.603
		c4.287-0.73,8.246-0.818,9.887-0.818c0.517,0,0.798,0.009,0.799,0.009l0.03-1c-0.004,0-0.301-0.009-0.829-0.009
		c-2.237,0.001-8.608,0.154-14.48,1.817c-2.936,0.834-5.753,2.043-7.871,3.841c-2.118,1.792-3.524,4.223-3.518,7.345
		c0,6.168,4.999,11.167,11.167,11.167c3.241,0.003,5.925-1.321,7.768-3.397c1.845-2.075,2.863-4.887,2.863-7.877
		c0-1.919-0.42-3.914-1.312-5.835c-1.23-2.65-3.385-4.613-5.923-5.907c-2.541-1.294-5.471-1.93-8.315-1.93
		c-3.133,0.002-6.167,0.77-8.457,2.339c-2.29,1.561-3.82,3.979-3.813,7.107H48.079L48.079,93.145z"/>
	<rect x="46.383" y="101" fill="#E6E7E8" width="2.391" height="1.719"/>
	<path fill="#191919" d="M250,88h-12.105c-0.55,0-0.895-0.66-0.895-1.21V82.5c0-0.55,0.345-0.5,0.895-0.5H250"/>
	<rect x="250" y="83" fill="#E6E7E8" width="4" height="4"/>
	<path fill="#414042" d="M212,66c0-2.209-1.791-4-4-4h-68c-2.209,0-4,1.791-4,4v104c0,2.209,1.791,4,4,4h68c2.209,0,4-1.791,4-4V66"
		/>
	<path fill="#141414" d="M211,67c0-2.209-1.791-4-4-4h-66c-2.209,0-4,1.791-4,4v103c0,2.209,1.791,4,4,4h66c2.209,0,4-1.791,4-4V67"
		/>
	<path fill="#2B2B2B" d="M207,74c0-0.552-0.448-1-1-1h-65c-0.552,0-1,0.448-1,1v88c0,0.552,0.448,1,1,1h65c0.552,0,1-0.448,1-1V74"
		/>
	<circle fill="#323535" cx="171.738" cy="68.997" r="0.368"/>
	<circle fill="#555B5D" cx="174.086" cy="68.949" r="0.738"/>
	<circle fill="#676E70" cx="174.086" cy="68.949" r="0.412"/>
	
		<rect x="174.013" y="68.877" transform="matrix(0.7061 -0.7081 0.7081 0.7061 2.3392 143.5345)" fill="#555B5D" width="0.145" height="0.145"/>
	<path fill="#3F4343" d="M171.371,167.947c0,0.005,0.001,0.01,0.001,0.015C171.372,167.957,171.372,167.952,171.371,167.947
		 M171.37,167.931c0,0.005,0.001,0.01,0.001,0.014C171.371,167.941,171.37,167.936,171.37,167.931 M171.369,167.915
		c0,0.004,0.001,0.009,0.001,0.013C171.37,167.924,171.369,167.92,171.369,167.915 M171.368,167.899c0,0.004,0,0.008,0.001,0.013
		C171.369,167.908,171.368,167.903,171.368,167.899 M171.664,167.897C171.664,167.897,171.664,167.897,171.664,167.897
		C171.664,167.897,171.664,167.897,171.664,167.897 M171.367,167.883c0,0.004,0,0.008,0.001,0.012
		C171.368,167.891,171.367,167.887,171.367,167.883 M171.663,167.881c0,0.001,0,0.001,0,0.002
		C171.663,167.883,171.663,167.882,171.663,167.881 M171.366,167.867c0,0.004,0,0.008,0.001,0.011
		C171.367,167.874,171.367,167.871,171.366,167.867 M171.662,167.866c0,0.001,0,0.002,0,0.003
		C171.662,167.868,171.662,167.867,171.662,167.866 M171.661,167.851c0,0.001,0,0.002,0,0.003
		C171.662,167.853,171.662,167.852,171.661,167.851 M171.366,167.85c0,0.004,0,0.007,0,0.011
		C171.366,167.858,171.366,167.854,171.366,167.85 M171.661,167.835c0,0.002,0,0.003,0,0.005
		C171.661,167.838,171.661,167.837,171.661,167.835 M171.365,167.834c0,0.003,0,0.007,0,0.01
		C171.366,167.841,171.365,167.837,171.365,167.834 M171.66,167.82c0,0.002,0,0.004,0,0.006
		C171.66,167.823,171.66,167.821,171.66,167.82 M171.365,167.818c0,0.003,0,0.006,0,0.009
		C171.365,167.824,171.365,167.821,171.365,167.818 M171.66,167.804c0,0.002,0,0.004,0,0.007
		C171.66,167.808,171.66,167.806,171.66,167.804 M171.364,167.801c0,0.003,0,0.006,0,0.009
		C171.365,167.807,171.365,167.804,171.364,167.801 M171.66,167.788c0,0.003,0,0.005,0,0.008
		C171.66,167.793,171.66,167.79,171.66,167.788 M171.364,167.784c0,0.003,0,0.005,0,0.008
		C171.364,167.79,171.364,167.787,171.364,167.784 M171.66,167.771c0,0.003,0,0.006,0,0.009
		C171.66,167.778,171.66,167.775,171.66,167.771 M171.364,167.768c0,0.002,0,0.004,0,0.006
		C171.364,167.772,171.364,167.77,171.364,167.768 M171.659,167.751c0,0.005,0,0.01,0,0.015
		C171.659,167.761,171.659,167.756,171.659,167.751 M174.458,165.447c0.001,0,0.001,0,0.002,0
		C174.459,165.447,174.458,165.447,174.458,165.447 M174.441,165.444c0.001,0,0.002,0,0.003,0
		C174.443,165.444,174.442,165.444,174.441,165.444 M174.413,165.439c0.002,0,0.003,0.001,0.005,0.001
		C174.416,165.439,174.415,165.439,174.413,165.439 M174.397,165.436c0.002,0,0.004,0.001,0.005,0.001
		C174.401,165.437,174.399,165.436,174.397,165.436 M174.381,165.433c0.003,0.001,0.006,0.001,0.009,0.002
		C174.387,165.434,174.384,165.434,174.381,165.433 M174.368,165.431c0.002,0,0.004,0.001,0.006,0.001
		C174.373,165.432,174.371,165.432,174.368,165.431 M174.353,165.429c0.003,0,0.005,0.001,0.008,0.001
		C174.358,165.43,174.355,165.429,174.353,165.429 M174.337,165.427c0.003,0,0.007,0.001,0.01,0.001
		C174.344,165.428,174.34,165.427,174.337,165.427 M174.324,165.425c0.003,0,0.005,0.001,0.008,0.001
		C174.329,165.426,174.326,165.425,174.324,165.425 M174.308,165.423c0.003,0,0.006,0.001,0.009,0.001
		C174.314,165.424,174.311,165.423,174.308,165.423 M174.293,165.421c0.004,0,0.007,0.001,0.011,0.001
		C174.3,165.422,174.296,165.421,174.293,165.421 M174.279,165.419c0.003,0,0.006,0.001,0.009,0.001
		C174.285,165.42,174.282,165.42,174.279,165.419 M174.264,165.418c0.003,0,0.007,0.001,0.011,0.001
		C174.271,165.418,174.267,165.418,174.264,165.418 M174.248,165.416c0.004,0,0.008,0.001,0.012,0.001
		C174.256,165.417,174.252,165.416,174.248,165.416 M174.233,165.415c0.004,0,0.008,0.001,0.011,0.001
		C174.241,165.415,174.237,165.415,174.233,165.415 M174.219,165.413c0.004,0,0.008,0.001,0.012,0.001
		C174.227,165.414,174.223,165.414,174.219,165.413 M174.203,165.412c0.004,0,0.008,0.001,0.012,0.001
		C174.211,165.413,174.207,165.412,174.203,165.412 M174.188,165.411c0.004,0,0.008,0.001,0.012,0.001
		C174.196,165.411,174.192,165.411,174.188,165.411 M174.174,165.41c0.004,0,0.008,0.001,0.013,0.001
		C174.183,165.41,174.178,165.41,174.174,165.41 M174.159,165.409c0.004,0,0.008,0.001,0.012,0.001
		C174.167,165.409,174.163,165.409,174.159,165.409 M174.143,165.408c0.004,0,0.008,0,0.012,0.001
		C174.151,165.408,174.147,165.408,174.143,165.408 M174.129,165.407c0.004,0,0.009,0,0.013,0.001
		C174.138,165.407,174.133,165.407,174.129,165.407 M174.114,165.406c0.004,0,0.009,0,0.013,0.001
		C174.122,165.407,174.118,165.406,174.114,165.406 M174.098,165.406c0.004,0,0.009,0,0.013,0.001
		C174.106,165.406,174.102,165.406,174.098,165.406 M174.084,165.405c0.005,0,0.009,0,0.014,0
		C174.093,165.405,174.088,165.405,174.084,165.405 M174.068,165.405c0.004,0,0.009,0,0.013,0
		C174.077,165.405,174.072,165.405,174.068,165.405 M174.052,165.404c0.005,0,0.009,0,0.014,0
		C174.061,165.404,174.057,165.404,174.052,165.404 M174.039,165.404c0.005,0,0.009,0,0.014,0
		C174.048,165.404,174.043,165.404,174.039,165.404 M174.023,165.404c0.004,0,0.009,0,0.013,0
		C174.032,165.404,174.027,165.404,174.023,165.404 M174.007,165.404c-1.296,0-2.347,1.051-2.347,2.347l0,0
		C171.659,166.455,172.71,165.404,174.007,165.404c0.004,0,0.009,0,0.014,0C174.016,165.404,174.011,165.404,174.007,165.404
		 M174.483,165.151c0.67,0.122,1.251,0.496,1.643,1.021l-0.227,0.19c0.286,0.389,0.455,0.869,0.455,1.389
		c0,1.296-1.051,2.347-2.348,2.347c-0.668,0-1.271-0.279-1.699-0.727l-0.226,0.19c-0.4-0.425-0.661-0.982-0.709-1.598
		c0.108,1.361,1.246,2.431,2.634,2.431c1.46,0,2.643-1.183,2.643-2.643C176.649,166.454,175.715,165.376,174.483,165.151
		 M174.464,165.148c0.006,0.001,0.013,0.002,0.019,0.003C174.477,165.15,174.47,165.149,174.464,165.148 M174.436,165.143
		c0.009,0.002,0.019,0.003,0.028,0.005C174.454,165.146,174.445,165.145,174.436,165.143 M174.418,165.14
		c0.005,0.001,0.01,0.002,0.015,0.002C174.428,165.142,174.423,165.141,174.418,165.14 M174.406,165.138
		c0.003,0,0.006,0.001,0.008,0.001C174.411,165.139,174.408,165.139,174.406,165.138 M174.388,165.136
		c0.005,0.001,0.01,0.001,0.014,0.002C174.397,165.137,174.393,165.136,174.388,165.136 M174.37,165.133
		c0.004,0.001,0.008,0.001,0.013,0.002C174.378,165.134,174.374,165.134,174.37,165.133 M174.357,165.131
		c0.003,0,0.005,0.001,0.008,0.001C174.362,165.132,174.359,165.132,174.357,165.131 M174.339,165.129
		c0.002,0,0.005,0.001,0.007,0.001C174.344,165.13,174.342,165.129,174.339,165.129 M174.322,165.127
		c0.003,0,0.006,0.001,0.01,0.001C174.328,165.128,174.325,165.127,174.322,165.127 M174.308,165.125c0.002,0,0.004,0,0.006,0.001
		C174.312,165.126,174.31,165.126,174.308,165.125 M174.29,165.123c0.002,0,0.004,0,0.006,0.001
		C174.294,165.124,174.292,165.124,174.29,165.123 M174.274,165.122c0.002,0,0.003,0,0.004,0
		C174.277,165.122,174.276,165.122,174.274,165.122 M174.259,165.12c0.001,0,0.003,0,0.005,0
		C174.262,165.121,174.26,165.12,174.259,165.12 M174.241,165.119c0.002,0,0.003,0,0.005,0
		C174.244,165.119,174.243,165.119,174.241,165.119 M174.224,165.117c0.001,0,0.002,0,0.004,0
		C174.227,165.117,174.225,165.117,174.224,165.117 M174.209,165.116c0.001,0,0.002,0,0.004,0
		C174.211,165.116,174.21,165.116,174.209,165.116 M174.191,165.115c0.001,0,0.003,0,0.004,0
		C174.194,165.115,174.193,165.115,174.191,165.115 M174.174,165.114c0.001,0,0.002,0,0.004,0
		C174.176,165.114,174.175,165.114,174.174,165.114 M174.159,165.113c0.001,0,0.002,0,0.003,0
		C174.161,165.113,174.16,165.113,174.159,165.113 M174.141,165.112c0.001,0,0.002,0,0.004,0
		C174.143,165.112,174.142,165.112,174.141,165.112 M174.124,165.111c0.001,0,0.002,0,0.003,0
		C174.126,165.111,174.125,165.111,174.124,165.111 M174.108,165.11c0.001,0,0.001,0,0.002,0
		C174.11,165.11,174.109,165.11,174.108,165.11 M174.09,165.11c0.001,0,0.002,0,0.003,0
		C174.093,165.11,174.092,165.11,174.09,165.11 M174.074,165.109c0.001,0,0.001,0,0.002,0
		C174.075,165.109,174.074,165.109,174.074,165.109 M174.058,165.109C174.058,165.109,174.058,165.109,174.058,165.109
		C174.058,165.109,174.058,165.109,174.058,165.109 M174.04,165.109c0.001,0,0.002,0,0.003,0
		C174.042,165.109,174.041,165.109,174.04,165.109 M174.022,165.108c0.001,0,0.002,0,0.003,0
		C174.024,165.108,174.023,165.108,174.022,165.108"/>
	<path fill="#4A4D4E" d="M171.372,167.962C171.372,167.962,171.372,167.962,171.372,167.962
		C171.372,167.962,171.372,167.962,171.372,167.962 M171.371,167.946c0,0,0,0.001,0,0.001
		C171.371,167.946,171.371,167.946,171.371,167.946 M171.37,167.929c0,0.001,0,0.002,0,0.003
		C171.37,167.93,171.37,167.93,171.37,167.929 M171.369,167.912c0,0.001,0,0.002,0,0.003
		C171.369,167.914,171.369,167.913,171.369,167.912 M171.664,167.897c0.035,0.57,0.274,1.085,0.644,1.474l0,0
		C171.938,168.982,171.699,168.467,171.664,167.897 M171.368,167.895c0,0.001,0,0.003,0,0.004
		C171.368,167.898,171.368,167.896,171.368,167.895 M171.663,167.883c0,0.005,0,0.009,0.001,0.014
		C171.664,167.892,171.663,167.888,171.663,167.883 M171.367,167.878c0,0.002,0,0.003,0,0.005
		C171.367,167.881,171.367,167.88,171.367,167.878 M171.662,167.869c0,0.004,0,0.008,0.001,0.012
		C171.663,167.877,171.663,167.873,171.662,167.869 M171.366,167.861c0,0.002,0,0.004,0,0.006
		C171.366,167.865,171.366,167.863,171.366,167.861 M171.662,167.854c0,0.004,0,0.008,0.001,0.012
		C171.662,167.862,171.662,167.858,171.662,167.854 M171.366,167.844c0,0.002,0,0.004,0,0.006
		C171.366,167.848,171.366,167.846,171.366,167.844 M171.661,167.84c0,0.004,0,0.007,0,0.011
		C171.661,167.847,171.661,167.843,171.661,167.84 M171.365,167.827c0,0.003,0,0.005,0,0.008
		C171.365,167.832,171.365,167.829,171.365,167.827 M171.661,167.825c0,0.003,0,0.007,0,0.01
		C171.661,167.832,171.661,167.828,171.661,167.825 M171.66,167.81c0,0.003,0,0.006,0,0.009
		C171.66,167.816,171.66,167.813,171.66,167.81 M171.365,167.81c0,0.003,0,0.005,0,0.008
		C171.365,167.815,171.365,167.812,171.365,167.81 M171.66,167.796c0,0.003,0,0.005,0,0.008
		C171.66,167.801,171.66,167.798,171.66,167.796 M171.364,167.792c0,0.003,0,0.006,0,0.009
		C171.364,167.798,171.364,167.795,171.364,167.792 M171.66,167.781c0,0.002,0,0.005,0,0.007
		C171.66,167.785,171.66,167.783,171.66,167.781 M171.364,167.774c0,0.004,0,0.007,0,0.011
		C171.364,167.781,171.364,167.777,171.364,167.774 M171.659,167.766c0,0.002,0,0.004,0,0.005
		C171.659,167.77,171.659,167.768,171.659,167.766 M171.364,167.751c0,0.006,0,0.011,0,0.017
		C171.364,167.762,171.364,167.757,171.364,167.751 M174.46,165.447c0.588,0.115,1.097,0.449,1.439,0.915l0,0
		C175.557,165.897,175.048,165.562,174.46,165.447 M174.444,165.444c0.005,0.001,0.009,0.002,0.014,0.003
		C174.453,165.446,174.448,165.445,174.444,165.444 M174.418,165.44c0.008,0.001,0.016,0.003,0.023,0.004
		C174.433,165.442,174.425,165.441,174.418,165.44 M174.402,165.437c0.004,0.001,0.007,0.001,0.011,0.002
		C174.409,165.438,174.406,165.438,174.402,165.437 M174.39,165.435c0.002,0,0.004,0.001,0.006,0.001
		C174.395,165.436,174.393,165.435,174.39,165.435 M174.375,165.432c0.002,0,0.004,0.001,0.006,0.001
		C174.379,165.433,174.377,165.433,174.375,165.432 M174.361,165.43c0.003,0,0.005,0.001,0.008,0.001
		C174.366,165.431,174.363,165.431,174.361,165.43 M174.347,165.428c0.002,0,0.004,0.001,0.005,0.001
		C174.351,165.429,174.349,165.429,174.347,165.428 M174.332,165.426c0.002,0,0.004,0,0.005,0.001
		C174.335,165.427,174.333,165.426,174.332,165.426 M174.317,165.424c0.002,0,0.004,0.001,0.007,0.001
		C174.322,165.425,174.32,165.424,174.317,165.424 M174.304,165.422c0.002,0,0.003,0,0.005,0.001
		C174.307,165.423,174.305,165.423,174.304,165.422 M174.288,165.42c0.002,0,0.003,0,0.005,0.001
		C174.291,165.421,174.29,165.421,174.288,165.42 M174.274,165.419c0.001,0,0.003,0,0.004,0
		C174.277,165.419,174.276,165.419,174.274,165.419 M174.26,165.417c0.001,0,0.003,0,0.004,0
		C174.262,165.418,174.261,165.417,174.26,165.417 M174.245,165.416c0.001,0,0.002,0,0.003,0
		C174.247,165.416,174.246,165.416,174.245,165.416 M174.231,165.414c0.001,0,0.001,0,0.002,0
		C174.233,165.415,174.232,165.414,174.231,165.414 M174.216,165.413c0.001,0,0.002,0,0.004,0
		C174.218,165.413,174.217,165.413,174.216,165.413 M174.2,165.412c0.001,0,0.002,0,0.003,0
		C174.202,165.412,174.201,165.412,174.2,165.412 M174.187,165.411c0.001,0,0.001,0,0.002,0
		C174.188,165.411,174.187,165.411,174.187,165.411 M174.171,165.409c0.001,0,0.002,0,0.003,0
		C174.173,165.41,174.172,165.41,174.171,165.409 M174.155,165.408c0.001,0,0.002,0,0.003,0
		C174.158,165.409,174.156,165.408,174.155,165.408 M174.142,165.408c0,0,0.001,0,0.001,0
		C174.143,165.408,174.143,165.408,174.142,165.408 M174.127,165.407c0.001,0,0.001,0,0.002,0
		C174.128,165.407,174.127,165.407,174.127,165.407 M174.111,165.406c0.001,0,0.002,0,0.003,0
		C174.113,165.406,174.112,165.406,174.111,165.406 M174.097,165.405C174.097,165.405,174.098,165.405,174.097,165.405
		C174.098,165.405,174.097,165.405,174.097,165.405 M174.081,165.405c0.001,0,0.002,0,0.003,0
		C174.083,165.405,174.082,165.405,174.081,165.405 M174.066,165.405c0.001,0,0.002,0,0.002,0
		C174.067,165.405,174.067,165.405,174.066,165.405 M174.052,165.404C174.052,165.404,174.052,165.404,174.052,165.404
		L174.052,165.404 M174.036,165.404c0.001,0,0.002,0,0.003,0C174.038,165.404,174.037,165.404,174.036,165.404 M174.02,165.404
		c0.001,0,0.002,0,0.003,0C174.022,165.404,174.021,165.404,174.02,165.404 M174.483,165.151
		C174.483,165.151,174.483,165.151,174.483,165.151C174.483,165.151,174.483,165.151,174.483,165.151 M174.464,165.148
		L174.464,165.148L174.464,165.148 M174.433,165.143c0.001,0,0.002,0,0.003,0.001C174.435,165.143,174.434,165.143,174.433,165.143
		 M174.414,165.14c0.001,0,0.003,0,0.004,0.001C174.417,165.14,174.415,165.14,174.414,165.14 M174.402,165.138
		c0.001,0,0.002,0,0.003,0C174.404,165.138,174.403,165.138,174.402,165.138 M174.383,165.135c0.002,0,0.003,0,0.005,0.001
		C174.386,165.135,174.384,165.135,174.383,165.135 M174.365,165.132c0.002,0,0.004,0,0.005,0.001
		C174.368,165.133,174.366,165.133,174.365,165.132 M174.346,165.13c0.004,0,0.007,0.001,0.011,0.001
		C174.353,165.131,174.35,165.13,174.346,165.13 M174.332,165.128c0.002,0,0.005,0.001,0.008,0.001
		C174.337,165.129,174.334,165.128,174.332,165.128 M174.314,165.126c0.003,0,0.005,0.001,0.008,0.001
		C174.319,165.127,174.317,165.126,174.314,165.126 M174.296,165.124c0.004,0,0.008,0.001,0.012,0.001
		C174.304,165.125,174.3,165.124,174.296,165.124 M174.279,165.122c0.004,0,0.008,0.001,0.012,0.001
		C174.286,165.123,174.282,165.123,174.279,165.122 M174.263,165.121c0.004,0,0.007,0.001,0.011,0.001
		C174.27,165.121,174.267,165.121,174.263,165.121 M174.246,165.119c0.004,0,0.009,0.001,0.013,0.001
		C174.254,165.12,174.25,165.119,174.246,165.119 M174.228,165.117c0.004,0,0.009,0.001,0.013,0.001
		C174.237,165.118,174.232,165.118,174.228,165.117 M174.213,165.116c0.004,0,0.008,0.001,0.012,0.001
		C174.22,165.117,174.216,165.117,174.213,165.116 M174.195,165.115c0.004,0,0.009,0.001,0.013,0.001
		C174.204,165.116,174.2,165.115,174.195,165.115 M174.177,165.114c0.005,0,0.009,0.001,0.014,0.001
		C174.187,165.114,174.182,165.114,174.177,165.114 M174.162,165.113c0.004,0,0.008,0,0.012,0.001
		C174.17,165.113,174.166,165.113,174.162,165.113 M174.145,165.112c0.005,0,0.009,0,0.014,0.001
		C174.154,165.112,174.149,165.112,174.145,165.112 M174.127,165.111c0.005,0,0.01,0,0.014,0.001
		C174.136,165.111,174.131,165.111,174.127,165.111 M174.11,165.11c0.005,0,0.009,0,0.014,0.001
		C174.119,165.111,174.115,165.111,174.11,165.11 M174.094,165.11c0.005,0,0.01,0,0.015,0
		C174.103,165.11,174.099,165.11,174.094,165.11 M174.076,165.109c0.005,0,0.01,0,0.015,0
		C174.086,165.109,174.081,165.109,174.076,165.109 M174.059,165.109c0.005,0,0.01,0,0.015,0
		C174.069,165.109,174.064,165.109,174.059,165.109 M174.043,165.109c0.005,0,0.01,0,0.015,0
		C174.053,165.109,174.048,165.109,174.043,165.109 M174.025,165.108c0.005,0,0.01,0,0.015,0
		C174.035,165.108,174.03,165.108,174.025,165.108 M174.007,165.108c-1.459,0-2.643,1.183-2.643,2.643l0,0
		C171.364,166.292,172.547,165.108,174.007,165.108c0.005,0,0.01,0,0.015,0C174.017,165.108,174.012,165.108,174.007,165.108"/>
	<path fill="#686E6E" d="M174.007,165.108c-1.459,0-2.643,1.183-2.643,2.643l0,0c0,0.006,0,0.011,0,0.017c0,0.002,0,0.004,0,0.006
		c0,0.004,0,0.007,0,0.011c0,0.003,0,0.005,0,0.008c0,0.003,0,0.006,0,0.009c0,0.003,0,0.006,0,0.009c0,0.003,0,0.005,0,0.008
		c0,0.003,0,0.006,0,0.009c0,0.002,0,0.005,0,0.008c0,0.003,0,0.007,0,0.01c0,0.002,0,0.004,0,0.006c0,0.004,0,0.007,0,0.011
		c0,0.002,0,0.004,0,0.006c0,0.004,0,0.008,0.001,0.011c0,0.002,0,0.003,0,0.005c0,0.004,0,0.008,0.001,0.012
		c0,0.001,0,0.003,0,0.004c0,0.004,0,0.008,0.001,0.013c0,0.001,0,0.002,0,0.003c0,0.004,0.001,0.009,0.001,0.013
		c0,0.001,0,0.002,0,0.003c0,0.005,0.001,0.01,0.001,0.014c0,0,0,0.001,0,0.001c0,0.005,0.001,0.01,0.001,0.015c0,0,0,0,0,0
		c0.049,0.617,0.31,1.173,0.709,1.598l0.226-0.19c-0.37-0.388-0.609-0.903-0.644-1.474c0,0,0,0,0-0.001
		c0-0.005-0.001-0.009-0.001-0.014c0-0.001,0-0.001,0-0.002c0-0.004,0-0.008-0.001-0.012c0-0.001,0-0.002,0-0.003
		c0-0.004,0-0.008-0.001-0.012c0-0.001,0-0.002,0-0.003c0-0.004,0-0.007,0-0.011c0-0.002,0-0.003,0-0.005c0-0.003,0-0.007,0-0.01
		c0-0.002,0-0.004,0-0.006c0-0.003,0-0.006,0-0.009c0-0.002,0-0.005,0-0.007c0-0.003,0-0.005,0-0.008c0-0.003,0-0.005,0-0.008
		c0-0.002,0-0.005,0-0.007c0-0.003,0-0.006,0-0.009c0-0.002,0-0.004,0-0.005c0-0.005,0-0.01,0-0.015l0,0l0,0l0,0
		c0-1.296,1.051-2.347,2.347-2.347c0.005,0,0.009,0,0.014,0c0.001,0,0.002,0,0.003,0c0.004,0,0.009,0,0.013,0
		c0.001,0,0.002,0,0.003,0c0.005,0,0.009,0,0.014,0h0c0.005,0,0.009,0,0.014,0c0.001,0,0.001,0,0.002,0c0.004,0,0.009,0,0.013,0
		c0.001,0,0.002,0,0.003,0c0.005,0,0.009,0,0.014,0c0,0,0,0,0,0c0.004,0,0.009,0,0.013,0.001c0.001,0,0.002,0,0.003,0
		c0.004,0,0.009,0,0.013,0.001c0.001,0,0.001,0,0.002,0c0.004,0,0.009,0,0.013,0.001c0,0,0.001,0,0.001,0
		c0.004,0,0.008,0,0.012,0.001c0.001,0,0.002,0,0.003,0c0.004,0,0.008,0.001,0.012,0.001c0.001,0,0.002,0,0.003,0
		c0.004,0,0.008,0.001,0.013,0.001c0.001,0,0.001,0,0.002,0c0.004,0,0.008,0.001,0.012,0.001c0.001,0,0.002,0,0.003,0
		c0.004,0,0.008,0.001,0.012,0.001c0.001,0,0.002,0,0.004,0c0.004,0,0.008,0.001,0.012,0.001c0.001,0,0.001,0,0.002,0
		c0.004,0,0.008,0.001,0.011,0.001c0.001,0,0.002,0,0.003,0c0.004,0,0.008,0.001,0.012,0.001c0.001,0,0.003,0,0.004,0
		c0.004,0,0.007,0.001,0.011,0.001c0.001,0,0.003,0,0.004,0c0.003,0,0.006,0.001,0.009,0.001c0.002,0,0.003,0,0.005,0.001
		c0.004,0,0.007,0.001,0.011,0.001c0.002,0,0.003,0,0.005,0.001c0.003,0,0.006,0.001,0.009,0.001c0.002,0,0.004,0.001,0.007,0.001
		c0.003,0,0.005,0.001,0.008,0.001c0.002,0,0.004,0,0.005,0.001c0.003,0,0.007,0.001,0.01,0.001c0.002,0,0.004,0.001,0.005,0.001
		c0.003,0,0.005,0.001,0.008,0.001c0.003,0,0.005,0.001,0.008,0.001c0.002,0,0.004,0.001,0.006,0.001
		c0.002,0,0.004,0.001,0.006,0.001c0.003,0.001,0.006,0.001,0.009,0.002c0.002,0,0.004,0.001,0.006,0.001
		c0.002,0,0.004,0.001,0.005,0.001c0.004,0.001,0.007,0.001,0.011,0.002c0.002,0,0.003,0.001,0.005,0.001
		c0.008,0.001,0.016,0.003,0.023,0.004c0.001,0,0.002,0,0.003,0c0.005,0.001,0.009,0.002,0.014,0.003c0.001,0,0.001,0,0.002,0
		c0.588,0.115,1.097,0.449,1.439,0.914l0.227-0.19c-0.392-0.524-0.973-0.899-1.643-1.021c0,0,0,0,0,0
		c-0.006-0.001-0.013-0.002-0.019-0.003h0c-0.009-0.002-0.018-0.003-0.028-0.005c-0.001,0-0.002,0-0.003-0.001
		c-0.005-0.001-0.01-0.002-0.015-0.002c-0.001,0-0.003,0-0.004-0.001c-0.003,0-0.006-0.001-0.008-0.001c-0.001,0-0.002,0-0.003,0
		c-0.005-0.001-0.01-0.001-0.014-0.002c-0.002,0-0.003,0-0.005-0.001c-0.004-0.001-0.008-0.001-0.013-0.002
		c-0.002,0-0.004,0-0.005-0.001c-0.003,0-0.005-0.001-0.008-0.001c-0.004,0-0.007-0.001-0.011-0.001
		c-0.002,0-0.005-0.001-0.007-0.001c-0.003,0-0.005-0.001-0.008-0.001c-0.003,0-0.006-0.001-0.01-0.001
		c-0.003,0-0.005-0.001-0.008-0.001c-0.002,0-0.004,0-0.006-0.001c-0.004,0-0.008-0.001-0.012-0.001c-0.002,0-0.004,0-0.006-0.001
		c-0.004,0-0.008-0.001-0.012-0.001c-0.002,0-0.003,0-0.004,0c-0.004,0-0.007-0.001-0.011-0.001c-0.001,0-0.003,0-0.005,0
		c-0.004,0-0.009-0.001-0.013-0.001c-0.002,0-0.003,0-0.005,0c-0.004,0-0.009-0.001-0.013-0.001c-0.001,0-0.002,0-0.004,0
		c-0.004,0-0.008-0.001-0.012-0.001c-0.001,0-0.002,0-0.004,0c-0.004,0-0.009-0.001-0.013-0.001c-0.001,0-0.003,0-0.004,0
		c-0.005,0-0.009-0.001-0.014-0.001c-0.001,0-0.002,0-0.004,0c-0.004,0-0.008,0-0.012-0.001c-0.001,0-0.002,0-0.003,0
		c-0.005,0-0.009,0-0.014-0.001c-0.001,0-0.002,0-0.004,0c-0.005,0-0.01,0-0.014-0.001c-0.001,0-0.002,0-0.003,0
		c-0.005,0-0.009,0-0.014-0.001c-0.001,0-0.001,0-0.002,0c-0.005,0-0.01,0-0.015,0c-0.001,0-0.002,0-0.003,0
		c-0.005,0-0.01,0-0.015,0c-0.001,0-0.001,0-0.002,0c-0.005,0-0.01,0-0.015,0c0,0-0.001,0-0.001,0c-0.005,0-0.01,0-0.015,0
		c-0.001,0-0.002,0-0.003,0c-0.005,0-0.01,0-0.015,0c-0.001,0-0.002,0-0.003,0C174.017,165.108,174.012,165.108,174.007,165.108"/>
	<polyline fill="#89898A" points="178.724,109.048 175.423,109.048 169.268,126.958 172.489,126.958 178.724,109.048 	"/>
	<polyline fill="#89898A" points="166.74,112.134 157.248,116.607 157.248,119.282 166.74,123.755 166.74,120.864 160.47,117.896 
		166.74,115.005 166.74,112.134 	"/>
	<polyline fill="#89898A" points="181.252,112.134 181.252,115.005 187.521,117.896 181.252,120.864 181.252,123.755 
		190.744,119.282 190.744,116.607 181.252,112.134 	"/>
	<polygon fill="#BE93A2" points="71.935,121.555 71.88,121.609 71.991,121.609 	"/>
	<polygon fill="#BE93A2" points="79.502,121.609 71.991,121.609 75.714,125.22 	"/>
	<polygon fill="#B68696" points="79.671,121.609 79.502,121.609 75.714,125.22 79.511,128.904 86.936,128.904 86.946,128.894 	"/>
	<polygon fill="#BE93A2" points="72.353,128.904 72.1,128.665 71.849,128.904 	"/>
	<polygon fill="#BE93A2" points="72.1,128.665 68.359,125.126 64.575,128.904 71.849,128.904 	"/>
	<polygon fill="#BE93A2" points="72.353,128.904 79.511,128.904 75.714,125.22 72.1,128.665 	"/>
	<polygon fill="#BE93A2" points="64.575,128.904 57.064,128.904 64.403,136.001 66.984,133.542 	"/>
	<polygon fill="#BE93A2" points="64.575,128.904 66.984,133.542 71.849,128.904 	"/>
	<polygon fill="#B68696" points="71.849,128.904 66.984,133.542 72.089,143.396 77.162,133.454 72.353,128.904 	"/>
	<polygon fill="#C29BA8" points="72.089,143.396 72.089,143.396 79.803,135.952 77.162,133.454 	"/>
	<path fill="#BE93A2" d="M72.089,143.396L72.089,143.396z"/>
	<polygon fill="#BE93A2" points="66.984,133.542 64.403,136.001 72.089,143.396 	"/>
	<polygon fill="#BE93A2" points="77.162,133.454 79.511,128.904 72.353,128.904 	"/>
	<polygon fill="#C29BA8" points="77.162,133.454 79.803,135.952 86.936,128.904 79.511,128.904 	"/>
	<polygon fill="#BE93A2" points="71.88,121.609 64.641,121.609 68.359,125.126 	"/>
	<polygon fill="#B68696" points="68.359,125.126 64.641,121.609 64.522,121.609 57.054,128.894 57.064,128.904 64.575,128.904 	"/>
	<polygon fill="#C9A5B1" points="72.1,128.665 75.714,125.22 71.991,121.609 71.88,121.609 68.359,125.126 	"/>
	<path fill="#A37687" d="M71.935,121.609v-0.395H71.88c-0.104,0-0.206,0.042-0.28,0.116c-0.074,0.074-0.116,0.175-0.116,0.28
		c0,0.104,0.042,0.206,0.116,0.28c0.074,0.074,0.175,0.116,0.28,0.116h0.11c0.104,0,0.206-0.042,0.28-0.116
		c0.074-0.074,0.116-0.175,0.116-0.28c0-0.104-0.042-0.206-0.116-0.28c-0.074-0.074-0.175-0.116-0.28-0.116h-0.056V121.609v0.395
		h0.056c0.104,0,0.206-0.042,0.28-0.116c0.074-0.074,0.116-0.175,0.116-0.28c0-0.104-0.042-0.206-0.116-0.28
		c-0.074-0.074-0.175-0.116-0.28-0.116h-0.11c-0.104,0-0.206,0.042-0.28,0.116c-0.074,0.074-0.116,0.175-0.116,0.28
		c0,0.104,0.042,0.206,0.116,0.28c0.074,0.074,0.175,0.116,0.28,0.116h0.054V121.609z"/>
	<path fill="#A37687" d="M79.502,121.609v-0.395h-7.511c-0.161,0-0.306,0.098-0.366,0.247c-0.061,0.149-0.025,0.32,0.091,0.432
		l3.723,3.611c0.152,0.148,0.394,0.149,0.548,0.002l3.788-3.611c0.117-0.111,0.154-0.284,0.094-0.433s-0.206-0.248-0.367-0.248
		V121.609l-0.273-0.286l-3.513,3.349l-2.75-2.667l6.536,0V121.609l-0.273-0.286L79.502,121.609z"/>
	<path fill="#A37687" d="M79.671,121.609v-0.395h-0.169c-0.101,0-0.2,0.039-0.273,0.109l-3.788,3.611
		c-0.078,0.074-0.122,0.177-0.123,0.284c0,0.107,0.043,0.211,0.12,0.286l3.798,3.684c0.074,0.071,0.173,0.112,0.275,0.112h7.425
		c0.104,0,0.204-0.041,0.278-0.114l0.01-0.01c0.075-0.074,0.117-0.174,0.117-0.28c0-0.106-0.041-0.206-0.116-0.281l-7.275-7.285
		c-0.075-0.075-0.174-0.116-0.28-0.116V121.609l-0.28,0.279l7.275,7.285l0.28-0.279l-0.278-0.281l-0.01,0.01l0.278,0.281v-0.395
		h-7.264l-3.388-3.286l3.376-3.218h0.011V121.609l-0.28,0.279L79.671,121.609z"/>
	<path fill="#A37687" d="M72.353,128.904l0.272-0.287l-0.253-0.239c-0.153-0.144-0.393-0.144-0.545,0.001l-0.251,0.239
		c-0.117,0.111-0.154,0.284-0.094,0.433s0.206,0.248,0.367,0.248h0.504c0.162,0,0.307-0.098,0.367-0.249
		c0.06-0.151,0.022-0.322-0.096-0.434L72.353,128.904v-0.395h-0.504v0.395l0.273,0.286l0.251-0.239l-0.273-0.286l-0.272,0.287
		l0.253,0.239L72.353,128.904v-0.395V128.904z"/>
	<path fill="#A37687" d="M72.1,128.665l0.272-0.287l-3.741-3.539c-0.155-0.147-0.4-0.143-0.551,0.007l-3.783,3.778
		c-0.113,0.113-0.147,0.283-0.086,0.431s0.205,0.244,0.365,0.244h7.274c0.101,0,0.2-0.039,0.273-0.109l0.251-0.239
		c0.079-0.075,0.123-0.178,0.123-0.287c0-0.109-0.045-0.212-0.124-0.286L72.1,128.665l-0.273-0.286l-0.136,0.13h-6.16l2.835-2.831
		l3.462,3.275L72.1,128.665l-0.273-0.286L72.1,128.665z"/>
	<path fill="#A37687" d="M72.353,128.904v0.395h7.159c0.161,0,0.306-0.098,0.366-0.247c0.061-0.149,0.025-0.32-0.091-0.432
		l-3.798-3.684c-0.152-0.148-0.394-0.149-0.548-0.002l-3.614,3.445c-0.079,0.075-0.123,0.178-0.123,0.287
		c0,0.109,0.045,0.212,0.124,0.287l0.253,0.239c0.073,0.069,0.171,0.108,0.272,0.108V128.904l0.272-0.287l-0.253-0.239l-0.272,0.287
		l0.273,0.286l3.339-3.182l2.825,2.74h-6.183V128.904l0.272-0.287L72.353,128.904z"/>
	<path fill="#A37687" d="M64.575,128.904v-0.395h-7.511c-0.161,0-0.306,0.098-0.367,0.247c-0.06,0.149-0.024,0.32,0.092,0.432
		l7.339,7.097c0.153,0.148,0.394,0.148,0.548,0.002l2.581-2.46c0.127-0.121,0.159-0.313,0.078-0.468l-2.409-4.638
		c-0.068-0.131-0.203-0.213-0.351-0.213V128.904l-0.351,0.182l2.272,4.374l-2.091,1.993l-6.363-6.154h6.533V128.904l-0.351,0.182
		L64.575,128.904z"/>
	<path fill="#A37687" d="M64.575,128.904l-0.351,0.182l2.409,4.638c0.057,0.11,0.163,0.187,0.286,0.208s0.248-0.018,0.338-0.104
		l4.865-4.638c0.117-0.111,0.154-0.284,0.094-0.433s-0.206-0.248-0.367-0.248h-7.274c-0.139,0-0.266,0.072-0.338,0.19
		c-0.072,0.119-0.077,0.264-0.013,0.388L64.575,128.904v0.395h6.286l-3.769,3.593l-2.166-4.17L64.575,128.904v0.395V128.904z"/>
	<path fill="#A37687" d="M71.849,128.904l-0.273-0.286l-4.865,4.638c-0.127,0.121-0.159,0.312-0.078,0.468l5.105,9.854
		c0.068,0.131,0.205,0.214,0.352,0.214c0.148,0,0.284-0.084,0.351-0.216l5.074-9.942c0.08-0.156,0.047-0.346-0.08-0.467l-4.81-4.55
		c-0.073-0.069-0.171-0.108-0.272-0.108h-0.504c-0.101,0-0.2,0.039-0.273,0.109L71.849,128.904v0.395h0.346l4.48,4.238l-4.59,8.994
		l-4.615-8.908l4.651-4.433L71.849,128.904v0.395V128.904z"/>
	<path fill="#A37687" d="M72.089,143.396l0.275,0.285l7.714-7.444c0.078-0.075,0.121-0.178,0.121-0.286
		c-0.001-0.109-0.045-0.211-0.124-0.285l-2.641-2.498c-0.09-0.085-0.216-0.124-0.339-0.102s-0.229,0.099-0.285,0.21l-5.074,9.942
		c-0.088,0.172-0.039,0.382,0.117,0.497s0.371,0.101,0.51-0.033L72.089,143.396l0.352,0.18l4.833-9.472l1.956,1.851l-7.417,7.157
		L72.089,143.396l0.352,0.18L72.089,143.396z"/>
	<path fill="#A37687" d="M72.089,143.791c0.104,0,0.206-0.042,0.28-0.116c0.074-0.074,0.116-0.175,0.116-0.28
		c0-0.104-0.042-0.206-0.116-0.28c-0.074-0.074-0.175-0.116-0.28-0.116c-0.104,0-0.206,0.042-0.28,0.116
		c-0.074,0.074-0.116,0.175-0.116,0.28c0,0.104,0.042,0.206,0.116,0.28C71.883,143.749,71.984,143.791,72.089,143.791z"/>
	<path fill="#A37687" d="M66.984,133.542l-0.273-0.286l-2.581,2.46c-0.078,0.074-0.122,0.178-0.123,0.285
		c0,0.107,0.044,0.212,0.121,0.286l7.685,7.394c0.139,0.134,0.356,0.148,0.511,0.032c0.155-0.116,0.203-0.327,0.115-0.499
		l-5.105-9.854c-0.057-0.11-0.163-0.188-0.286-0.208s-0.248,0.018-0.338,0.104L66.984,133.542l-0.351,0.182l4.001,7.724
		l-5.659-5.445l2.282-2.175L66.984,133.542l-0.351,0.182L66.984,133.542z"/>
	<path fill="#A37687" d="M77.162,133.454l0.351,0.181l2.349-4.55c0.063-0.122,0.058-0.27-0.014-0.387
		c-0.071-0.117-0.2-0.19-0.338-0.19h-7.159c-0.162,0-0.307,0.098-0.367,0.249c-0.06,0.151-0.022,0.322,0.096,0.433l4.81,4.55
		c0.09,0.085,0.215,0.123,0.338,0.103c0.122-0.021,0.228-0.098,0.285-0.208L77.162,133.454l0.272-0.287l-4.088-3.867h5.516
		l-2.051,3.973L77.162,133.454l0.272-0.287L77.162,133.454z"/>
	<path fill="#A37687" d="M77.162,133.454l-0.272,0.287l2.641,2.498c0.155,0.147,0.398,0.144,0.55-0.006l7.133-7.048
		c0.114-0.112,0.149-0.284,0.088-0.432c-0.061-0.148-0.206-0.245-0.366-0.245h-7.425c-0.148,0-0.284,0.083-0.351,0.214l-2.349,4.55
		c-0.081,0.157-0.049,0.347,0.08,0.469L77.162,133.454l0.351,0.181l2.239-4.336h6.221l-6.176,6.102l-2.363-2.235L77.162,133.454
		l0.351,0.181L77.162,133.454z"/>
	<path fill="#A37687" d="M71.88,121.609v-0.395h-7.24c-0.162,0-0.307,0.098-0.367,0.249c-0.06,0.151-0.022,0.322,0.096,0.433
		l3.718,3.517c0.155,0.147,0.4,0.143,0.551-0.007l3.522-3.517c0.113-0.113,0.147-0.283,0.086-0.431s-0.205-0.244-0.365-0.244
		V121.609l-0.279-0.28l-3.25,3.245l-2.717-2.57h6.246V121.609l-0.279-0.28L71.88,121.609z"/>
	<path fill="#A37687" d="M68.359,125.126l0.272-0.287l-3.718-3.517c-0.073-0.069-0.171-0.108-0.272-0.108h-0.119
		c-0.103,0-0.203,0.041-0.276,0.112l-7.468,7.285c-0.077,0.075-0.12,0.177-0.119,0.284c0,0.107,0.044,0.209,0.121,0.283l0.01,0.01
		c0.074,0.071,0.172,0.111,0.275,0.111h7.511c0.104,0,0.206-0.042,0.279-0.116l3.783-3.778c0.076-0.076,0.117-0.178,0.116-0.285
		c-0.001-0.107-0.046-0.208-0.124-0.282L68.359,125.126l-0.279-0.28l-3.668,3.662l-7.347,0v0.395l0.275-0.285l-0.01-0.01
		l-0.275,0.285l0.276,0.283l7.468-7.285l-0.276-0.283v0.395h0.119v-0.395l-0.272,0.287l3.718,3.517L68.359,125.126l-0.279-0.28
		L68.359,125.126z"/>
	<path fill="#A37687" d="M72.1,128.665l0.273,0.286l3.614-3.445c0.078-0.074,0.122-0.177,0.123-0.284
		c0-0.107-0.043-0.211-0.12-0.286l-3.723-3.611c-0.074-0.071-0.173-0.112-0.275-0.112h-0.11c-0.104,0-0.206,0.042-0.279,0.116
		l-3.522,3.517c-0.076,0.076-0.117,0.178-0.116,0.285c0.001,0.107,0.046,0.208,0.124,0.282l3.741,3.539
		c0.153,0.144,0.393,0.144,0.545-0.001L72.1,128.665l0.272-0.287l-3.446-3.259l3.234-3.229l-0.279-0.28v0.395h0.11v-0.395
		l-0.275,0.284l3.428,3.325l-3.316,3.161L72.1,128.665l0.272-0.287L72.1,128.665z"/>
	<path fill="#EEE3E7" d="M82.322,128.904c-1.795,0.085-2.735,1.024-2.819,2.819c-0.085-1.795-1.024-2.735-2.819-2.819
		c1.795-0.085,2.735-1.024,2.819-2.819C79.587,127.88,80.526,128.819,82.322,128.904z"/>
	<path fill="#E6E7E8" d="M124.639,164.334c-0.617-0.681-0.639-1.509-1.639-1.837v-36.823c1-0.274,1.462-0.711,2.156-1.35
		c1.162-0.907,2.016-2.279,1.944-4.237c-0.148-4.038-2.709-5.343-3.062-5.437c-0.12-0.065-0.215-0.097-0.239-0.098
		c-0.157-0.001-0.12,4.794-0.107,5.974c-1.052,0.029-4.807,0.125-5.064,0.02c-0.299-0.122,0.077-6.517-0.024-6.234
		c-0.025,0.069-0.207,0.166-0.474,0.331c-0.713,0.29-2.777,1.681-2.958,5.851c-0.144,3.301,1.829,4.634,3.829,5.18v36.823
		c-2,0.426-4.482,1.685-4.366,5.286c0.111,3.462,1.541,5.025,2.458,5.627c0.519,0.415,0.863,0.572,0.865,0.593
		c0,0-0.237-6.115,0.056-6.234c0.251-0.102,3.88,0.031,4.902,0.071c-0.025,1.179-0.122,5.974,0.031,5.975
		c0.024,0,0.099-0.031,0.215-0.094c0.366-0.089,3.41-1.447,3.146-5.557C126.197,166.457,125.545,165.211,124.639,164.334z"/>
	<path fill="#FFFFFF" d="M266,169.8c0,2.32-1.88,4.2-4.2,4.2h-33.6c-2.32,0-4.2-1.88-4.2-4.2v-65.6c0-2.32,1.88-4.2,4.2-4.2h33.6
		c2.32,0,4.2,1.88,4.2,4.2V169.8z"/>
	<rect x="226" y="107" fill="#141414" width="38" height="63"/>
	<path fill="#141414" d="M249,105h-8c-0.553,0-1-0.448-1-1s0.447-1,1-1h8c0.553,0,1,0.448,1,1S249.553,105,249,105z"/>
	<circle fill="#141414" cx="258.243" cy="104.467" r="0.581"/>
	<circle fill="#141414" cx="260.159" cy="104.467" r="0.581"/>
	<circle fill="#141414" cx="262.888" cy="104.23" r="1.185"/>
	<path fill="#333132" d="M49.393,161.881v-5.006l34.312,3.038c3.6,0.619,4.613,1.969,4.613,1.969
		c1.577,1.484,3.116,3.027,4.559,4.641c0.436,0.487,2.641,2.897,1.998,3.371c-0.526,0.388-2.836-2.186-3.385-2.763
		c-1.034-1.087-2.03-2.214-3.043-3.32c-0.211-0.23-0.416-0.471-0.636-0.691c-1.744-1.744-5.119-2.025-5.119-2.025L49.393,161.881z"
		/>
	<path fill="#333132" d="M98.535,161.881v-5.006l-34.312,3.038c-3.6,0.619-4.613,1.969-4.613,1.969
		c-1.577,1.484-3.116,3.027-4.559,4.641c-0.436,0.487-2.641,2.897-1.998,3.371c0.526,0.388,2.836-2.186,3.385-2.763
		c1.034-1.087,2.03-2.214,3.043-3.32c0.211-0.23,0.416-0.471,0.636-0.691c1.744-1.744,5.119-2.025,5.119-2.025L98.535,161.881z"/>
	<path d="M69.783,161.515c0-3.656-5.737-5.062-10.237-5.062c-6.694,0-9.619,0.675-9.619,7.481c0,3.825,1.294,9.169,8.213,9.169
		c3.094,0,6.75-0.45,9.562-4.613C68.771,166.747,69.783,163.822,69.783,161.515z M87.558,156.565c-5.569,0-10.069,1.294-10.069,4.95
		c0,1.35,0.506,4.163,1.575,6.3c1.969,3.712,5.062,5.288,9.619,5.288c7.031,0,8.438-3.6,8.438-10.688
		C97.121,157.972,94.702,156.565,87.558,156.565z M59.546,155.44c5.85,0,10.688,2.081,14.006,2.081
		c3.656,0,7.706-2.025,15.075-2.025c2.756,0,8.888,0.9,11.588,1.237c0.394,0.056,0.506,0.113,0.506,0.562
		c0.056,0.9,0.056,1.8,0.056,2.756c0,0.337-0.169,0.45-0.338,0.45c-0.844,0-1.294,0.956-1.462,1.856
		c-0.281,1.688-0.619,3.375-1.012,5.006c-1.238,4.95-4.219,6.638-9.506,6.638c-6.919,0-9.562-2.812-11.981-9.281
		c-0.675-1.688-0.731-3.488-2.925-3.488c-1.631,0-2.306,1.688-2.925,3.488c-1.856,4.781-4.219,9.225-12.206,9.225
		c-2.925,0-7.144-1.181-8.606-4.669c-0.675-1.744-1.519-6.019-1.688-7.312c-0.169-0.844-0.562-1.35-1.35-1.631
		c-0.338-0.056-0.394-0.337-0.394-0.619c0-0.788,0-2.025,0.056-2.531c0.056-0.562,0.169-0.731,0.788-0.788
		C48.352,156.397,55.214,155.44,59.546,155.44z"/>
</g>
</svg>
