<?xml version="1.0" encoding="utf-8"?>
<!-- Generator: Adobe Illustrator 17.0.0, SVG Export Plug-In . SVG Version: 6.00 Build 0)  -->
<!DOCTYPE svg PUBLIC "-//W3C//DTD SVG 1.1//EN" "http://www.w3.org/Graphics/SVG/1.1/DTD/svg11.dtd">
<svg version="1.1" id="Layer_1" xmlns="http://www.w3.org/2000/svg" xmlns:xlink="http://www.w3.org/1999/xlink" x="0px" y="0px"
	 width="140px" height="97px" viewBox="0 0 140 97" enable-background="new 0 0 140 97" xml:space="preserve">
<g>
	<g>
		<path fill="#191919" d="M139,93.986c0,1.112-0.902,2.014-2.014,2.014H2.014C0.902,96,0,95.098,0,93.986V4.014
			C0,2.902,0.902,2,2.014,2h134.972C138.098,2,139,2.902,139,4.014V93.986z"/>
	</g>
	<path fill="#D1D3D4" d="M1,7c0,0,0-1.19,0-2.785S1.606,1,3.265,1h133.47C138.394,1,139,2.62,139,4.215S139,7,139,7H1z"/>
	<g>
		<rect x="44" y="17" fill="#BAC368" width="6" height="11"/>
		<g>
			<path fill="#61C2AC" d="M29.993,23.631c-0.037-0.022-0.147-0.088-0.33-0.198c-0.396-0.243-0.682-0.364-0.858-0.364
				c-0.176,0-0.31,0.057-0.401,0.171c-0.092,0.114-0.159,0.307-0.204,0.579l-1.034-0.375c0.073-0.515,0.249-0.912,0.528-1.192
				c0.279-0.279,0.608-0.419,0.99-0.419c0.381,0,0.817,0.136,1.309,0.408c0.037,0.022,0.147,0.088,0.33,0.199
				c0.396,0.243,0.682,0.364,0.858,0.364c0.176,0,0.31-0.057,0.401-0.171c0.092-0.114,0.159-0.307,0.203-0.579l1.034,0.375
				c-0.073,0.515-0.249,0.912-0.528,1.191c-0.279,0.28-0.609,0.419-0.99,0.419C30.92,24.039,30.484,23.903,29.993,23.631z"/>
		</g>
		<path fill="#BAC368" d="M19.01,21.778l-3.18-2.46c-0.344-0.265-0.83-0.24-1.144,0.06c-0.314,0.3-0.571,0.786-0.323,1.143
			l0.28,0.652h-2.958c0,0-1.034,0.07-1.034,1.371c0,1.63,1.034,1.655,1.034,1.655h2.838l-0.161,0.373
			c-0.248,0.357-0.095,0.843,0.219,1.143c0.169,0.162,0.439,0.244,0.659,0.244c0.189,0,0.404-0.061,0.563-0.184l3.282-2.529
			c0.008-0.007,0.02-0.016,0.028-0.023c0.057-0.046,0.11-0.098,0.154-0.157c0.012-0.016,0.023-0.033,0.033-0.05
			c0.089-0.138,0.154-0.293,0.154-0.469C19.455,22.217,19.276,21.929,19.01,21.778z"/>
	</g>
</g>
</svg>
