<?xml version="1.0" encoding="utf-8"?>
<!-- Generator: Adobe Illustrator 17.0.0, SVG Export Plug-In . SVG Version: 6.00 Build 0)  -->
<!DOCTYPE svg PUBLIC "-//W3C//DTD SVG 1.1//EN" "http://www.w3.org/Graphics/SVG/1.1/DTD/svg11.dtd">
<svg version="1.1" id="Layer_1" xmlns="http://www.w3.org/2000/svg" xmlns:xlink="http://www.w3.org/1999/xlink" x="0px" y="0px"
	 width="71px" height="48px" viewBox="0 0 71 48" enable-background="new 0 0 71 48" xml:space="preserve">
<g>
	<g>
		<path fill="#191919" d="M71,46c0,1.105-0.895,2-2,2H2c-1.105,0-2-0.895-2-2V2c0-1.105,0.895-2,2-2h67c1.105,0,2,0.895,2,2V46z"/>
	</g>
	<path fill="#D1D3D4" d="M0,3V0.781C0,0.231,0.262,0,0.812,0h69.375C70.738,0,71,0.231,71,0.781V3"/>
	<path opacity="0.3" fill-rule="evenodd" clip-rule="evenodd" fill="#D1D3D4" d="M35.999,11.843
		c-6.777,0-12.272,5.495-12.272,12.273c0,5.422,3.516,10.022,8.393,11.645c0.614,0.113,0.838-0.266,0.838-0.592
		c0-0.291-0.011-1.063-0.017-2.087c-3.414,0.742-4.134-1.645-4.134-1.645c-0.558-1.418-1.363-1.795-1.363-1.795
		c-1.114-0.761,0.084-0.746,0.084-0.746c1.232,0.087,1.88,1.265,1.88,1.265c1.095,1.875,2.872,1.334,3.572,1.02
		c0.112-0.793,0.429-1.334,0.779-1.641c-2.725-0.31-5.59-1.363-5.59-6.066c0-1.34,0.478-2.435,1.263-3.293
		c-0.126-0.31-0.547-1.558,0.12-3.248c0,0,1.03-0.33,3.375,1.258c0.979-0.272,2.029-0.408,3.072-0.413
		c1.042,0.005,2.092,0.141,3.072,0.413c2.343-1.588,3.372-1.258,3.372-1.258c0.67,1.69,0.248,2.937,0.122,3.248
		c0.787,0.858,1.262,1.953,1.262,3.293c0,4.715-2.869,5.752-5.603,6.056c0.441,0.379,0.833,1.128,0.833,2.273
		c0,1.641-0.015,2.964-0.015,3.367c0,0.328,0.221,0.71,0.844,0.59c4.873-1.626,8.386-6.223,8.386-11.643
		C48.273,17.337,42.777,11.843,35.999,11.843z"/>
</g>
</svg>
