<?xml version="1.0" encoding="utf-8"?>
<!-- Generator: Adobe Illustrator 17.0.0, SVG Export Plug-In . SVG Version: 6.00 Build 0)  -->
<!DOCTYPE svg PUBLIC "-//W3C//DTD SVG 1.1//EN" "http://www.w3.org/Graphics/SVG/1.1/DTD/svg11.dtd">
<svg version="1.1" id="Layer_1" xmlns="http://www.w3.org/2000/svg" xmlns:xlink="http://www.w3.org/1999/xlink" x="0px" y="0px"
	 width="89px" height="60px" viewBox="0 0 89 60" enable-background="new 0 0 89 60" xml:space="preserve">
<g>
	<g>
		<path fill="#191919" d="M89,58c0,1.105-0.895,2-2,2H2c-1.105,0-2-0.895-2-2V2c0-1.105,0.895-2,2-2h85c1.105,0,2,0.895,2,2V58z"/>
	</g>
	<g>
		<path fill="#61C2AC" d="M37.614,18.277c-1.323,0-1.984,0.608-1.984,1.823v7.041c0,1.493-0.704,2.368-2.112,2.623
			c1.409,0.235,2.112,1.099,2.112,2.592v7.52c0,0.554,0.155,0.938,0.464,1.152c0.309,0.213,0.901,0.32,1.776,0.32v2.976h-1.088
			c-2.902,0-4.352-1.408-4.352-4.224v-6.912c0-0.704-0.128-1.2-0.384-1.488c-0.255-0.288-0.661-0.432-1.216-0.432h-0.768v-2.976
			h0.768c0.555,0,0.96-0.149,1.216-0.448c0.256-0.298,0.384-0.811,0.384-1.536v-6.752c0-2.816,1.45-4.224,4.352-4.224h1.088v2.977
			C37.807,18.288,37.721,18.277,37.614,18.277z"/>
		<path fill="#61C2AC" d="M51.374,44.324h-1.088v-2.976c0.874,0,1.466-0.107,1.776-0.32c0.309-0.213,0.464-0.598,0.464-1.152v-7.52
			c0-1.493,0.704-2.357,2.112-2.592c-1.409-0.255-2.112-1.13-2.112-2.623V20.1c0-0.661-0.176-1.136-0.528-1.423
			c-0.352-0.288-0.698-0.432-1.04-0.432l-0.096,0.032l-0.576,0.032v-2.977h1.088c2.901,0,4.352,1.409,4.352,4.224v6.752
			c0,0.725,0.128,1.237,0.384,1.536c0.256,0.298,0.661,0.448,1.216,0.448h0.768v2.976h-0.768c-0.555,0-0.959,0.145-1.216,0.432
			c-0.256,0.288-0.384,0.784-0.384,1.488V40.1C55.725,42.916,54.275,44.324,51.374,44.324z"/>
	</g>
	<path fill="#D1D3D4" d="M0,3V0.789C0,0.239,0.294,0,0.844,0h87.219C88.613,0,89,0.239,89,0.789V3H0z"/>
</g>
</svg>
