<svg xmlns="http://www.w3.org/2000/svg" xmlns:xlink="http://www.w3.org/1999/xlink" version="1.1" height="35.28499984741211" width="224" viewBox="0 0 224 35.28499984741211">
<defs id="SvgjsDefs1572">
</defs>
    <g id="SvgjsG1573" rel="mainfill" name="main_text" xmlns:name="mainText_mainfill" fill="#ffffff" transform="translate(-2.4499998092651367,-8.415000915527344)">
        <path d="M18.48 30.1 l2.1 3.01 c-1.995 1.715 -4.69 2.59 -7.455 2.59 c-5.495 0 -10.675 -3.57 -10.675 -9.695 c0 -6.16 5.285 -9.59 10.71 -9.59 c2.66 0 5.285 0.77 7.28 2.275 l-2.415 2.8 c-1.365 -0.945 -3.15 -1.435 -4.865 -1.435 c-3.5 0 -6.895 1.925 -6.895 6.02 s3.465 5.985 6.93 5.985 c1.89 0 3.885 -0.7 5.285 -1.96 z M42.77 25.935000000000002 c0 -4.06 -3.5 -5.81 -6.93 -5.81 c-3.5 0 -6.93 1.855 -6.93 5.95 s3.5 5.95 6.965 5.95 c3.43 0 6.895 -2.17 6.895 -6.09 z M46.550000000000004 25.9 c0 6.16 -5.25 9.8 -10.745 9.8 s-10.675 -3.57 -10.675 -9.695 c0 -6.16 5.285 -9.59 10.71 -9.59 c5.46 0 10.71 3.185 10.71 9.485 z M62.16000000000001 20.615000000000002 l-3.605 0 l0 10.885 l3.605 0 c3.5 0 5.495 -1.995 5.495 -5.495 c0 -3.535 -1.995 -5.39 -5.495 -5.39 z M52.53500000000001 20.615000000000002 l-1.61 -3.605 l11.235 0 c5.46 0 9.17 3.15 9.17 8.925 c0 5.635 -3.64 9.205 -9.17 9.205 l-7.385 0 l0 -14.525 l-2.24 0 z M81.55 28.630000000000003 l0 2.87 l11.375 0 l0 3.64 l-14.945 0 l0 -18.13 l14.28 0 l0 3.605 l-10.71 0 l0 4.41 c1.575 -0.91 3.57 -1.05 5.67 -1.05 l2.66 0 l0 3.605 l-2.66 0 c-3.325 0 -4.095 0.21 -5.67 1.05 z M113.96000000000001 20.615000000000002 l-6.825 0 l0 14.525 l-3.605 0 l0 -14.525 l-6.58 0 l0 -3.605 l17.01 0 l0 3.605 z M123.13000000000001 35.14 l-3.57 0 l0 -18.13 l3.57 0 l0 18.13 z M153.54500000000002 17.01 l-1.785 2.905 l0 15.225 l-3.955 0 l0 -10.605 l-6.405 8.54 l-6.405 -8.54 l0 10.605 l-3.955 0 l0 -15.225 l-1.785 -2.905 l4.41 0 l7.735 10.255 l7.735 -10.255 l4.41 0 z M163.24000000000004 28.630000000000003 l0 2.87 l11.375 0 l0 3.64 l-14.945 0 l0 -18.13 l14.28 0 l0 3.605 l-10.71 0 l0 4.41 c1.575 -0.91 3.57 -1.05 5.67 -1.05 l2.66 0 l0 3.605 l-2.66 0 c-3.325 0 -4.095 0.21 -5.67 1.05 z M178.99000000000004 32.97 c0 -1.155 0.91 -2.1 2.065 -2.1 s2.1 0.945 2.1 2.1 s-0.945 2.065 -2.1 2.065 s-2.065 -0.91 -2.065 -2.065 z M197.50500000000002 28.14 l-4.585 7 l-3.815 0 l0 -18.13 l3.815 0 l0 11.62 l8.365 -11.62 l4.62 0 l-5.985 8.155 l2.66 4.48 c1.085 1.505 2.135 1.61 3.045 1.61 l1.26 0 l0 3.885 l-1.575 0 c-1.89 0 -3.15 -0.245 -5.285 -2.87 z M226.45000000000005 35.14 l-15.015 0 l0 -3.64 l9.555 -10.885 l-9.205 0 l0 -3.605 l13.965 0 l0 3.605 l-9.555 10.885 l10.255 0 l0 3.64 z">
        </path>
    </g>
</svg>
