<?xml version="1.0" encoding="utf-8"?>
<!-- Generator: Adobe Illustrator 17.0.0, SVG Export Plug-In . SVG Version: 6.00 Build 0)  -->
<!DOCTYPE svg PUBLIC "-//W3C//DTD SVG 1.1//EN" "http://www.w3.org/Graphics/SVG/1.1/DTD/svg11.dtd">
<svg version="1.1" id="Layer_1" xmlns="http://www.w3.org/2000/svg" xmlns:xlink="http://www.w3.org/1999/xlink" x="0px" y="0px"
	 width="512px" height="781.25px" viewBox="0 0 512 781.25" enable-background="new 0 0 512 781.25" xml:space="preserve">
<g>
	<g>
		<path fill="#FFFFFF" d="M237.828,32.87V17.202c-0.07-2.252,0.255-4.367,0.973-6.35c0.717-1.977,1.723-3.72,3.02-5.222
			c1.298-1.5,2.85-2.748,4.66-3.738c1.808-0.988,3.77-1.62,5.888-1.893v6.758c-2.595,0.887-4.37,2.202-5.325,3.942
			s-1.432,3.875-1.432,6.4h6.758v15.77L237.828,32.87L237.828,32.87z M259.638,32.87V17.202c-0.068-2.252,0.258-4.367,0.973-6.35
			c0.717-1.977,1.725-3.72,3.022-5.222c1.295-1.5,2.85-2.748,4.658-3.738c1.81-0.988,3.773-1.62,5.89-1.893v6.758
			c-2.595,0.887-4.37,2.202-5.325,3.942c-0.957,1.74-1.435,3.875-1.435,6.4h6.76v15.77L259.638,32.87L259.638,32.87z"/>
	</g>
</g>
<g>
	<polygon fill="#303030" points="492.664,37.612 490.543,35.491 507.758,18.276 490.543,1.061 492.664,-1.061 512,18.276 	"/>
</g>
<g>
	<polygon fill="#303030" points="19.336,37.612 0,18.276 19.336,-1.061 21.458,1.061 4.242,18.276 21.458,35.491 	"/>
</g>
<g>
	<g>
		<path fill="#262626" d="M192.064,248.579c-3.87,0.108-5.331,2.24-5.331,2.24c-1.075,11.716,1.636,19.337,1.636,19.337
			c1.956,1.639,5.87,0.704,5.87,0.704L192.064,248.579z"/>
		<path fill="#262626" d="M312.674,240.21c3.848-0.429,5.59,1.48,5.59,1.48c2.687,11.454,1.056,19.378,1.056,19.378
			c-1.71,1.894-5.716,1.51-5.716,1.51L312.674,240.21z"/>
	</g>
	<g>
		<g>
			<path id="SVGID_1_" fill="#353535" d="M267.161,292.259l-11.365-0.947l-11.365,0.947c0,0,0.412,3.979-1.354,7.904h25.438
				C266.704,296.237,267.161,292.259,267.161,292.259z"/>
		</g>
		<g>
			<defs>
				<path id="SVGID_2_" d="M267.161,292.259l-11.365-0.947l-11.365,0.947c0,0,0.412,3.979-1.354,7.904h25.438
					C266.704,296.237,267.161,292.259,267.161,292.259z"/>
			</defs>
			<clipPath id="SVGID_3_">
				<use xlink:href="#SVGID_2_"  overflow="visible"/>
			</clipPath>
			
				<line clip-path="url(#SVGID_3_)" fill="none" stroke="#262626" stroke-width="30" stroke-miterlimit="10" stroke-dasharray="2,1" x1="255.774" y1="289.584" x2="255.774" y2="303.251"/>
		</g>
	</g>
	<ellipse opacity="0.3" fill="#FFFFFF" enable-background="new    " cx="256" cy="414.293" rx="97.39" ry="13.772"/>
	<g>
		<path fill="#F4F4F4" d="M201.004,373.515c0,0-15.632,1.705-23.305-8.242c-17.053,15.916-1.137,25.011-1.137,25.011
			c12.505,5.4,15.063-5.684,15.063-5.684c-0.853,8.526,5.684,7.105,5.684,7.105c6.495-1.412,3.791-18.177,3.756-18.392
			C201.046,373.38,201.022,373.448,201.004,373.515z"/>
	</g>
	<path opacity="0.1" fill="#262626" enable-background="new    " d="M181.856,388.637c0,0-13.457-7.707-2.318-21.339
		c-0.649-0.617-1.268-1.285-1.839-2.025c-17.053,15.916-1.137,25.011-1.137,25.011c5.578,2.409,9.173,1.535,11.448-0.169
		C186.289,390.099,184.258,389.674,181.856,388.637z"/>
	<path fill="#262626" d="M299.815,370.131c-13.128-48.852-31.322-69.968-31.322-69.968h-12.697h-12.697
		c0,0-18.238,21.116-31.366,69.968c0,0-8.684,36.648,1,43.965c15.71,3.439,31.42,0,31.42,0s2.582-1.864,2.582-23.901
		c0,0,5.595,0.937,9.039,0.937c3.602,0,9.039-0.937,9.039-0.937c0,21.691,2.582,23.901,2.582,23.901c15.71,3.439,31.42,0,31.42,0
		C308.499,406.779,299.815,370.131,299.815,370.131z"/>
	<polygon fill="#262626" points="252.681,213.632 248.975,213.844 242.022,200.919 246.025,200.69 250.633,209.139 254.141,200.227 
		258.118,200 	"/>
	<g>
		<path fill="#F4F4F4" d="M309.735,222.23c0,0-1.01-3.089-3.912-3.997c0,0-19.753-7.706-55.063-5.689
			c-35.31,2.015-54.058,11.919-54.058,11.919c-2.78,1.232-3.432,4.416-3.432,4.416c-5.451,27.328,3.452,62.111,3.452,62.111
			c0.716,2.763,4.092,3.576,4.092,3.576c12.081,2.885,54.685,0.615,54.685,0.615s42.586-2.593,54.26-6.835
			c0,0,3.262-1.192,3.659-4.019C313.418,284.328,318.261,248.76,309.735,222.23z"/>
		<g>
			<path fill="#FFFFFF" d="M196.918,236.209c0,0,0.007,0.203,0.02,0.583c0.006,0.379,0.05,0.94,0.035,1.644
				c-0.004,0.706-0.008,1.563-0.014,2.546c-0.024,0.987,0.057,2.085,0.044,3.275c0.005,0.594,0.01,1.213,0.016,1.854
				c-0.001,0.639-0.02,1.297,0.014,1.981c0.041,1.364,0.083,2.799,0.085,4.28c0.055,1.482,0.168,3.009,0.18,4.562
				c0.098,1.549,0.198,3.122,0.298,4.695c0.135,1.569,0.205,3.146,0.389,4.686c0.189,1.538,0.268,3.069,0.486,4.531
				c0.179,1.469,0.357,2.888,0.547,4.235c0.204,1.346,0.396,2.619,0.574,3.794c0.198,1.177,0.379,2.256,0.54,3.213
				c0.156,0.963,0.341,1.789,0.477,2.478c0.169,0.676,0.243,1.233,0.335,1.597c0.083,0.368,0.128,0.565,0.128,0.565l-0.183,0.08
				c0,0-0.316-0.742-0.787-2.065c-0.457-1.328-1.069-3.239-1.675-5.569c-0.288-1.168-0.61-2.432-0.887-3.783
				c-0.281-1.35-0.572-2.775-0.801-4.262c-0.272-1.48-0.455-3.024-0.661-4.59c-0.213-1.566-0.312-3.169-0.474-4.765
				c-0.076-1.603-0.152-3.206-0.227-4.783c-0.006-1.579-0.012-3.133-0.018-4.638c0.056-1.503,0.11-2.955,0.162-4.333
				c0.036-1.378,0.2-2.675,0.283-3.875c0.108-1.198,0.166-2.302,0.313-3.267c0.125-0.968,0.234-1.812,0.323-2.507
				c0.179-1.39,0.282-2.185,0.282-2.185L196.918,236.209z"/>
		</g>
		<path opacity="0.08" fill="#262626" enable-background="new    " d="M253.548,295.277c1.247-0.059,1.952-0.096,1.952-0.096
			c35.839-3.318,37.121-2.682,54.26-6.835c0,0,3.262-1.192,3.659-4.019c0,0,4.843-35.568-3.683-62.098c0,0-1.01-3.089-3.912-3.997
			c0,0-16.437-6.406-46.115-6.004c6.576,0.761,37.112,5.726,42.358,11.309c5.126,5.456,5.33,13.96,6.141,21.019
			c1.09,9.49,0.714,25.5-0.836,34.936c-1.432,8.715-22.672,10.123-33.904,12.36C266.865,293.168,260.2,294.246,253.548,295.277z"/>
	</g>
	<g>
		<g>
			<g>
				<circle fill="#D9DADB" cx="223.641" cy="251.921" r="17.386"/>
				<g>
					<path fill="#D9DADB" d="M241.099,250.929c0,0,0.007,0.427,0.019,1.226c0.025,0.399-0.013,0.894-0.071,1.479
						c-0.032,0.291-0.038,0.608-0.08,0.941c-0.055,0.331-0.113,0.683-0.175,1.054c-0.302,1.467-0.713,3.293-1.719,5.185
						c-0.978,1.886-2.404,3.923-4.487,5.62c-2.074,1.691-4.805,2.975-7.848,3.477c-0.776,0.096-1.512,0.171-2.357,0.195
						c-0.758-0.03-1.494-0.014-2.329-0.154c-1.641-0.168-3.192-0.647-4.726-1.265c-1.531-0.63-2.94-1.547-4.286-2.545
						c-1.316-1.049-2.506-2.265-3.554-3.616c-1.025-1.37-1.859-2.89-2.519-4.497c-0.646-1.616-1.032-3.336-1.231-5.087
						c-0.128-1.713-0.07-3.543,0.278-5.282c0.401-1.727,1.008-3.407,1.859-4.957c0.88-1.529,1.958-2.932,3.201-4.147
						c1.27-1.181,2.649-2.234,4.156-3.018c1.503-0.775,3.082-1.382,4.692-1.674c0.794-0.203,1.604-0.251,2.396-0.342
						c0.123-0.009,0.146-0.02,0.35-0.027l0.281,0.002l0.559,0.003c0.379,0.011,0.724-0.015,1.124,0.026
						c3.197,0.224,5.984,1.22,8.255,2.686c2.259,1.469,3.905,3.336,5.088,5.104c1.214,1.768,1.83,3.537,2.295,4.963
						c0.103,0.363,0.201,0.706,0.293,1.029c0.079,0.326,0.12,0.639,0.184,0.924c0.121,0.572,0.214,1.06,0.234,1.463l0.117,1.229
						L241.099,250.929z M240.899,250.934c0-0.001-0.051-0.421-0.146-1.209c-0.029-0.397-0.133-0.876-0.266-1.437
						c-0.099-0.569-0.318-1.194-0.574-1.887c-0.51-1.381-1.356-2.991-2.664-4.546c-1.295-1.56-3.06-3.052-5.218-4.191
						c-2.144-1.114-4.755-1.914-7.42-2.053c-2.847-0.104-5.714,0.436-8.433,1.77c-1.358,0.654-2.611,1.557-3.782,2.578
						c-1.151,1.052-2.137,2.295-3.002,3.635c-0.84,1.359-1.471,2.856-1.923,4.418c-0.439,1.575-0.627,3.17-0.641,4.868
						c0.076,1.651,0.324,3.306,0.838,4.893c0.562,1.564,1.32,3.06,2.306,4.387c1.012,1.301,2.173,2.479,3.494,3.409
						c1.331,0.911,2.758,1.639,4.238,2.111c1.471,0.452,2.995,0.78,4.433,0.805c0.695,0.074,1.485-0.009,2.232-0.031
						c0.654-0.052,1.401-0.155,2.072-0.27c2.74-0.525,5.168-1.64,7.186-3.015c2.008-1.397,3.588-3.084,4.694-4.787
						c1.122-1.697,1.78-3.394,2.126-4.826c0.175-0.719,0.321-1.365,0.352-1.939c0.066-0.57,0.113-1.057,0.096-1.459
						C240.898,251.36,240.899,250.937,240.899,250.934z"/>
				</g>
			</g>
			<g>
				<circle fill="#262626" cx="223.641" cy="251.921" r="14.902"/>
				<g>
					<path fill="#262626" d="M238.619,251.071c0,0,0.008,0.366,0.022,1.051c0.023,0.342-0.007,0.767-0.053,1.27
						c-0.026,0.25-0.03,0.523-0.064,0.809c-0.045,0.285-0.093,0.587-0.144,0.907c-0.244,1.267-0.614,2.827-1.445,4.474
						c-0.818,1.639-2.032,3.411-3.815,4.908c-1.776,1.493-4.13,2.638-6.775,3.138c-0.679,0.107-1.302,0.196-2.067,0.241
						c-0.653-0.002-1.267,0.039-2.025-0.057c-1.473-0.098-2.847-0.46-4.228-0.984c-1.372-0.528-2.658-1.3-3.863-2.192
						c-1.185-0.925-2.248-2.024-3.149-3.254c-0.878-1.25-1.559-2.635-2.066-4.079c-0.461-1.477-0.675-2.961-0.731-4.531
						c0.007-1.429,0.177-3.017,0.579-4.441c0.412-1.436,0.979-2.815,1.72-4.085c0.763-1.257,1.66-2.411,2.676-3.441
						c1.049-0.988,2.157-1.919,3.401-2.617c1.24-0.686,2.545-1.262,3.898-1.569c0.667-0.202,1.351-0.274,2.024-0.379
						c0.756-0.062,1.297-0.072,1.976-0.07c2.74,0.129,5.157,0.963,7.112,2.224c1.946,1.264,3.356,2.882,4.358,4.412
						c1.014,1.539,1.558,3.045,1.947,4.274c0.087,0.311,0.17,0.606,0.248,0.883c0.067,0.28,0.101,0.548,0.157,0.793
						c0.105,0.49,0.185,0.909,0.203,1.255l0.103,1.054L238.619,251.071z M238.419,251.076c0-0.001-0.043-0.36-0.123-1.035
						c-0.024-0.34-0.112-0.751-0.225-1.231c-0.083-0.488-0.275-1.022-0.496-1.615c-0.446-1.177-1.156-2.566-2.303-3.876
						c-1.123-1.323-2.635-2.583-4.476-3.555c-1.829-0.951-4.039-1.656-6.323-1.838c-2.43-0.169-4.953,0.125-7.388,1.223
						c-1.212,0.534-2.359,1.28-3.403,2.18c-1.036,0.913-1.907,2.026-2.641,3.229c-0.708,1.223-1.202,2.568-1.521,3.951
						c-0.273,1.416-0.314,2.765-0.209,4.259c0.18,1.346,0.51,2.755,1.042,4.023c0.54,1.274,1.223,2.474,2.069,3.536
						c0.865,1.043,1.818,1.995,2.892,2.768c1.089,0.744,2.234,1.382,3.442,1.798c1.196,0.393,2.458,0.723,3.623,0.79
						c0.553,0.088,1.248,0.043,1.884,0.049c0.52-0.019,1.168-0.083,1.729-0.157c2.311-0.382,4.379-1.292,6.111-2.427
						c1.724-1.155,3.087-2.575,4.055-4.012c0.993-1.428,1.538-2.888,1.851-4.106c0.153-0.614,0.283-1.166,0.312-1.656
						c0.059-0.487,0.102-0.903,0.089-1.249C238.416,251.44,238.419,251.078,238.419,251.076z"/>
				</g>
			</g>
			<circle fill="#FFFFFF" cx="227.112" cy="246.887" r="2.896"/>
			<circle fill="#FFFFFF" cx="223.097" cy="253.814" r="1.716"/>
			<g opacity="0.5">
				<path fill="#FFFFFF" d="M221.353,241.276c0,0-0.168,0.101-0.466,0.247c-0.149,0.069-0.329,0.16-0.539,0.24
					c-0.217,0.076-0.411,0.224-0.642,0.323c-0.225,0.116-0.46,0.22-0.709,0.375c-0.244,0.153-0.518,0.257-0.767,0.435
					c-0.249,0.175-0.529,0.302-0.776,0.498c-0.253,0.184-0.523,0.346-0.762,0.556c-1.011,0.758-1.925,1.682-2.654,2.43
					c-0.747,0.794-1.245,1.323-1.245,1.323s-0.114-0.799,0.249-1.896c0.315-1.105,1.159-2.483,2.43-3.441
					c0.306-0.249,0.648-0.451,0.99-0.636c0.329-0.206,0.704-0.315,1.045-0.449c0.339-0.141,0.703-0.177,1.027-0.248
					c0.32-0.074,0.657-0.067,0.951-0.071c0.292-0.001,0.567-0.011,0.784,0.042c0.221,0.035,0.417,0.087,0.577,0.124
					C221.167,241.211,221.353,241.276,221.353,241.276z"/>
			</g>
			<g opacity="0.5">
				<path d="M235.43,242.811c0.604,1.483,0.991,3.081,1.087,4.769c0.469,8.217-5.812,15.258-14.028,15.727
					c-5.095,0.291-9.734-2.016-12.638-5.768c2.337,5.736,8.111,9.632,14.64,9.259c8.217-0.469,14.498-7.511,14.028-15.727
					C238.341,247.949,237.21,245.11,235.43,242.811z"/>
				<g>
					<path d="M235.524,242.777c0.183,0.409,0.386,0.805,0.552,1.223c0.141,0.429,0.322,0.858,0.432,1.299
						c0.238,0.882,0.44,1.77,0.492,2.71c0.015,0.451,0.076,0.878,0.052,1.348c-0.023,0.467-0.034,0.943-0.073,1.411l-0.203,1.382
						l-0.335,1.361c-0.288,0.89-0.627,1.769-1.066,2.603c-0.432,0.835-0.937,1.64-1.532,2.375c-0.277,0.386-0.596,0.734-0.925,1.077
						l-0.487,0.52l-0.533,0.473c-0.356,0.315-0.717,0.625-1.116,0.887c-0.39,0.273-0.769,0.564-1.192,0.785
						c-0.815,0.495-1.684,0.898-2.578,1.234c-0.456,0.141-0.908,0.298-1.369,0.422l-1.402,0.294
						c-0.472,0.065-0.948,0.106-1.421,0.158l-0.178,0.016l-0.089,0.008h-0.15l-0.334-0.008l-0.668-0.015
						c-0.851,0.031-1.894-0.183-2.842-0.316c-0.914-0.264-1.848-0.46-2.708-0.869c-0.896-0.32-1.698-0.833-2.523-1.29
						c-0.753-0.571-1.541-1.094-2.192-1.779c-0.711-0.618-1.273-1.378-1.865-2.098l1.26-0.726c0.36,0.939,0.766,1.874,1.315,2.733
						c0.539,0.862,1.162,1.684,1.888,2.411c0.709,0.744,1.509,1.409,2.386,1.957c0.858,0.583,1.818,0.996,2.786,1.361
						c0.979,0.344,2.002,0.551,3.03,0.668c1.029,0.072,2.078,0.096,3.085-0.085c0.526-0.079,1.055-0.158,1.528-0.309l0.727-0.194
						c0.24-0.078,0.478-0.178,0.717-0.265l0.711-0.272l0.682-0.337c0.463-0.204,0.887-0.483,1.314-0.75
						c0.849-0.541,1.621-1.186,2.358-1.856c0.358-0.347,0.683-0.727,1.039-1.075c0.305-0.394,0.633-0.77,0.922-1.175
						c0.565-0.818,1.098-1.665,1.493-2.582c0.197-0.458,0.405-0.913,0.539-1.395l0.238-0.711c0.066-0.241,0.112-0.487,0.17-0.731
						c0.053-0.245,0.117-0.488,0.162-0.735l0.091-0.747c0.079-0.498,0.098-1.001,0.11-1.506l0.014-0.379
						c0.004-0.04,0.001-0.178,0.011-0.138l-0.019-0.198l-0.074-0.791c-0.071-0.516-0.05-1.082-0.175-1.559
						c-0.237-0.963-0.416-1.964-0.843-2.918c-0.307-1.004-0.915-1.855-1.385-2.812L235.524,242.777z M235.509,242.75
						c0.655,0.834,1.407,1.642,1.873,2.626c0.242,0.486,0.581,0.928,0.747,1.461l0.553,1.584c0.188,0.535,0.227,1.045,0.335,1.571
						l0.138,0.783l0.034,0.196l0.016,0.259l0.019,0.415c0.028,0.554,0.063,1.111,0,1.665l-0.059,0.834
						c-0.035,0.276-0.09,0.55-0.135,0.825c-0.05,0.275-0.089,0.552-0.148,0.825l-0.222,0.809c-0.133,0.546-0.354,1.061-0.563,1.581
						c-0.425,1.037-0.982,2.017-1.621,2.94c-0.33,0.453-0.702,0.875-1.054,1.312c-0.396,0.397-0.782,0.806-1.208,1.169
						c-0.855,0.724-1.776,1.37-2.775,1.865c-0.498,0.249-0.99,0.505-1.518,0.682l-0.776,0.293c-0.263,0.083-0.533,0.147-0.799,0.22
						c-0.267,0.069-0.529,0.147-0.8,0.206l-0.827,0.135c-0.556,0.11-1.082,0.134-1.61,0.16c-1.097,0.078-2.179,0.014-3.253-0.125
						c-1.076-0.134-2.125-0.407-3.153-0.738c-1.015-0.365-2.017-0.787-2.948-1.344c-0.935-0.546-1.837-1.163-2.651-1.891
						c-0.835-0.707-1.561-1.536-2.232-2.407c-0.676-0.873-1.215-1.844-1.705-2.843c-0.176-0.358-0.028-0.791,0.33-0.966
						c0.286-0.14,0.62-0.074,0.832,0.141l0.097,0.099c0.596,0.606,1.125,1.268,1.803,1.779c0.614,0.58,1.354,0.996,2.044,1.466
						c0.749,0.375,1.467,0.809,2.268,1.059c0.766,0.339,1.596,0.471,2.398,0.682c0.819,0.066,1.532,0.245,2.47,0.186l0.668-0.008
						l0.334-0.004h0.042h0.021h0.01c0.063-0.002-0.074,0.002-0.056,0.001l0.077-0.01l0.154-0.02l1.233-0.141l1.213-0.26
						c0.398-0.11,0.788-0.25,1.182-0.371c0.773-0.287,1.542-0.6,2.26-1.015c0.376-0.179,0.71-0.426,1.057-0.654
						c0.356-0.217,0.677-0.479,0.996-0.746l0.49-0.388l0.449-0.434c0.305-0.285,0.605-0.576,0.864-0.904
						c0.56-0.621,1.042-1.311,1.486-2.022c0.446-0.714,0.806-1.478,1.126-2.262l0.428-1.199l0.313-1.24
						c0.077-0.414,0.127-0.828,0.195-1.247c0.068-0.417,0.053-0.883,0.083-1.322c0.033-0.842-0.01-1.726-0.128-2.589
						c-0.118-0.857-0.33-1.716-0.575-2.582l-0.002-0.006c-0.015-0.053,0.016-0.108,0.069-0.124
						C235.443,242.704,235.485,242.719,235.509,242.75z"/>
				</g>
			</g>
		</g>
		<g>
			<g>
				<circle fill="#D9DADB" cx="282.195" cy="248.578" r="17.386"/>
				<g>
					<path fill="#D9DADB" d="M299.653,247.586c0,0,0.008,0.427,0.023,1.226c0.026,0.399-0.01,0.894-0.065,1.48
						c-0.031,0.291-0.036,0.609-0.078,0.942c-0.054,0.331-0.112,0.683-0.174,1.056c-0.299,1.469-0.71,3.297-1.715,5.192
						c-0.975,1.891-2.397,3.933-4.475,5.65c-2.068,1.712-4.791,3.029-7.849,3.602c-0.379,0.086-0.772,0.105-1.161,0.16
						c-0.409,0.036-0.745,0.118-1.222,0.114c-0.761-0.002-1.483,0.046-2.351-0.065c-1.693-0.112-3.287-0.531-4.882-1.132
						c-1.587-0.607-3.076-1.496-4.472-2.525c-1.374-1.066-2.604-2.337-3.653-3.756c-1.022-1.443-1.816-3.044-2.411-4.713
						c-0.544-1.706-0.804-3.431-0.879-5.243c-0.001-1.673,0.186-3.505,0.645-5.166c0.473-1.671,1.128-3.277,1.991-4.754
						c0.888-1.462,1.932-2.805,3.119-3.997c1.224-1.145,2.519-2.216,3.968-3.016c1.445-0.787,2.962-1.445,4.531-1.791
						c0.774-0.23,1.567-0.307,2.347-0.425c0.481-0.067,0.779-0.037,1.174-0.06c0.378-0.002,0.727-0.041,1.121-0.013
						c3.159,0.155,5.961,1.118,8.232,2.562c2.263,1.45,3.911,3.311,5.098,5.073c1.215,1.765,1.83,3.532,2.298,4.956
						c0.104,0.362,0.202,0.705,0.294,1.028c0.08,0.325,0.121,0.638,0.186,0.923c0.123,0.571,0.217,1.058,0.239,1.462
						c0.079,0.801,0.122,1.228,0.122,1.228L299.653,247.586z M299.454,247.593c0,0-0.049-0.421-0.142-1.211
						c-0.028-0.398-0.13-0.877-0.261-1.438c-0.097-0.57-0.316-1.196-0.571-1.89c-0.507-1.383-1.354-2.995-2.661-4.553
						c-1.293-1.566-3.054-3.062-5.208-4.221c-2.144-1.136-4.74-1.969-7.443-2.177c-2.847-0.191-5.82,0.187-8.662,1.493
						c-1.417,0.637-2.752,1.523-3.97,2.579c-1.207,1.075-2.226,2.377-3.084,3.785c-0.828,1.431-1.411,3.003-1.792,4.621
						c-0.329,1.653-0.388,3.246-0.275,4.984c0.2,1.589,0.575,3.239,1.19,4.736c0.627,1.501,1.424,2.916,2.414,4.171
						c1.012,1.232,2.133,2.356,3.396,3.269c1.28,0.881,2.628,1.636,4.051,2.131c1.41,0.469,2.892,0.857,4.278,0.938
						c0.662,0.103,1.467,0.051,2.21,0.058c0.627-0.025,1.381-0.101,2.046-0.191c2.725-0.455,5.16-1.536,7.185-2.891
						c2.014-1.377,3.598-3.06,4.707-4.758c1.123-1.694,1.78-3.389,2.129-4.819c0.176-0.718,0.322-1.364,0.356-1.937
						c0.068-0.569,0.117-1.056,0.101-1.459c0.005-0.8,0.007-1.227,0.007-1.227L299.454,247.593z"/>
				</g>
			</g>
			<g>
				<circle fill="#262626" cx="282.195" cy="248.578" r="14.902"/>
				<g>
					<path fill="#262626" d="M267.417,249.417c0,0,0.044,0.363,0.128,1.044c0.026,0.345,0.116,0.754,0.23,1.23
						c0.085,0.484,0.276,1.017,0.499,1.61c0.449,1.175,1.157,2.563,2.306,3.869c1.125,1.317,2.641,2.573,4.485,3.524
						c1.85,0.931,4.007,1.6,6.347,1.716c0.566,0.01,1.217-0.001,1.736-0.041c0.631-0.078,1.327-0.113,1.867-0.263
						c1.15-0.2,2.367-0.671,3.51-1.198c1.154-0.551,2.218-1.315,3.215-2.178c0.98-0.89,1.818-1.944,2.559-3.079
						c1.433-2.305,2.222-5.063,2.229-7.891c-0.061-1.441-0.259-2.816-0.69-4.18c-0.475-1.338-1.119-2.618-1.961-3.752
						c-0.865-1.111-1.858-2.118-2.991-2.907c-1.14-0.775-2.364-1.385-3.629-1.778c-2.544-0.813-5.085-0.818-7.479-0.374
						c-2.249,0.44-4.364,1.392-6.073,2.546c-1.718,1.175-3.077,2.599-4.042,4.041c-0.991,1.432-1.538,2.893-1.847,4.113
						c-0.152,0.614-0.282,1.167-0.309,1.661c-0.058,0.49-0.098,0.908-0.083,1.249c-0.003,0.681-0.004,1.044-0.004,1.044
						L267.417,249.417z M267.217,249.433c0,0-0.006-0.368-0.018-1.058c-0.022-0.346,0.011-0.771,0.059-1.27
						c0.028-0.249,0.031-0.52,0.066-0.805c0.046-0.284,0.094-0.587,0.146-0.906c0.247-1.265,0.616-2.823,1.448-4.468
						c0.821-1.634,2.038-3.402,3.827-4.879c1.799-1.475,4.105-2.579,6.813-3.019c0.675-0.079,1.214-0.131,1.972-0.155
						c0.681,0.027,1.369,0.021,2.054,0.146c1.379,0.152,2.741,0.575,4.051,1.116c1.315,0.551,2.522,1.351,3.677,2.213
						c1.127,0.908,2.15,1.953,3.051,3.115c0.881,1.177,1.602,2.482,2.174,3.862c0.563,1.381,0.909,2.899,1.083,4.374
						c0.119,1.511,0.078,3.049-0.213,4.557c-0.34,1.492-0.859,2.945-1.589,4.287c-0.756,1.324-1.686,2.538-2.758,3.591
						c-1.096,1.024-2.286,1.937-3.589,2.618c-1.312,0.678-2.636,1.193-4.088,1.458c-0.743,0.181-1.357,0.211-2.005,0.287
						c-0.765,0.042-1.394,0.025-2.081-0.005c-2.685-0.195-5.154-1.065-7.088-2.346c-1.942-1.284-3.349-2.907-4.349-4.442
						c-1.013-1.542-1.558-3.05-1.945-4.281c-0.087-0.312-0.169-0.607-0.247-0.885c-0.067-0.281-0.101-0.551-0.156-0.797
						c-0.103-0.494-0.182-0.913-0.198-1.255c-0.064-0.683-0.098-1.047-0.098-1.047L267.217,249.433z"/>
				</g>
			</g>
			<circle fill="#FFFFFF" cx="277.216" cy="244.026" r="2.896"/>
			<circle fill="#FFFFFF" cx="282.91" cy="249.663" r="1.716"/>
			<g opacity="0.5">
				<path fill="#FFFFFF" d="M283.257,237.742c0,0,0.177-0.086,0.487-0.203c0.155-0.055,0.343-0.129,0.559-0.189
					c0.209-0.077,0.484-0.098,0.774-0.13c0.293-0.03,0.626-0.076,0.953-0.038c0.33,0.034,0.695,0.028,1.048,0.129
					c0.354,0.094,0.739,0.159,1.089,0.327c0.361,0.145,0.723,0.307,1.056,0.519c1.371,0.808,2.366,2.08,2.805,3.142
					c0.485,1.048,0.463,1.855,0.463,1.855s-0.555-0.469-1.387-1.173c-0.81-0.66-1.823-1.474-2.914-2.112
					c-0.261-0.182-0.548-0.312-0.82-0.466c-0.267-0.167-0.56-0.262-0.828-0.407c-0.267-0.149-0.552-0.221-0.811-0.345
					c-0.264-0.126-0.51-0.203-0.747-0.292c-0.241-0.072-0.45-0.196-0.675-0.248c-0.217-0.055-0.407-0.125-0.563-0.177
					C283.436,237.823,283.257,237.742,283.257,237.742z"/>
			</g>
			<g opacity="0.5">
				<path d="M290.727,236.374c2.142,2.419,3.526,5.54,3.724,9.016c0.469,8.217-5.812,15.258-14.029,15.727
					c-3.476,0.198-6.735-0.821-9.381-2.674c2.922,3.299,7.262,5.283,12.003,5.013c8.217-0.469,14.498-7.511,14.029-15.727
					C296.803,242.988,294.337,238.901,290.727,236.374z"/>
				<g>
					<path d="M290.805,236.311c0.311,0.329,0.639,0.639,0.936,0.985c0.277,0.363,0.596,0.712,0.845,1.099
						c0.519,0.759,1.015,1.554,1.37,2.416c0.194,0.425,0.365,0.859,0.5,1.308c0.161,0.441,0.278,0.895,0.38,1.354
						c0.125,0.455,0.188,0.921,0.256,1.389l0.052,0.351c0.008,0.074,0.02,0.083,0.024,0.21l0.01,0.169l0.036,0.676l0.026,0.678
						l-0.041,0.728c-0.023,0.489-0.054,0.978-0.147,1.441c-0.123,0.947-0.383,1.874-0.694,2.778
						c-0.318,0.906-0.729,1.776-1.202,2.614c-0.262,0.403-0.514,0.814-0.788,1.21l-0.895,1.135l-1,1.046
						c-0.353,0.328-0.727,0.636-1.097,0.946c-0.772,0.581-1.58,1.113-2.441,1.554c-0.858,0.442-1.758,0.809-2.689,1.062
						c-0.457,0.156-0.931,0.248-1.405,0.335c-0.471,0.104-0.945,0.179-1.426,0.207l-0.717,0.065l-0.179,0.016
						c-0.144,0.01-0.137,0.002-0.213,0.004l-0.338-0.001c-0.449,0-0.892,0.007-1.402-0.051c-0.496-0.034-0.983-0.087-1.448-0.183
						c-0.474-0.071-0.941-0.176-1.399-0.316c-0.923-0.248-1.811-0.61-2.665-1.025c-0.853-0.419-1.661-0.921-2.418-1.487l0.938-1.052
						l1.004,1.119c0.363,0.346,0.747,0.672,1.121,1.013c0.39,0.32,0.82,0.588,1.23,0.888c0.418,0.288,0.882,0.499,1.323,0.754
						c0.91,0.453,1.87,0.826,2.87,1.047c0.49,0.159,1.004,0.199,1.512,0.265c0.508,0.087,1.02,0.099,1.534,0.093l0.77-0.001
						c0.227-0.008,0.511-0.055,0.764-0.081l0.781-0.092c0.252-0.049,0.497-0.106,0.744-0.167l0.737-0.183l0.723-0.256
						c0.49-0.147,0.948-0.377,1.401-0.609c0.913-0.449,1.755-1.024,2.541-1.65c0.401-0.303,0.746-0.676,1.12-1.006
						c0.351-0.357,0.669-0.745,1.004-1.112c0.599-0.799,1.168-1.609,1.633-2.482c0.45-0.877,0.878-1.77,1.15-2.717
						c0.149-0.469,0.304-0.937,0.385-1.425l0.154-0.724l0.081-0.735l0.076-0.737l0.008-0.742c0.003-0.228,0.017-0.539,0.011-0.7
						l-0.07-0.783l-0.07-0.783c-0.031-0.254-0.096-0.476-0.142-0.717c-0.107-0.471-0.16-0.954-0.34-1.427
						c-0.269-0.964-0.675-1.885-1.129-2.787c-0.476-0.893-1.042-1.737-1.667-2.553c-0.341-0.381-0.673-0.777-1.027-1.154
						c-0.384-0.343-0.752-0.712-1.135-1.072L290.805,236.311z M290.784,236.292c0.441,0.287,0.897,0.566,1.338,0.87
						c0.417,0.331,0.817,0.687,1.23,1.034c0.393,0.366,0.745,0.775,1.123,1.165c0.362,0.403,0.648,0.866,0.977,1.301
						c0.602,0.905,1.117,1.879,1.498,2.91c0.228,0.497,0.361,1.051,0.505,1.597c0.066,0.271,0.153,0.553,0.199,0.817l0.111,0.779
						l0.111,0.779c0.037,0.36,0.026,0.575,0.041,0.871l0.018,0.83l-0.063,0.829l-0.073,0.829l-0.151,0.819
						c-0.083,0.551-0.233,1.085-0.4,1.617c-0.332,1.06-0.787,2.083-1.355,3.035c-0.27,0.484-0.621,0.919-0.928,1.377
						c-0.34,0.436-0.727,0.835-1.087,1.25c-0.408,0.372-0.797,0.761-1.217,1.112c-0.443,0.325-0.854,0.688-1.32,0.974
						c-0.916,0.593-1.876,1.113-2.889,1.493c-0.504,0.196-1.008,0.383-1.531,0.517l-0.775,0.222l-0.8,0.149l-0.796,0.15
						l-0.782,0.076c-0.269,0.022-0.504,0.059-0.8,0.068l-0.802-0.003c-0.535,0.014-1.07,0.009-1.601-0.073
						c-0.531-0.066-1.068-0.093-1.588-0.229c-1.055-0.197-2.083-0.523-3.088-0.913c-0.486-0.23-0.999-0.419-1.468-0.688
						c-0.463-0.28-0.943-0.538-1.395-0.841c-0.435-0.325-0.882-0.641-1.31-0.981l-1.206-1.117c-0.283-0.263-0.3-0.705-0.038-0.988
						c0.228-0.246,0.591-0.291,0.868-0.128l0.108,0.064c0.742,0.437,1.485,0.863,2.276,1.187c0.789,0.324,1.597,0.599,2.429,0.768
						c0.413,0.096,0.827,0.181,1.249,0.226c0.422,0.073,0.833,0.101,1.237,0.115c0.389,0.039,0.847,0.019,1.3,0.003l0.338-0.011
						c0.036-0.003,0.157-0.002,0.125-0.007l0.157-0.02l0.627-0.08c0.421-0.037,0.833-0.118,1.241-0.224
						c0.411-0.09,0.82-0.182,1.213-0.334c0.802-0.247,1.565-0.6,2.311-0.974c0.744-0.385,1.441-0.85,2.109-1.354l0.963-0.806
						l0.895-0.884l0.807-0.967l0.718-1.036c0.441-0.715,0.85-1.454,1.17-2.238c0.317-0.781,0.583-1.59,0.76-2.421
						c0.117-0.416,0.169-0.825,0.22-1.235l0.087-0.618l0.023-0.674l0.028-0.676l0.007-0.169c0.006,0.015-0.003-0.088-0.003-0.127
						l-0.015-0.322c-0.019-0.43-0.031-0.863-0.104-1.289c-0.05-0.43-0.114-0.859-0.223-1.28c-0.082-0.428-0.2-0.847-0.34-1.26
						c-0.259-0.833-0.589-1.652-0.991-2.44c-0.396-0.781-0.886-1.53-1.41-2.275c-0.034-0.044-0.025-0.107,0.019-0.141
						C290.702,236.271,290.75,236.272,290.784,236.292z"/>
				</g>
			</g>
		</g>
	</g>
	<g>
		<g>
			<path id="XMLID_82_" fill="#353535" d="M243.089,300.163c-46.895,15.347-65.391,65.11-65.391,65.11
				c7.674,9.947,23.305,8.242,23.305,8.242c3.208-11.651,13.038-24.607,20.489-33.204c10.716-27.267,21.233-39.712,21.584-40.123
				C243.08,300.181,243.089,300.163,243.089,300.163z"/>
		</g>
		<g>
			<defs>
				<path id="SVGID_4_" d="M243.089,300.163c-46.895,15.347-65.391,65.11-65.391,65.11c7.674,9.947,23.305,8.242,23.305,8.242
					c3.208-11.651,13.038-24.607,20.489-33.204c10.716-27.267,21.233-39.712,21.584-40.123
					C243.08,300.181,243.089,300.163,243.089,300.163z"/>
			</defs>
			<clipPath id="SVGID_5_">
				<use xlink:href="#SVGID_4_"  overflow="visible"/>
			</clipPath>
			<g id="XMLID_83_" clip-path="url(#SVGID_5_)">
				<g>
					<path fill="#262626" d="M253.719,325.206l-5.712-16.29l-10.638-4.654l0.198-0.435l10.379,4.916l-4.154-11.848
						c0.876-0.307,1.764-0.607,2.662-0.902l33.167-10.866l-14.941,31.542l-13.544-6.384l4.658,14.218
						C255.094,324.732,254.402,324.966,253.719,325.206z"/>
				</g>
				<g>
					<path fill="#262626" d="M201.653,375.476l-28.064-10.602c0.687-1.819,1.375-3.532,2.104-5.236l27.586,11.789
						C202.72,372.736,202.188,374.059,201.653,375.476z M204.326,369.068l-27.244-12.561c0.802-1.739,1.652-3.471,2.526-5.147
						l26.599,13.875C205.556,366.48,204.924,367.77,204.326,369.068z M207.418,362.994l-26.167-14.672
						c0.94-1.678,1.931-3.345,2.944-4.954l25.388,15.984C208.839,360.533,208.111,361.758,207.418,362.994z M210.967,357.225
						l-24.881-16.762c1.077-1.599,2.208-3.185,3.359-4.715l23.965,18.047C212.573,354.907,211.751,356.061,210.967,357.225z
						 M214.958,351.806l-23.375-18.805c1.211-1.505,2.474-2.992,3.752-4.419l22.342,20.021
						C216.751,349.636,215.837,350.713,214.958,351.806z M219.386,346.756l-21.688-20.729c1.33-1.392,2.715-2.766,4.116-4.083
						l20.553,21.854C221.352,344.752,220.349,345.747,219.386,346.756z M224.228,342.104l-19.841-22.502
						c1.442-1.271,2.936-2.521,4.439-3.712l18.631,23.514C226.364,340.27,225.277,341.179,224.228,342.104z M229.465,337.865
						l-17.888-24.084c1.528-1.135,3.116-2.252,4.719-3.319l16.625,24.973C231.745,336.217,230.582,337.035,229.465,337.865z
						 M235.064,334.053l-15.868-25.459c1.609-1.003,3.272-1.983,4.944-2.914l14.591,26.213
						C237.49,332.583,236.256,333.311,235.064,334.053z M240.994,330.675l-13.837-26.619c1.663-0.864,3.385-1.708,5.119-2.509
						l12.574,27.238C243.541,329.39,242.243,330.026,240.994,330.675z M247.221,327.731l-11.836-27.566
						c1.712-0.735,3.475-1.446,5.239-2.114l10.625,28.055C249.89,326.62,248.534,327.166,247.221,327.731z"/>
				</g>
				<g>
					<path fill="#262626" d="M199.793,380.586l-28.12-10.453c0.153-0.412,0.325-0.894,0.52-1.438l0.269-0.751l28.237,10.133
						l-0.255,0.713C200.2,379.47,199.984,380.073,199.793,380.586z"/>
				</g>
			</g>
		</g>
	</g>
	<g>
		<g>
			<path id="XMLID_78_" fill="#353535" d="M268.444,300.166c46.895,15.347,65.391,65.11,65.391,65.11
				c-7.674,9.947-23.305,8.242-23.305,8.242c-3.208-11.651-13.038-24.607-20.489-33.204c-10.716-27.267-21.233-39.712-21.584-40.123
				C268.452,300.184,268.444,300.166,268.444,300.166z"/>
		</g>
		<g>
			<defs>
				<path id="SVGID_6_" d="M268.444,300.166c46.895,15.347,65.391,65.11,65.391,65.11c-7.674,9.947-23.305,8.242-23.305,8.242
					c-3.208-11.651-13.038-24.607-20.489-33.204c-10.716-27.267-21.233-39.712-21.584-40.123
					C268.452,300.184,268.444,300.166,268.444,300.166z"/>
			</defs>
			<clipPath id="SVGID_7_">
				<use xlink:href="#SVGID_6_"  overflow="visible"/>
			</clipPath>
			<g id="XMLID_79_" clip-path="url(#SVGID_7_)">
				<g>
					<path fill="#262626" d="M257.826,325.212c-0.682-0.238-1.373-0.473-2.071-0.7l4.642-14.223l-13.404,6.671l-16.053-32.105
						l34.124,11.138c0.899,0.294,1.787,0.595,2.664,0.901l-4.11,11.754l10.208-5.104l0.338,0.721l-10.641,4.656L257.826,325.212z"/>
				</g>
				<g>
					<path fill="#262626" d="M309.88,375.479c-0.535-1.417-1.067-2.74-1.625-4.049l27.586-11.789
						c0.729,1.704,1.416,3.417,2.104,5.236L309.88,375.479z M307.207,369.071c-0.598-1.298-1.231-2.588-1.881-3.833l26.599-13.875
						c0.874,1.677,1.725,3.408,2.526,5.147L307.207,369.071z M304.115,362.996c-0.693-1.235-1.421-2.461-2.165-3.642l25.387-15.984
						c1.014,1.609,2.004,3.276,2.945,4.954L304.115,362.996z M300.566,357.229c-0.784-1.164-1.606-2.318-2.443-3.43l23.965-18.047
						c1.152,1.53,2.283,3.116,3.359,4.715L300.566,357.229z M296.576,351.81c-0.879-1.093-1.793-2.17-2.719-3.202l22.342-20.021
						c1.279,1.427,2.541,2.914,3.752,4.419L296.576,351.81z M292.147,346.76c-0.964-1.009-1.967-2.004-2.981-2.958l20.553-21.854
						c1.401,1.317,2.786,2.691,4.116,4.083L292.147,346.76z M287.305,342.107c-1.049-0.925-2.136-1.834-3.229-2.7l18.631-23.514
						c1.504,1.191,2.998,2.44,4.439,3.712L287.305,342.107z M282.068,337.868c-1.117-0.83-2.28-1.647-3.457-2.431l16.625-24.973
						c1.603,1.067,3.191,2.185,4.719,3.319L282.068,337.868z M276.469,334.056c-1.192-0.742-2.425-1.47-3.667-2.16l14.591-26.213
						c1.671,0.931,3.335,1.911,4.944,2.914L276.469,334.056z M270.538,330.678c-1.249-0.649-2.546-1.285-3.856-1.89l12.574-27.238
						c1.733,0.801,3.456,1.645,5.119,2.509L270.538,330.678z M264.312,327.734c-1.313-0.564-2.669-1.111-4.027-1.626l10.625-28.055
						c1.764,0.668,3.527,1.379,5.239,2.114L264.312,327.734z"/>
				</g>
				<g>
					<path fill="#262626" d="M311.746,380.605c-0.199-0.532-0.423-1.158-0.677-1.869l-0.237-0.661l28.241-10.123l0.248,0.694
						c0.2,0.56,0.376,1.053,0.532,1.473L311.746,380.605z"/>
				</g>
			</g>
		</g>
	</g>
	<path fill="#F4F4F4" d="M310.529,373.515c0,0,15.632,1.705,23.305-8.242c17.053,15.916,1.137,25.011,1.137,25.011
		c-12.505,5.4-15.063-5.684-15.063-5.684c0.853,8.526-5.684,7.105-5.684,7.105c-6.495-1.412-3.791-18.177-3.756-18.392
		C310.486,373.38,310.51,373.448,310.529,373.515z"/>
	<path opacity="0.1" fill="#262626" enable-background="new    " d="M329.677,388.637c0,0,13.457-7.707,2.318-21.339
		c0.649-0.617,1.268-1.285,1.839-2.025c17.053,15.916,1.137,25.011,1.137,25.011c-5.578,2.409-9.173,1.535-11.448-0.169
		C325.243,390.099,327.275,389.674,329.677,388.637z"/>
	<g>
		<polygon fill="#52B095" points="257.244,368.898 264.807,346.89 268.863,346.89 261.202,368.898 		"/>
		<polygon fill="#FFFFFF" points="259.541,357.905 256.949,349.434 253.036,349.434 250.06,359.082 246.748,349.434 
			242.693,349.434 248.549,366.21 251.332,366.21 254.98,354.546 257.713,363.224 		"/>
		<polygon fill="#52B095" points="229.318,359.465 229.318,356.178 240.982,350.682 240.982,354.21 233.278,357.762 240.982,361.41 
			240.982,364.961 		"/>
		<polygon fill="#52B095" points="282.23,356.178 282.23,359.465 270.566,364.962 270.566,361.41 278.27,357.762 270.566,354.21 
			270.566,350.682 		"/>
	</g>
	<g opacity="0.05">
		<path fill="#FFFFFF" d="M231.781,324.835c0,0-0.34,1.046-0.979,2.857c-0.658,1.804-1.545,4.403-2.704,7.483
			c-0.582,1.539-1.213,3.205-1.881,4.968c-0.678,1.759-1.231,3.662-1.923,5.589c-0.671,1.934-1.337,3.942-2.063,5.963
			c-0.359,1.012-0.721,2.032-1.084,3.056c-0.313,1.042-0.627,2.087-0.941,3.133c-0.65,2.084-1.3,4.169-1.94,6.22
			c-0.677,2.043-1.191,4.091-1.723,6.067c-0.511,1.98-1.081,3.879-1.542,5.697c-0.399,1.83-0.801,3.557-1.176,5.153
			c-0.4,1.593-0.639,3.072-0.898,4.38c-0.247,1.309-0.487,2.452-0.586,3.402c-0.114,0.949-0.259,1.694-0.307,2.205
			c-0.05,0.512-0.077,0.786-0.077,0.786s-0.078-1.098-0.004-3.024c0.002-0.968,0.123-2.128,0.235-3.467
			c0.119-1.337,0.206-2.859,0.505-4.482c0.252-1.632,0.529-3.402,0.848-5.271c0.367-1.857,0.825-3.799,1.293-5.811
			c0.487-2.006,0.894-4.11,1.574-6.168c0.624-2.075,1.257-4.184,1.891-6.292c0.328-1.051,0.656-2.101,0.982-3.148
			c0.378-1.03,0.754-2.056,1.127-3.074c0.741-2.038,1.519-4.026,2.245-5.957c0.742-1.924,1.42-3.805,2.188-5.526
			c0.78-1.716,1.518-3.339,2.199-4.836c1.367-2.993,2.586-5.454,3.402-7.193C231.278,325.814,231.781,324.835,231.781,324.835z"/>
	</g>
	<path opacity="0.1" fill="#262626" enable-background="new    " d="M276.408,311.852c-4.698-7.945-7.915-11.689-7.915-11.689
		h-12.697h-12.697c0,0-0.016,0.019-0.022,0.026c24.253,2.163,36.844,17.998,36.844,17.998L276.408,311.852z"/>
	<path fill="none" stroke="#262626" stroke-width="2" stroke-linecap="round" stroke-linejoin="round" stroke-miterlimit="10" d="
		M214.652,281.18c40.941,11.615,76.69-4.256,76.69-4.256"/>
</g>
<g>
	<g>
		<path fill="#262626" d="M195.367,495.056c-3.871-0.094-5.441,1.958-5.441,1.958c-1.687,11.644,0.622,19.396,0.622,19.396
			c1.867,1.74,5.825,1.01,5.825,1.01L195.367,495.056z"/>
		<path fill="#262626" d="M316.25,493.01c3.865-0.227,5.504,1.771,5.504,1.771c2.083,11.579,0.04,19.406,0.04,19.406
			c-1.807,1.802-5.787,1.209-5.787,1.209L316.25,493.01z"/>
	</g>
	<polygon fill="#262626" points="257.729,463.329 254.018,463.346 247.75,450.075 251.76,450.057 255.919,458.735 259.889,450.019 
		263.872,450 	"/>
	<g>
		<path fill="#F4F4F4" d="M314.255,474.901c0,0-0.847-3.137-3.698-4.196c0,0-19.323-8.729-54.69-8.563
			c-35.367,0.165-54.607,9.074-54.607,9.074c-2.84,1.085-3.658,4.23-3.658,4.23c-6.874,27.005,0.197,62.207,0.197,62.207
			c0.57,2.797,3.9,3.785,3.9,3.785c11.913,3.513,54.578,3.476,54.578,3.476s42.663-0.361,54.543-3.985c0,0,3.32-1.02,3.864-3.822
			C314.683,537.106,321.381,501.84,314.255,474.901z"/>
		<g>
			<path fill="#FFFFFF" d="M200.861,482.956c0,0-0.004,0.203-0.01,0.583c-0.014,0.379,0.001,0.941-0.051,1.644
				c-0.041,0.705-0.09,1.56-0.147,2.542c-0.076,0.984-0.052,2.085-0.127,3.273c-0.026,0.594-0.053,1.212-0.081,1.853
				c-0.034,0.638-0.088,1.294-0.09,1.979c-0.031,1.364-0.063,2.799-0.139,4.278c-0.022,1.483,0.01,3.014-0.059,4.565
				c0.017,1.552,0.035,3.128,0.052,4.704c0.052,1.574,0.04,3.152,0.143,4.699c0.109,1.546,0.107,3.079,0.249,4.55
				c0.102,1.476,0.205,2.903,0.324,4.257c0.133,1.355,0.258,2.636,0.374,3.819c0.136,1.186,0.261,2.273,0.371,3.237
				c0.105,0.97,0.247,1.804,0.347,2.5c0.133,0.684,0.178,1.244,0.251,1.612c0.064,0.372,0.098,0.57,0.098,0.57l-0.187,0.07
				c0,0-0.277-0.758-0.678-2.104c-0.387-1.35-0.898-3.291-1.381-5.649c-0.227-1.181-0.481-2.461-0.688-3.824
				c-0.21-1.363-0.426-2.801-0.577-4.298c-0.194-1.492-0.296-3.044-0.42-4.619c-0.131-1.575-0.146-3.181-0.224-4.784
				c0.008-1.605,0.016-3.209,0.024-4.789c0.077-1.577,0.152-3.13,0.225-4.632c0.135-1.498,0.265-2.946,0.388-4.318
				c0.108-1.374,0.34-2.661,0.485-3.855c0.171-1.191,0.286-2.29,0.484-3.246c0.175-0.96,0.328-1.797,0.454-2.487
				c0.252-1.379,0.396-2.167,0.396-2.167L200.861,482.956z"/>
		</g>
		<path opacity="0.08" fill="#262626" d="M254.322,544.908c1.248,0.006,1.954,0.006,1.954,0.006
			c35.964-1.438,37.21-0.735,54.543-3.985c0,0,3.32-1.02,3.864-3.822c0,0,6.698-35.266-0.428-62.205c0,0-0.847-3.137-3.698-4.196
			c0,0-16.08-7.258-45.738-8.409c6.528,1.104,36.762,7.66,41.708,13.51c4.833,5.716,4.592,14.219,5.032,21.311
			c0.592,9.534-0.621,25.503-2.663,34.844c-1.886,8.628-23.171,8.922-34.504,10.569
			C267.731,543.499,261.019,544.226,254.322,544.908z"/>
	</g>
	<g>
		<g>
			<g>
				<circle fill="#D9DADB" cx="226.726" cy="500.046" r="17.386"/>
				<g>
					<path fill="#D9DADB" d="M244.212,499.969c0,0-0.016,0.426-0.045,1.226c0.004,0.4-0.06,0.893-0.148,1.473
						c-0.047,0.289-0.07,0.605-0.129,0.935c-0.072,0.328-0.149,0.676-0.23,1.044c-0.379,1.45-0.884,3.251-1.988,5.088
						c-1.075,1.832-2.606,3.792-4.775,5.378c-2.16,1.581-4.954,2.719-8.019,3.061c-0.78,0.055-1.519,0.092-2.364,0.071
						c-0.755-0.07-1.492-0.092-2.318-0.276c-1.629-0.254-3.154-0.813-4.654-1.511c-1.496-0.709-2.855-1.699-4.147-2.766
						c-1.259-1.117-2.384-2.393-3.36-3.798c-0.952-1.422-1.705-2.984-2.28-4.622c-0.56-1.648-0.856-3.385-0.963-5.144
						c-0.038-1.717,0.116-3.542,0.555-5.26c0.491-1.703,1.185-3.35,2.116-4.853c0.959-1.481,2.109-2.825,3.414-3.974
						c1.331-1.113,2.762-2.092,4.308-2.796c1.542-0.696,3.15-1.219,4.773-1.426c0.804-0.161,1.615-0.167,2.411-0.216
						c0.123-0.002,0.147-0.012,0.351-0.009l0.28,0.016l0.558,0.032c0.378,0.031,0.724,0.023,1.121,0.085
						c3.181,0.391,5.912,1.531,8.103,3.115c2.179,1.586,3.725,3.536,4.814,5.363c1.12,1.829,1.643,3.628,2.032,5.076
						c0.084,0.368,0.163,0.715,0.238,1.043c0.062,0.329,0.087,0.644,0.135,0.932c0.091,0.578,0.158,1.069,0.157,1.474l0.053,1.234
						L244.212,499.969z M244.012,499.963c0-0.001-0.029-0.423-0.082-1.215c-0.008-0.398-0.087-0.882-0.19-1.449
						c-0.069-0.573-0.255-1.209-0.475-1.915c-0.437-1.406-1.197-3.057-2.422-4.679c-1.211-1.626-2.896-3.208-4.991-4.458
						c-2.083-1.225-4.649-2.16-7.303-2.438c-2.837-0.253-5.729,0.137-8.514,1.326c-1.391,0.582-2.689,1.419-3.912,2.377
						c-1.204,0.99-2.254,2.18-3.188,3.473c-0.91,1.313-1.618,2.775-2.152,4.311c-0.521,1.55-0.792,3.133-0.895,4.828
						c-0.01,1.653,0.15,3.319,0.581,4.93c0.48,1.591,1.158,3.125,2.073,4.502c0.943,1.352,2.04,2.589,3.311,3.587
						c1.281,0.979,2.668,1.781,4.122,2.33c1.446,0.528,2.95,0.936,4.385,1.036c0.69,0.11,1.484,0.068,2.23,0.086
						c0.656-0.018,1.407-0.081,2.083-0.161c2.764-0.381,5.246-1.368,7.334-2.635c2.079-1.29,3.745-2.892,4.938-4.535
						c1.209-1.636,1.955-3.296,2.376-4.708c0.212-0.709,0.392-1.347,0.453-1.918c0.096-0.565,0.168-1.049,0.172-1.452
						C243.989,500.388,244.012,499.966,244.012,499.963z"/>
				</g>
			</g>
			<g>
				<circle fill="#262626" cx="226.726" cy="500.046" r="14.902"/>
				<g>
					<path fill="#262626" d="M241.728,499.981c0,0-0.012,0.366-0.033,1.051c0.005,0.342-0.047,0.766-0.12,1.265
						c-0.04,0.248-0.057,0.521-0.106,0.805c-0.06,0.282-0.124,0.582-0.192,0.898c-0.31,1.252-0.761,2.791-1.677,4.393
						c-0.903,1.594-2.207,3.3-4.066,4.702c-1.852,1.398-4.262,2.419-6.93,2.779c-0.684,0.071-1.31,0.128-2.077,0.133
						c-0.652-0.036-1.267-0.027-2.019-0.163c-1.466-0.175-2.819-0.608-4.17-1.204c-1.342-0.599-2.586-1.438-3.743-2.392
						c-1.135-0.985-2.139-2.139-2.974-3.414c-0.811-1.294-1.419-2.713-1.85-4.181c-0.384-1.487-0.519-3.02-0.493-4.535
						c0.083-1.482,0.335-3.019,0.811-4.432c0.486-1.413,1.125-2.76,1.932-3.989c0.828-1.215,1.784-2.321,2.853-3.297
						c1.1-0.931,2.254-1.804,3.533-2.435c1.274-0.621,2.608-1.127,3.974-1.363c0.677-0.167,1.363-0.203,2.041-0.273
						c0.758-0.022,1.299-0.004,1.977,0.033c2.73,0.273,5.099,1.232,6.986,2.593c1.877,1.364,3.2,3.054,4.121,4.634
						c0.932,1.59,1.396,3.123,1.721,4.37c0.071,0.316,0.138,0.614,0.202,0.895c0.052,0.283,0.072,0.553,0.115,0.8
						c0.079,0.495,0.137,0.917,0.137,1.264l0.048,1.058L241.728,499.981z M241.528,499.975c0-0.001-0.024-0.362-0.068-1.04
						c-0.006-0.341-0.073-0.756-0.16-1.241c-0.057-0.491-0.221-1.035-0.41-1.639c-0.384-1.199-1.02-2.623-2.097-3.991
						c-1.052-1.379-2.497-2.718-4.284-3.784c-1.777-1.046-3.947-1.866-6.219-2.166c-2.417-0.295-4.953-0.134-7.442,0.835
						c-1.238,0.47-2.423,1.155-3.513,1.999c-1.082,0.857-2.011,1.923-2.806,3.086c-0.771,1.185-1.335,2.502-1.726,3.866
						c-0.347,1.388-0.459,2.772-0.431,4.214c0.181,2.823,1.138,5.527,2.711,7.739c0.809,1.087,1.711,2.088,2.744,2.915
						c1.049,0.8,2.158,1.497,3.344,1.976c1.173,0.455,2.417,0.851,3.577,0.979c0.548,0.116,1.244,0.108,1.879,0.148
						c0.52,0.008,1.171-0.022,1.735-0.067c2.328-0.26,4.44-1.061,6.229-2.104c1.782-1.064,3.217-2.41,4.259-3.794
						c1.066-1.375,1.687-2.803,2.063-4.004c0.185-0.605,0.344-1.149,0.398-1.638c0.085-0.483,0.149-0.897,0.154-1.242
						C241.506,500.339,241.527,499.977,241.528,499.975z"/>
				</g>
			</g>
			<circle fill="#FFFFFF" cx="230.455" cy="495.2" r="2.896"/>
			<circle fill="#FFFFFF" cx="226.083" cy="501.907" r="1.716"/>
			<g opacity="0.5">
				<path fill="#FFFFFF" d="M224.998,489.295c0,0-0.173,0.093-0.478,0.222c-0.153,0.062-0.337,0.143-0.551,0.211
					c-0.221,0.065-0.422,0.202-0.659,0.289c-0.231,0.104-0.471,0.196-0.727,0.338c-0.251,0.14-0.531,0.229-0.789,0.395
					c-0.258,0.161-0.544,0.274-0.801,0.457c-0.262,0.17-0.541,0.318-0.79,0.516c-1.049,0.704-2.01,1.579-2.778,2.288
					c-0.787,0.754-1.312,1.256-1.312,1.256s-0.072-0.804,0.348-1.88c0.373-1.087,1.288-2.419,2.606-3.309
					c0.319-0.233,0.67-0.417,1.022-0.584c0.34-0.189,0.72-0.278,1.067-0.393c0.346-0.123,0.711-0.14,1.038-0.194
					c0.324-0.057,0.66-0.033,0.954-0.021c0.291,0.014,0.566,0.019,0.78,0.083c0.219,0.047,0.412,0.108,0.57,0.154
					C224.816,489.221,224.998,489.295,224.998,489.295z"/>
			</g>
			<g opacity="0.5">
				<path d="M238.975,491.565c0.526,1.512,0.828,3.129,0.836,4.819c0.038,8.23-6.602,14.933-14.832,14.972
					c-5.103,0.024-9.615-2.523-12.319-6.421c2.034,5.85,7.596,10.043,14.136,10.013c8.23-0.038,14.871-6.741,14.832-14.972
					C241.613,496.849,240.632,493.954,238.975,491.565z"/>
				<g>
					<path d="M239.071,491.536c0.161,0.418,0.344,0.824,0.488,1.251c0.118,0.436,0.276,0.874,0.363,1.32
						c0.191,0.893,0.347,1.791,0.349,2.732c-0.009,0.451,0.03,0.881-0.019,1.349c-0.048,0.465-0.083,0.94-0.147,1.406l-0.276,1.369
						l-0.406,1.342c-0.334,0.874-0.719,1.734-1.201,2.544c-0.475,0.812-1.022,1.589-1.654,2.292
						c-0.297,0.371-0.634,0.702-0.98,1.027l-0.513,0.493l-0.557,0.444c-0.372,0.296-0.749,0.586-1.16,0.827
						c-0.404,0.252-0.797,0.523-1.231,0.722c-0.84,0.452-1.729,0.809-2.639,1.098c-0.463,0.117-0.923,0.251-1.389,0.35l-1.415,0.22
						c-0.475,0.04-0.952,0.056-1.428,0.083l-0.179,0.007l-0.089,0.003l-0.15-0.008l-0.333-0.025l-0.666-0.05
						c-0.851-0.013-1.882-0.281-2.822-0.464c-0.899-0.311-1.821-0.556-2.659-1.009c-0.878-0.367-1.652-0.92-2.452-1.421
						c-0.722-0.61-1.482-1.173-2.096-1.892c-0.677-0.655-1.199-1.442-1.753-2.192l1.296-0.659c0.311,0.956,0.667,1.911,1.17,2.799
						c0.493,0.889,1.072,1.743,1.759,2.506c0.669,0.78,1.434,1.486,2.281,2.079c0.826,0.628,1.763,1.089,2.711,1.505
						c0.96,0.395,1.97,0.655,2.991,0.826c1.023,0.126,2.07,0.205,3.085,0.077c0.529-0.051,1.062-0.102,1.542-0.228l0.736-0.156
						c0.244-0.066,0.487-0.152,0.73-0.227l0.724-0.235l0.699-0.301c0.473-0.18,0.911-0.436,1.351-0.68
						c0.877-0.496,1.681-1.1,2.452-1.73c0.376-0.328,0.72-0.69,1.094-1.019c0.325-0.377,0.673-0.735,0.982-1.125
						c0.607-0.787,1.184-1.605,1.626-2.5c0.221-0.447,0.452-0.89,0.611-1.365l0.275-0.698c0.078-0.237,0.138-0.48,0.208-0.721
						c0.066-0.242,0.142-0.481,0.2-0.725l0.13-0.742c0.105-0.493,0.15-0.994,0.188-1.498l0.034-0.378
						c0.006-0.04,0.011-0.178,0.018-0.138l-0.008-0.199l-0.033-0.794c-0.044-0.519,0.007-1.083-0.093-1.566
						c-0.186-0.974-0.312-1.983-0.689-2.958c-0.254-1.019-0.817-1.9-1.236-2.881L239.071,491.536z M239.057,491.508
						c0.611,0.867,1.319,1.713,1.733,2.72c0.217,0.498,0.531,0.957,0.669,1.498l0.47,1.611c0.16,0.544,0.172,1.056,0.253,1.586
						l0.096,0.789l0.024,0.197l0.003,0.259l-0.003,0.415c-0.001,0.555,0.005,1.112-0.087,1.663l-0.102,0.83
						c-0.05,0.274-0.119,0.544-0.178,0.817c-0.064,0.272-0.118,0.547-0.191,0.816l-0.264,0.796c-0.161,0.538-0.409,1.041-0.645,1.55
						c-0.478,1.013-1.087,1.963-1.772,2.852c-0.353,0.435-0.747,0.837-1.121,1.255c-0.416,0.376-0.823,0.764-1.267,1.105
						c-0.892,0.678-1.845,1.275-2.868,1.717c-0.511,0.223-1.015,0.453-1.551,0.602l-0.79,0.252c-0.267,0.069-0.54,0.119-0.809,0.178
						c-0.271,0.055-0.536,0.119-0.809,0.164l-0.833,0.091c-0.561,0.081-1.087,0.077-1.617,0.076c-1.1,0.021-2.177-0.1-3.242-0.295
						c-1.067-0.19-2.101-0.517-3.11-0.902c-0.995-0.418-1.973-0.892-2.874-1.496c-0.905-0.594-1.773-1.258-2.548-2.027
						c-0.796-0.75-1.478-1.615-2.103-2.521c-0.629-0.907-1.117-1.906-1.554-2.929c-0.157-0.367,0.014-0.791,0.38-0.948
						c0.293-0.125,0.623-0.042,0.824,0.185l0.092,0.104c0.563,0.637,1.057,1.325,1.707,1.871c0.583,0.612,1.3,1.066,1.964,1.571
						c0.729,0.413,1.423,0.885,2.21,1.176c0.747,0.378,1.569,0.554,2.359,0.806c0.814,0.109,1.517,0.325,2.457,0.315l0.668,0.027
						l0.334,0.014l0.042,0.002l0.021,0.001l0.01,0c0.063,0.002-0.074-0.002-0.056-0.002l0.078-0.006l0.155-0.012l1.239-0.077
						l1.225-0.196c0.403-0.089,0.8-0.208,1.2-0.309c0.787-0.246,1.571-0.518,2.31-0.895c0.384-0.159,0.731-0.389,1.09-0.597
						c0.366-0.198,0.701-0.443,1.034-0.693l0.509-0.362l0.471-0.41c0.32-0.268,0.634-0.544,0.91-0.858
						c0.592-0.591,1.109-1.255,1.59-1.942c0.483-0.69,0.883-1.434,1.243-2.2l0.49-1.175l0.378-1.222
						c0.098-0.409,0.17-0.82,0.26-1.235c0.09-0.412,0.099-0.879,0.152-1.316c0.077-0.839,0.08-1.724,0.007-2.592
						c-0.073-0.862-0.24-1.731-0.439-2.609l-0.001-0.006c-0.012-0.054,0.021-0.107,0.075-0.12
						C238.994,491.459,239.034,491.476,239.057,491.508z"/>
				</g>
			</g>
		</g>
		<g>
			<g>
				<circle fill="#D9DADB" cx="285.374" cy="499.772" r="17.386"/>
				<g>
					<path fill="#D9DADB" d="M302.86,499.695c0,0-0.014,0.426-0.041,1.226c0.005,0.4-0.057,0.893-0.143,1.474
						c-0.046,0.289-0.068,0.606-0.127,0.937c-0.072,0.328-0.148,0.677-0.229,1.045c-0.376,1.452-0.882,3.255-1.985,5.095
						c-1.073,1.837-2.6,3.802-4.764,5.408c-2.155,1.602-4.943,2.774-8.027,3.186c-0.383,0.066-0.776,0.065-1.168,0.099
						c-0.41,0.014-0.75,0.079-1.226,0.05c-0.759-0.042-1.483-0.032-2.344-0.188c-1.685-0.2-3.254-0.702-4.816-1.385
						c-1.553-0.689-2.993-1.655-4.334-2.756c-1.316-1.137-2.478-2.47-3.451-3.942c-0.945-1.495-1.655-3.135-2.161-4.833
						c-0.454-1.732-0.623-3.468-0.603-5.282c0.086-1.671,0.37-3.491,0.914-5.125c0.559-1.644,1.298-3.213,2.237-4.644
						c0.963-1.413,2.076-2.7,3.324-3.829c1.282-1.079,2.632-2.082,4.121-2.805c1.484-0.71,3.033-1.288,4.618-1.551
						c0.785-0.189,1.581-0.225,2.366-0.301c0.484-0.041,0.78,0.004,1.175,0.001c0.377,0.018,0.728-0.003,1.12,0.046
						c3.146,0.32,5.895,1.428,8.086,2.99c2.184,1.566,3.733,3.511,4.825,5.333c1.121,1.826,1.643,3.623,2.035,5.069
						c0.085,0.367,0.165,0.715,0.24,1.042c0.062,0.329,0.088,0.644,0.138,0.931c0.093,0.577,0.161,1.068,0.162,1.472
						c0.037,0.804,0.057,1.232,0.057,1.232L302.86,499.695z M302.661,499.691c0,0-0.027-0.423-0.078-1.217
						c-0.007-0.399-0.084-0.883-0.185-1.45c-0.067-0.574-0.253-1.21-0.471-1.917c-0.434-1.408-1.195-3.061-2.419-4.686
						c-1.209-1.631-2.89-3.218-4.98-4.488c-2.082-1.247-4.63-2.214-7.319-2.563c-2.833-0.34-5.822-0.118-8.729,1.038
						c-1.448,0.562-2.828,1.377-4.1,2.368c-1.261,1.01-2.347,2.257-3.278,3.618c-0.902,1.386-1.566,2.925-2.031,4.521
						c-0.415,1.634-0.557,3.221-0.535,4.963c0.116,1.597,0.404,3.265,0.941,4.792c0.548,1.532,1.27,2.987,2.192,4.291
						c0.946,1.284,2.007,2.464,3.22,3.443c1.232,0.946,2.538,1.771,3.934,2.34c1.384,0.542,2.844,1.007,4.223,1.161
						c0.656,0.137,1.462,0.128,2.204,0.173c0.628,0.008,1.384-0.029,2.053-0.083c2.745-0.312,5.234-1.264,7.326-2.511
						c2.084-1.27,3.753-2.868,4.949-4.505c1.21-1.633,1.955-3.291,2.379-4.701c0.213-0.708,0.393-1.345,0.457-1.916
						c0.098-0.565,0.172-1.048,0.177-1.451c0.046-0.799,0.071-1.225,0.071-1.225L302.661,499.691z"/>
				</g>
			</g>
			<g>
				<circle fill="#262626" cx="285.374" cy="499.772" r="14.902"/>
				<g>
					<path fill="#262626" d="M270.572,499.836c0,0,0.025,0.365,0.073,1.049c0.008,0.346,0.076,0.759,0.166,1.241
						c0.059,0.488,0.223,1.03,0.414,1.634c0.387,1.197,1.021,2.62,2.1,3.984c1.055,1.374,2.503,2.707,4.294,3.754
						c1.799,1.026,3.918,1.807,6.249,2.046c0.565,0.039,1.215,0.063,1.736,0.05c0.634-0.045,1.331-0.044,1.878-0.165
						c1.159-0.139,2.399-0.547,3.568-1.012c1.181-0.49,2.284-1.197,3.325-2.007c1.025-0.837,1.917-1.846,2.716-2.941
						c0.779-1.112,1.387-2.352,1.847-3.657c0.453-1.299,0.696-2.725,0.792-4.079c0.013-1.498-0.111-2.841-0.471-4.238
						c-0.404-1.361-0.981-2.673-1.762-3.85c-0.806-1.155-1.745-2.213-2.835-3.06c-1.098-0.833-2.288-1.507-3.531-1.966
						c-2.498-0.945-5.035-1.083-7.45-0.765c-2.269,0.322-4.431,1.162-6.198,2.224c-1.777,1.083-3.209,2.435-4.248,3.824
						c-1.065,1.378-1.687,2.808-2.06,4.011c-0.184,0.606-0.342,1.151-0.395,1.643c-0.083,0.486-0.145,0.901-0.149,1.242
						c-0.038,0.68-0.059,1.043-0.059,1.043L270.572,499.836z M270.372,499.842c0,0,0.013-0.368,0.038-1.058
						c-0.003-0.347,0.051-0.769,0.125-1.265c0.041-0.247,0.058-0.518,0.108-0.801c0.061-0.282,0.125-0.581,0.193-0.897
						c0.313-1.25,0.762-2.787,1.68-4.386c0.906-1.589,2.214-3.29,4.077-4.672c1.874-1.379,4.234-2.36,6.961-2.658
						c0.678-0.044,1.219-0.067,1.977-0.052c0.679,0.063,1.366,0.093,2.044,0.253c1.369,0.223,2.707,0.717,3.987,1.326
						c1.285,0.619,2.448,1.481,3.556,2.402c1.078,0.966,2.045,2.063,2.883,3.27c0.819,1.222,1.47,2.563,1.969,3.971
						c0.489,1.396,0.757,2.97,0.852,4.397c0.041,1.57-0.081,3.064-0.45,4.567c-0.417,1.472-1.012,2.896-1.811,4.198
						c-0.824,1.283-1.816,2.446-2.942,3.442c-1.148,0.965-2.384,1.815-3.721,2.426c-1.346,0.608-2.694,1.054-4.159,1.242
						c-0.751,0.142-1.366,0.139-2.017,0.181c-0.766,0.002-1.394-0.048-2.078-0.114c-2.671-0.335-5.091-1.333-6.956-2.714
						c-1.872-1.384-3.192-3.078-4.11-4.664c-0.931-1.593-1.396-3.127-1.718-4.377c-0.07-0.316-0.137-0.615-0.2-0.896
						c-0.052-0.284-0.072-0.556-0.114-0.804c-0.077-0.499-0.134-0.922-0.132-1.264c-0.028-0.685-0.043-1.051-0.043-1.051
						L270.372,499.842z"/>
				</g>
			</g>
			<circle fill="#FFFFFF" cx="280.641" cy="494.965" r="2.896"/>
			<circle fill="#FFFFFF" cx="286.031" cy="500.892" r="1.716"/>
			<g opacity="0.5">
				<path fill="#FFFFFF" d="M287.002,489.006c0,0,0.181-0.076,0.497-0.177c0.158-0.047,0.349-0.111,0.568-0.159
					c0.213-0.065,0.488-0.073,0.779-0.09c0.294-0.015,0.629-0.043,0.954,0.012c0.328,0.051,0.693,0.064,1.04,0.184
					c0.348,0.112,0.729,0.198,1.071,0.383c0.353,0.163,0.706,0.344,1.027,0.574c1.327,0.878,2.254,2.201,2.637,3.285
					c0.43,1.072,0.366,1.877,0.366,1.877s-0.53-0.497-1.324-1.244c-0.774-0.702-1.743-1.568-2.799-2.262
					c-0.251-0.196-0.531-0.341-0.795-0.508c-0.258-0.181-0.546-0.291-0.805-0.45c-0.259-0.163-0.54-0.25-0.792-0.387
					c-0.257-0.139-0.499-0.229-0.731-0.331c-0.237-0.085-0.439-0.22-0.661-0.283c-0.214-0.067-0.4-0.146-0.553-0.206
					C287.176,489.097,287.002,489.006,287.002,489.006z"/>
			</g>
			<g opacity="0.5">
				<path d="M294.533,488.031c2.013,2.527,3.231,5.717,3.247,9.198c0.038,8.23-6.602,14.933-14.832,14.972
					c-3.482,0.016-6.682-1.172-9.228-3.161c2.745,3.447,6.976,5.656,11.724,5.634c8.23-0.038,14.871-6.741,14.832-14.972
					C300.254,494.953,298.006,490.744,294.533,488.031z"/>
				<g>
					<path d="M294.614,487.972c0.293,0.345,0.605,0.672,0.883,1.032c0.258,0.377,0.557,0.743,0.786,1.141
						c0.478,0.785,0.932,1.605,1.241,2.484c0.171,0.435,0.32,0.877,0.431,1.332c0.138,0.449,0.231,0.908,0.309,1.372
						c0.101,0.461,0.14,0.93,0.183,1.4l0.034,0.353c0.004,0.074,0.015,0.083,0.012,0.211l0.001,0.169l0.001,0.677l-0.01,0.679
						l-0.079,0.725c-0.049,0.487-0.105,0.973-0.222,1.432c-0.173,0.94-0.48,1.851-0.839,2.738c-0.365,0.888-0.821,1.735-1.337,2.548
						c-0.283,0.389-0.556,0.786-0.85,1.167l-0.953,1.087l-1.053,0.993c-0.37,0.309-0.759,0.597-1.145,0.887
						c-0.801,0.539-1.636,1.029-2.519,1.424c-0.88,0.396-1.798,0.715-2.741,0.92c-0.465,0.132-0.942,0.199-1.42,0.261
						c-0.476,0.079-0.953,0.129-1.435,0.132l-0.72,0.027l-0.18,0.007c-0.145,0.002-0.137-0.005-0.213-0.007l-0.338-0.019
						c-0.448-0.024-0.891-0.04-1.397-0.124c-0.494-0.06-0.977-0.138-1.437-0.259c-0.47-0.095-0.93-0.225-1.38-0.389
						c-0.909-0.296-1.776-0.704-2.608-1.163c-0.83-0.463-1.61-1.007-2.337-1.611l0.992-1.002l0.945,1.17
						c0.344,0.364,0.71,0.71,1.066,1.07c0.373,0.34,0.788,0.63,1.182,0.951c0.402,0.309,0.854,0.544,1.281,0.823
						c0.885,0.5,1.824,0.922,2.812,1.196c0.481,0.184,0.992,0.251,1.496,0.344c0.502,0.114,1.014,0.152,1.527,0.173l0.769,0.039
						c0.227,0.004,0.513-0.029,0.767-0.041l0.784-0.051c0.254-0.036,0.502-0.079,0.752-0.128l0.745-0.144l0.736-0.218
						c0.497-0.121,0.966-0.327,1.431-0.534c0.935-0.401,1.806-0.931,2.624-1.515c0.417-0.281,0.78-0.636,1.171-0.946
						c0.369-0.338,0.707-0.709,1.061-1.058c0.64-0.766,1.25-1.546,1.76-2.393c0.495-0.853,0.969-1.721,1.29-2.653
						c0.173-0.461,0.352-0.92,0.459-1.403l0.191-0.715l0.12-0.73l0.115-0.732l0.046-0.74c0.015-0.228,0.045-0.537,0.048-0.699
						l-0.029-0.786l-0.029-0.786c-0.018-0.255-0.071-0.481-0.104-0.723c-0.082-0.476-0.11-0.961-0.265-1.443
						c-0.218-0.977-0.576-1.918-0.981-2.842c-0.429-0.916-0.95-1.789-1.531-2.637c-0.32-0.398-0.631-0.811-0.965-1.206
						c-0.365-0.363-0.714-0.75-1.078-1.13L294.614,487.972z M294.595,487.952c0.426,0.31,0.866,0.612,1.291,0.939
						c0.399,0.352,0.78,0.728,1.174,1.097c0.374,0.386,0.704,0.813,1.061,1.223c0.34,0.422,0.602,0.899,0.908,1.351
						c0.553,0.936,1.017,1.935,1.343,2.984c0.202,0.508,0.306,1.068,0.421,1.621c0.051,0.274,0.123,0.56,0.156,0.826l0.07,0.783
						l0.07,0.783c0.018,0.362-0.004,0.576-0.004,0.872l-0.026,0.83l-0.106,0.824l-0.116,0.824l-0.193,0.81
						c-0.111,0.546-0.29,1.072-0.484,1.593c-0.387,1.041-0.895,2.039-1.512,2.96c-0.295,0.47-0.668,0.885-0.999,1.327
						c-0.362,0.418-0.769,0.796-1.15,1.191c-0.427,0.351-0.836,0.718-1.274,1.047c-0.46,0.301-0.889,0.643-1.369,0.904
						c-0.946,0.544-1.932,1.013-2.964,1.339c-0.514,0.169-1.027,0.33-1.556,0.436l-0.785,0.181l-0.807,0.107l-0.803,0.108
						l-0.785,0.035c-0.27,0.008-0.506,0.033-0.803,0.026l-0.801-0.045c-0.535-0.014-1.069-0.047-1.595-0.156
						c-0.527-0.094-1.062-0.149-1.574-0.312c-1.043-0.252-2.053-0.632-3.036-1.074c-0.474-0.255-0.976-0.471-1.43-0.764
						c-0.447-0.303-0.914-0.587-1.349-0.913c-0.417-0.348-0.847-0.686-1.257-1.048l-1.146-1.179
						c-0.269-0.277-0.263-0.72,0.014-0.989c0.24-0.233,0.605-0.26,0.873-0.082l0.105,0.07c0.718,0.475,1.437,0.94,2.211,1.305
						c0.771,0.365,1.564,0.682,2.385,0.894c0.408,0.117,0.816,0.224,1.235,0.291c0.418,0.095,0.826,0.144,1.23,0.18
						c0.386,0.059,0.845,0.063,1.298,0.071l0.338,0.007c0.037-0.001,0.157,0.007,0.125-0.001l0.158-0.012l0.631-0.047
						c0.422-0.015,0.838-0.074,1.251-0.159c0.415-0.068,0.829-0.139,1.228-0.27c0.814-0.205,1.594-0.517,2.359-0.852
						c0.763-0.345,1.484-0.774,2.177-1.242l1.004-0.754l0.94-0.836l0.857-0.923l0.771-0.997c0.478-0.691,0.925-1.408,1.285-2.174
						c0.358-0.764,0.665-1.557,0.885-2.378c0.138-0.409,0.212-0.815,0.285-1.222l0.119-0.613l0.059-0.671l0.063-0.674l0.016-0.168
						c0.006,0.015,0.002-0.088,0.003-0.127l0.001-0.322c0.004-0.43,0.014-0.864-0.037-1.293c-0.027-0.432-0.069-0.864-0.155-1.29
						c-0.059-0.432-0.155-0.856-0.274-1.276c-0.215-0.846-0.502-1.68-0.862-2.489c-0.355-0.801-0.805-1.574-1.289-2.346
						c-0.031-0.046-0.02-0.108,0.026-0.14C294.514,487.926,294.562,487.93,294.595,487.952z"/>
				</g>
			</g>
		</g>
	</g>
	<path fill="none" stroke="#262626" stroke-width="2" stroke-linecap="round" stroke-linejoin="round" stroke-miterlimit="10" d="
		M216.217,528.793c40.277,13.742,76.807-0.236,76.807-0.236"/>
</g>
<g>
	<g>
		<defs>
			<path id="XMLID_116_" d="M211.187,688.787c-9.069,0-17.06-2.036-23.938-6.115c-22.269-13.207-22.954-43.771-22.951-44.98
				c0.017-6.617,5.888-9.97,12.501-9.97c0.011,0,0.021,0,0.031,0c6.628,0.017,12.191,2.537,12.175,9.164
				c0.002,0.087,0.088,19.068,10.58,25.198c10.539,6.154,30.375,1.827,55.858-12.187c5.806-3.196,13.104-1.076,16.297,4.732
				c3.193,5.807,1.075,13.104-4.732,16.297C245.375,682.823,226.704,688.787,211.187,688.787z"/>
		</defs>
		<use xlink:href="#XMLID_116_"  overflow="visible" fill="#353535"/>
		<clipPath id="XMLID_2_">
			<use xlink:href="#XMLID_116_"  overflow="visible"/>
		</clipPath>
		<g clip-path="url(#XMLID_2_)">
			<g>
				<path fill="#262626" d="M161.867,630.722c-0.03-0.908-0.052-1.83-0.067-2.767l29.996-0.467c0.012,0.755,0.03,1.501,0.054,2.233
					L161.867,630.722z"/>
			</g>
			<g>
				<path fill="#262626" d="M209.467,691.992c-2.393-0.052-4.749-0.259-7.004-0.615l4.678-29.633
					c0.929,0.146,1.933,0.232,2.983,0.256L209.467,691.992z M213.497,691.942l-1.383-29.969c1.13-0.052,2.32-0.168,3.539-0.344
					l4.292,29.691C217.766,691.637,215.597,691.845,213.497,691.942z M223.627,690.699l-5.716-29.451
					c1.24-0.24,2.536-0.542,3.852-0.896l7.785,28.973C227.551,689.861,225.558,690.324,223.627,690.699z M198.155,690.493
					c-2.492-0.635-4.917-1.48-7.206-2.516l12.359-27.336c0.695,0.314,1.451,0.576,2.248,0.779L198.155,690.493z M232.956,688.344
					l-8.815-28.676c1.302-0.4,2.646-0.854,3.994-1.35l10.345,28.16C236.629,687.158,234.771,687.786,232.956,688.344z
					 M186.793,685.807c-2.234-1.329-4.362-2.887-6.323-4.628l19.915-22.436c0.557,0.494,1.13,0.914,1.751,1.284L186.793,685.807z
					 M241.683,685.252l-11.124-27.861c1.317-0.526,2.68-1.104,4.051-1.718l12.267,27.377
					C245.13,683.833,243.383,684.573,241.683,685.252z M249.929,681.636l-12.904-27.082c1.335-0.637,2.685-1.31,4.011-2.001
					l13.868,26.602C253.261,680.012,251.587,680.846,249.929,681.636z M177.186,677.932c-1.624-1.788-3.14-3.757-4.508-5.853
					l25.122-16.398c0.501,0.769,1.039,1.47,1.597,2.085L177.186,677.932z M257.815,677.604l-14.371-26.334
					c1.314-0.717,2.65-1.474,3.971-2.247l15.17,25.881C261.002,675.833,259.397,676.741,257.815,677.604z M265.411,673.211
					l-15.651-25.594c1.297-0.793,2.595-1.614,3.856-2.439l16.431,25.1C268.529,671.271,266.969,672.258,265.411,673.211z
					 M170.508,668.426c-1.041-1.926-2.001-3.989-2.854-6.134l27.879-11.082c0.421,1.061,0.881,2.055,1.367,2.954L170.508,668.426z
					 M166.326,658.634c-0.634-1.917-1.209-3.942-1.709-6.02l29.166-7.023c0.307,1.273,0.652,2.493,1.026,3.625L166.326,658.634z
					 M163.839,649.051c-0.369-1.88-0.691-3.843-0.959-5.835l29.732-4c0.188,1.4,0.413,2.768,0.667,4.062L163.839,649.051z
					 M162.47,639.763c-0.188-1.832-0.34-3.74-0.451-5.674l29.951-1.719c0.085,1.484,0.2,2.938,0.343,4.322L162.47,639.763z"/>
			</g>
			<g>
				<path fill="#262626" d="M272.864,668.39l-16.995-24.723c0.975-0.67,1.549-1.088,1.641-1.155l17.809,24.143
					C275.319,666.654,274.449,667.299,272.864,668.39z"/>
			</g>
		</g>
	</g>
	<g>
		<g>
			<defs>
				<path id="XMLID_95_" d="M280.925,648.782c46.895,15.347,65.391,65.11,65.391,65.11c-7.674,9.947-23.305,8.242-23.305,8.242
					c-3.208-11.651-13.038-24.607-20.489-33.204c-10.716-27.267-21.233-39.712-21.584-40.123
					C280.934,648.8,280.925,648.782,280.925,648.782z"/>
			</defs>
			<use xlink:href="#XMLID_95_"  overflow="visible" fill="#353535"/>
			<clipPath id="XMLID_3_">
				<use xlink:href="#XMLID_95_"  overflow="visible"/>
			</clipPath>
			<g id="XMLID_114_" clip-path="url(#XMLID_3_)">
				<g>
					<path fill="#262626" d="M270.311,673.83c-0.688-0.24-1.385-0.477-2.09-0.707l4.657-14.215l-12.998,7.428l-0.545-1.047
						l-14.941-31.542l33.167,10.866c0.893,0.293,1.775,0.592,2.646,0.896l-4.011,11.478l9.731-5.536l-9.741,5.567l-0.122,0.347
						l10.383-4.918l-10.383,4.918L270.311,673.83z"/>
				</g>
				<g>
					<path fill="#262626" d="M322.361,724.095c-0.535-1.417-1.067-2.74-1.625-4.049l27.586-11.789
						c0.729,1.704,1.417,3.417,2.104,5.236L322.361,724.095z M319.688,717.686c-0.598-1.298-1.231-2.588-1.881-3.833l26.599-13.875
						c0.875,1.677,1.725,3.408,2.526,5.147L319.688,717.686z M316.595,711.612c-0.693-1.235-1.421-2.461-2.165-3.642l25.388-15.984
						c1.013,1.609,2.004,3.276,2.944,4.954L316.595,711.612z M313.044,705.842c-0.777-1.154-1.599-2.308-2.441-3.426l23.965-18.047
						c1.16,1.54,2.291,3.127,3.362,4.719L313.044,705.842z M309.056,700.426c-0.879-1.093-1.793-2.17-2.719-3.202l22.342-20.021
						c1.279,1.427,2.541,2.914,3.752,4.419L309.056,700.426z M304.628,695.376c-0.964-1.009-1.967-2.004-2.981-2.958l20.553-21.854
						c1.401,1.317,2.786,2.691,4.116,4.083L304.628,695.376z M299.785,690.723c-1.049-0.925-2.136-1.834-3.229-2.7l18.631-23.514
						c1.504,1.191,2.998,2.44,4.439,3.712L299.785,690.723z M294.548,686.482c-1.117-0.83-2.28-1.647-3.457-2.431l16.625-24.973
						c1.603,1.067,3.191,2.185,4.719,3.319L294.548,686.482z M288.949,682.672c-1.192-0.742-2.425-1.47-3.667-2.16l14.591-26.213
						c1.671,0.931,3.335,1.911,4.944,2.914L288.949,682.672z M283.019,679.295c-1.249-0.649-2.546-1.285-3.856-1.89l12.574-27.238
						c1.733,0.801,3.456,1.645,5.119,2.509L283.019,679.295z M276.793,676.349c-1.313-0.564-2.669-1.111-4.027-1.626l10.625-28.055
						c1.764,0.668,3.527,1.379,5.239,2.114L276.793,676.349z"/>
				</g>
				<g>
					<path fill="#262626" d="M324.221,729.205c-0.186-0.5-0.395-1.082-0.63-1.74l-0.273-0.763l28.232-10.145l0.289,0.807
						c0.188,0.524,0.353,0.988,0.501,1.388L324.221,729.205z"/>
				</g>
			</g>
		</g>
		<path fill="#F4F4F4" d="M323.01,722.132c0,0,15.632,1.705,23.305-8.242c17.053,15.916,1.137,25.011,1.137,25.011
			c-12.505,5.4-15.063-5.684-15.063-5.684c0.853,8.526-5.684,7.105-5.684,7.105c-6.495-1.412-3.791-18.177-3.756-18.392
			C322.968,721.997,322.991,722.065,323.01,722.132z"/>
		<path opacity="0.1" fill="#262626" d="M342.158,737.253c0,0,13.457-7.707,2.318-21.339c0.649-0.617,1.268-1.285,1.839-2.025
			c17.053,15.916,1.137,25.011,1.137,25.011c-5.578,2.409-9.173,1.535-11.448-0.169
			C337.724,738.716,339.756,738.291,342.158,737.253z"/>
	</g>
	<g>
		<defs>
			<path id="SVGID_8_" d="M280.57,640.878l-11.365-0.947l-11.365,0.947c0,0,0.412,3.979-1.354,7.904h25.438
				C280.113,644.857,280.57,640.878,280.57,640.878z"/>
		</defs>
		<use xlink:href="#SVGID_8_"  overflow="visible" fill="#353535"/>
		<clipPath id="SVGID_9_">
			<use xlink:href="#SVGID_8_"  overflow="visible"/>
		</clipPath>
		
			<line clip-path="url(#SVGID_9_)" fill="none" stroke="#262626" stroke-width="30" stroke-miterlimit="10" stroke-dasharray="2,1" x1="269.184" y1="638.203" x2="269.184" y2="651.871"/>
	</g>
	<ellipse opacity="0.3" fill="#FFFFFF" cx="269.41" cy="762.912" rx="97.39" ry="13.772"/>
	<path fill="#262626" d="M313.225,718.75c-13.128-48.852-31.322-69.968-31.322-69.968h-12.697h-12.697
		c0,0-18.238,21.116-31.366,69.968c0,0-8.684,36.648,1,43.965c15.71,3.439,31.42,0,31.42,0s2.582-1.864,2.582-23.901
		c0,0,5.595,0.937,9.039,0.937c3.602,0,9.039-0.937,9.039-0.937c0,21.691,2.582,23.901,2.582,23.901c15.71,3.439,31.42,0,31.42,0
		C321.909,755.398,313.225,718.75,313.225,718.75z"/>
	<g>
		<polygon fill="#52B095" points="270.653,717.517 278.217,695.509 282.272,695.509 274.612,717.517 		"/>
		<polygon fill="#FFFFFF" points="272.951,706.524 270.358,698.053 266.446,698.053 263.47,707.701 260.158,698.053 
			256.102,698.053 261.958,714.829 264.742,714.829 268.39,703.165 271.122,711.844 		"/>
		<polygon fill="#52B095" points="242.727,708.085 242.727,704.797 254.391,699.301 254.391,702.829 246.687,706.381 
			254.391,710.029 254.391,713.581 		"/>
		<polygon fill="#52B095" points="295.64,704.797 295.64,708.085 283.976,713.581 283.976,710.029 291.68,706.381 283.976,702.829 
			283.976,699.301 		"/>
	</g>
	<g opacity="0.05">
		<path fill="#FFFFFF" d="M245.19,673.454c0,0-0.34,1.046-0.979,2.857c-0.658,1.804-1.545,4.403-2.704,7.483
			c-0.582,1.539-1.213,3.205-1.881,4.968c-0.678,1.759-1.231,3.661-1.923,5.589c-0.671,1.934-1.337,3.942-2.063,5.963
			c-0.359,1.012-0.721,2.032-1.084,3.056c-0.313,1.042-0.627,2.087-0.941,3.133c-0.65,2.084-1.3,4.169-1.94,6.22
			c-0.677,2.043-1.191,4.091-1.723,6.067c-0.511,1.98-1.081,3.879-1.542,5.697c-0.399,1.83-0.801,3.557-1.176,5.154
			c-0.4,1.593-0.639,3.072-0.898,4.38c-0.247,1.309-0.487,2.452-0.586,3.402c-0.114,0.949-0.259,1.695-0.307,2.205
			c-0.05,0.512-0.077,0.786-0.077,0.786s-0.078-1.098-0.004-3.024c0.002-0.968,0.123-2.128,0.235-3.467
			c0.119-1.337,0.206-2.859,0.505-4.482c0.252-1.632,0.529-3.402,0.848-5.271c0.367-1.857,0.825-3.799,1.293-5.811
			c0.487-2.006,0.894-4.11,1.574-6.168c0.624-2.075,1.257-4.184,1.891-6.292c0.328-1.051,0.656-2.102,0.982-3.148
			c0.378-1.03,0.754-2.056,1.127-3.074c0.741-2.038,1.519-4.026,2.245-5.957c0.742-1.924,1.42-3.805,2.188-5.526
			c0.78-1.716,1.518-3.339,2.199-4.836c1.367-2.993,2.586-5.454,3.402-7.193C244.688,674.433,245.19,673.454,245.19,673.454z"/>
	</g>
	<path opacity="0.1" fill="#262626" d="M289.818,660.471c-4.698-7.945-7.915-11.689-7.915-11.689h-12.697h-12.697
		c0,0-0.016,0.019-0.022,0.026c24.253,2.163,36.844,17.998,36.844,17.998L289.818,660.471z"/>
	<g>
		<path fill="#F4F4F4" d="M189.005,637.872c0,0-14.383-6.354-24.707,0.806c-11.439-20.329,6.482-24.183,6.482-24.183
			c13.553-1.364,12.638,9.975,12.638,9.975c1.767-8.385,7.567-5.053,7.567-5.053C196.749,622.728,189.002,637.942,189.005,637.872z"
			/>
	</g>
	<g>
		<path fill="#232323" d="M156.514,579.5l-3.965-13.475c0,0-0.189-0.751-1.559-2.326l-3.826-13.004
			c-0.206-0.949-1.22-0.65-1.22-0.65s-1.015,0.298-0.674,1.207l3.826,13.004c-0.299,2.066-0.051,2.799-0.051,2.799l3.965,13.475
			c0,0,0.69,5.292,0.956,6.424c0,0,0.656,0.037,2.011-1.381c0.67-0.98,2.574-1.897,2.574-1.897
			C158.161,582.581,156.514,579.5,156.514,579.5z"/>
		<path fill="#A29B87" stroke="#A29B87" stroke-linecap="round" stroke-linejoin="round" stroke-miterlimit="10" d="
			M170.841,667.179l0.827,2.475l6.052,2.658l5.766,2.281c1.767,0.403,3.801-0.72,3.801-0.72l12.482-5.681
			c1.347-1.192,1.284-3.333,1.284-3.333l-14.476,6.585c-2.415,1.065-3.378,0.522-3.378,0.522L170.841,667.179z"/>
		<path fill="#D1D0CA" stroke="#D1D0CA" stroke-linecap="round" stroke-linejoin="round" stroke-miterlimit="10" d="
			M194.827,652.883c2.898,3.612,3.978,5.558,3.978,5.558l2.249,6.417l-14.476,6.585c-2.398,0.941-3.378,0.522-3.378,0.522
			l-12.358-4.787l-18.999-70.102c-0.888-3.083-0.522-5.725-0.522-5.725l2.927-4.71l3.615-4.491c1.073-1.466,3.305-1.479,3.305-1.479
			l11.033-0.749c2.553-0.096,2.824,2.043,2.824,2.043l4.6,19.104l0.555,8.062l11.571,38.475L194.827,652.883z"/>
		<path fill="#A29B87" d="M161.167,580.673c-2.427,0.603-1.703,3.558-1.703,3.558l4.184,19.436l0.68,8.696l11.186,40.702
			l7.172,11.668c1.436,2.748,4.041,1.874,4.041,1.874l10.418-4.504c2.25-1.209,0.841-3.958,0.841-3.958l-6.147-10.237
			l-11.661-38.775l-0.555-8.062l-4.6-19.104c-0.49-2.218-2.824-2.043-2.824-2.043L161.167,580.673z"/>
		
			<line fill="none" stroke="#A29B87" stroke-width="0.5" stroke-linecap="round" stroke-linejoin="round" stroke-miterlimit="10" x1="154.078" y1="586.225" x2="177.063" y2="672.023"/>
		<path fill="#C8C1B0" d="M183.199,671.965c0.112-0.952-0.563-4.261-0.563-4.261l-8.58-13.86l-11.271-41.105l-0.71-9.028
			l-4.233-19.507c-0.454-1.9,2.65-3.257,2.65-3.257c-1.59,1.333-1.028,3.283-1.028,3.283l4.184,19.436l0.68,8.696l11.186,40.702
			l8.126,12.902c1.17,0.634,3.087,0.641,3.087,0.641l10.767-4.728c1.514-0.576,0.293-3.775,0.266-4.11l3.293,7.089l-14.476,6.585
			C184.607,672.531,183.199,671.965,183.199,671.965z"/>
		<g>
			<g>
				<g>
					<g>
						<path fill="#C8C1B0" d="M181.499,630.819c0.076,0.264,0.354,0.417,0.617,0.339l2.597-0.769
							c0.264-0.078,0.417-0.358,0.342-0.623l-0.646-2.257c-0.076-0.264-0.354-0.42-0.619-0.346l-2.611,0.729
							c-0.265,0.074-0.42,0.351-0.344,0.615L181.499,630.819z"/>
					</g>
					<g>
						<path fill="#C8C1B0" d="M176.794,619.045c-0.076-0.264-0.355-0.423-0.621-0.352l-2.6,0.691
							c-0.266,0.071-0.421,0.345-0.345,0.609l0.785,2.735c0.076,0.264,0.354,0.418,0.618,0.342l2.584-0.745
							c0.264-0.076,0.418-0.355,0.343-0.619L176.794,619.045z"/>
					</g>
					<g>
						<path fill="#C8C1B0" d="M175.822,617.468c0.266-0.071,0.419-0.344,0.341-0.608l-0.646-2.179
							c-0.078-0.264-0.362-0.431-0.63-0.372l-2.633,0.58c-0.269,0.059-0.424,0.323-0.346,0.587l0.69,2.331
							c0.078,0.264,0.359,0.422,0.625,0.351L175.822,617.468z"/>
					</g>
					<g>
						<path fill="#C8C1B0" d="M178.637,627.279c0.265-0.074,0.42-0.351,0.344-0.615l-0.795-2.771
							c-0.076-0.264-0.354-0.418-0.618-0.342l-2.584,0.745c-0.264,0.076-0.418,0.355-0.343,0.619l0.787,2.742
							c0.076,0.264,0.355,0.42,0.619,0.346L178.637,627.279z"/>
					</g>
					<g>
						<path fill="#C8C1B0" d="M170.659,615.751c-0.078-0.264-0.362-0.431-0.63-0.372l-3.063,0.674
							c-0.269,0.059-0.423,0.323-0.344,0.586l0.77,2.551c0.079,0.263,0.362,0.421,0.628,0.35l3.003-0.798
							c0.266-0.071,0.419-0.344,0.341-0.608L170.659,615.751z"/>
					</g>
					<g>
						<path fill="#C8C1B0" d="M171.996,620.32c-0.076-0.264-0.355-0.423-0.621-0.352l-2.995,0.796
							c-0.266,0.071-0.42,0.344-0.342,0.608l0.834,2.838c0.078,0.264,0.357,0.417,0.621,0.341l2.953-0.851
							c0.264-0.076,0.418-0.355,0.343-0.619L171.996,620.32z"/>
					</g>
					<g>
						<path fill="#C8C1B0" d="M173.415,625.267c-0.076-0.264-0.354-0.418-0.618-0.342l-2.945,0.849
							c-0.264,0.076-0.417,0.354-0.34,0.618l0.792,2.696c0.078,0.264,0.358,0.419,0.623,0.345l2.929-0.818
							c0.265-0.074,0.42-0.351,0.344-0.615L173.415,625.267z"/>
					</g>
					<g>
						<path fill="#C8C1B0" d="M174.827,630.186c-0.076-0.264-0.355-0.42-0.619-0.346l-2.921,0.816
							c-0.265,0.074-0.418,0.35-0.341,0.614l0.723,2.461c0.078,0.264,0.357,0.416,0.62,0.338l2.886-0.855
							c0.264-0.078,0.417-0.358,0.342-0.623L174.827,630.186z"/>
					</g>
					<g>
						<path fill="#C8C1B0" d="M178.783,621.352c0.076,0.264,0.354,0.418,0.618,0.342l2.608-0.751
							c0.264-0.076,0.419-0.355,0.343-0.619l-0.733-2.561c-0.076-0.264-0.355-0.423-0.621-0.352l-2.626,0.698
							c-0.266,0.071-0.421,0.345-0.345,0.609L178.783,621.352z"/>
					</g>
					<g>
						<path fill="#C8C1B0" d="M180.208,626.321c0.076,0.264,0.355,0.42,0.619,0.346l2.611-0.729c0.265-0.074,0.42-0.351,0.344-0.615
							l-0.805-2.811c-0.076-0.264-0.354-0.418-0.618-0.342l-2.607,0.751c-0.264,0.076-0.418,0.355-0.343,0.619L180.208,626.321z"/>
					</g>
					<g>
						<path fill="#C8C1B0" d="M176.739,632.229c0.076,0.264,0.354,0.417,0.617,0.339l2.579-0.763
							c0.264-0.078,0.417-0.358,0.342-0.623l-0.669-2.331c-0.076-0.264-0.355-0.42-0.619-0.346l-2.59,0.723
							c-0.265,0.074-0.42,0.351-0.344,0.615L176.739,632.229z"/>
					</g>
					<g>
						<path fill="#C8C1B0" d="M180.647,616.186c0.266-0.071,0.419-0.344,0.341-0.608l-0.585-1.973
							c-0.078-0.264-0.362-0.431-0.63-0.372l-2.661,0.586c-0.269,0.059-0.424,0.323-0.346,0.587l0.63,2.126
							c0.078,0.264,0.36,0.422,0.625,0.351L180.647,616.186z"/>
					</g>
				</g>
			</g>
			<g>
				<g>
					<g>
						<path fill="#C8C1B0" d="M178.223,642.19c-0.076-0.264-0.352-0.412-0.614-0.328l-2.94,0.944
							c-0.262,0.084-0.412,0.369-0.334,0.632l0.87,2.929c0.078,0.264,0.356,0.408,0.616,0.32l2.895-0.971
							c0.261-0.087,0.412-0.375,0.336-0.64L178.223,642.19z"/>
					</g>
					<g>
						<path fill="#C8C1B0" d="M179.679,647.266c-0.076-0.264-0.351-0.409-0.612-0.322l-2.883,0.967
							c-0.261,0.087-0.41,0.375-0.332,0.638l0.728,2.451c0.078,0.264,0.353,0.401,0.611,0.305l2.828-1.049
							c0.258-0.096,0.407-0.39,0.331-0.654L179.679,647.266z"/>
					</g>
					<g>
						<path fill="#C8C1B0" d="M181.671,636.165c-0.076-0.264-0.354-0.416-0.617-0.338l-2.589,0.771
							c-0.264,0.078-0.417,0.359-0.341,0.623l0.686,2.39c0.076,0.264,0.352,0.412,0.614,0.328l2.574-0.827
							c0.262-0.084,0.414-0.369,0.338-0.633L181.671,636.165z"/>
					</g>
					<g>
						<path fill="#C8C1B0" d="M176.902,637.586c-0.076-0.264-0.354-0.416-0.617-0.338l-3.001,0.894
							c-0.264,0.079-0.415,0.359-0.337,0.622l0.74,2.492c0.078,0.264,0.357,0.411,0.618,0.326l2.951-0.948
							c0.262-0.084,0.414-0.369,0.338-0.633L176.902,637.586z"/>
					</g>
					<g>
						<path fill="#C8C1B0" d="M181.548,649.158c0.076,0.264,0.349,0.402,0.607,0.307l2.542-0.943
							c0.258-0.096,0.407-0.39,0.331-0.655l-0.627-2.184c-0.076-0.264-0.351-0.409-0.612-0.322l-2.564,0.86
							c-0.261,0.087-0.412,0.375-0.336,0.64L181.548,649.158z"/>
					</g>
					<g>
						<path fill="#C8C1B0" d="M183.438,644.135c0.261-0.087,0.412-0.375,0.336-0.64l-0.811-2.827
							c-0.076-0.264-0.352-0.412-0.614-0.328l-2.574,0.827c-0.262,0.084-0.414,0.369-0.338,0.633l0.824,2.873
							c0.076,0.264,0.351,0.409,0.612,0.322L183.438,644.135z"/>
					</g>
					<g>
						<path fill="#C8C1B0" d="M184.984,643.09c0.076,0.264,0.351,0.409,0.612,0.322l2.297-0.771
							c0.261-0.087,0.415-0.376,0.343-0.642l-0.756-2.783c-0.072-0.265-0.345-0.414-0.607-0.33l-2.357,0.757
							c-0.262,0.084-0.414,0.369-0.338,0.634L184.984,643.09z"/>
					</g>
					<g>
						<path fill="#C8C1B0" d="M186.227,647.423c0.076,0.264,0.349,0.402,0.607,0.307l2.22-0.824c0.258-0.096,0.41-0.391,0.338-0.656
							l-0.558-2.053c-0.072-0.265-0.344-0.411-0.605-0.324l-2.28,0.765c-0.261,0.087-0.412,0.375-0.336,0.64L186.227,647.423z"/>
					</g>
					<g>
						<path fill="#FCC34F" d="M183.55,638.09c0.076,0.264,0.352,0.412,0.614,0.328l2.374-0.762c0.262-0.084,0.417-0.37,0.345-0.635
							l-0.605-2.228c-0.072-0.265-0.347-0.418-0.61-0.34l-2.433,0.725c-0.264,0.079-0.417,0.359-0.341,0.623L183.55,638.09z"/>
					</g>
				</g>
			</g>
		</g>
		<path fill="#D1D0CA" stroke="#D1D0CA" stroke-linecap="round" stroke-linejoin="round" stroke-miterlimit="10" d="
			M170.838,583.312l-6.576,0.615c-2.955,0.724-2.646,4.011-2.646,4.011l2.114,9.428c0.865,4.12,4.254,3.702,4.254,3.702l6.935-0.921
			c3.167-0.731,2.103-4.42,2.103-4.42l-2.376-9.444C173.814,583.331,170.838,583.312,170.838,583.312z"/>
		<circle opacity="0.5" fill="#C8C1B0" cx="169.395" cy="592.193" r="5.426"/>
		<g>
			<path fill="#141414" d="M167.037,590.493c0.032,0.133-0.066,0.255-0.22,0.273c-0.154,0.018-0.305-0.076-0.338-0.209
				c-0.032-0.133,0.066-0.255,0.22-0.273C166.854,590.267,167.005,590.36,167.037,590.493z"/>
			<path fill="#141414" d="M171.375,589.994c0.032,0.133-0.066,0.255-0.22,0.273c-0.154,0.018-0.305-0.076-0.338-0.209
				c-0.032-0.133,0.066-0.255,0.22-0.273C171.191,589.767,171.342,589.861,171.375,589.994z"/>
			<path fill="#141414" d="M169.244,590.239c0.032,0.133-0.066,0.255-0.22,0.273s-0.305-0.076-0.338-0.209
				c-0.032-0.133,0.066-0.255,0.22-0.273C169.06,590.012,169.212,590.106,169.244,590.239z"/>
			<path fill="#141414" d="M167.513,592.444c0.032,0.133-0.066,0.255-0.22,0.273c-0.154,0.018-0.305-0.076-0.338-0.209
				c-0.032-0.133,0.066-0.255,0.22-0.273C167.33,592.217,167.481,592.311,167.513,592.444z"/>
			<path fill="#141414" d="M171.851,591.944c0.032,0.133-0.066,0.255-0.22,0.273c-0.154,0.018-0.305-0.076-0.338-0.209
				c-0.032-0.133,0.066-0.255,0.22-0.273C171.667,591.718,171.818,591.811,171.851,591.944z"/>
			<path fill="#141414" d="M169.72,592.19c0.032,0.133-0.066,0.255-0.22,0.273c-0.154,0.018-0.305-0.076-0.338-0.209
				c-0.032-0.133,0.066-0.255,0.22-0.273C169.536,591.963,169.688,592.057,169.72,592.19z"/>
			<path fill="#141414" d="M167.973,594.329c0.032,0.133-0.066,0.255-0.22,0.273c-0.154,0.018-0.305-0.076-0.338-0.209
				c-0.032-0.133,0.066-0.255,0.22-0.273C167.789,594.102,167.941,594.195,167.973,594.329z"/>
			<path fill="#141414" d="M172.31,593.829c0.032,0.133-0.066,0.255-0.22,0.273c-0.154,0.018-0.305-0.076-0.338-0.209
				c-0.032-0.133,0.066-0.255,0.22-0.273C172.127,593.602,172.278,593.696,172.31,593.829z"/>
			<path fill="#141414" d="M170.18,594.074c0.032,0.133-0.066,0.255-0.22,0.273c-0.154,0.018-0.305-0.076-0.338-0.209
				c-0.032-0.133,0.066-0.255,0.22-0.273S170.147,593.941,170.18,594.074z"/>
			<path fill="#141414" d="M168.456,591.284c0.032,0.133-0.066,0.255-0.22,0.273c-0.154,0.018-0.305-0.076-0.338-0.209
				c-0.032-0.133,0.066-0.255,0.22-0.273C168.272,591.057,168.423,591.151,168.456,591.284z"/>
			<path fill="#141414" d="M170.57,591.04c0.032,0.133-0.066,0.255-0.22,0.273c-0.154,0.018-0.305-0.076-0.338-0.209
				c-0.032-0.133,0.066-0.255,0.22-0.273S170.537,590.907,170.57,591.04z"/>
			<path fill="#141414" d="M168.934,593.242c0.032,0.133-0.066,0.255-0.22,0.273c-0.154,0.018-0.305-0.076-0.338-0.209
				c-0.032-0.133,0.066-0.255,0.22-0.273C168.75,593.015,168.901,593.108,168.934,593.242z"/>
			<path fill="#141414" d="M171.047,592.998c0.032,0.133-0.066,0.255-0.22,0.273c-0.154,0.018-0.305-0.076-0.338-0.209
				c-0.032-0.133,0.066-0.255,0.22-0.273C170.863,592.771,171.015,592.865,171.047,592.998z"/>
		</g>
		<path opacity="0.2" fill="#D1D0CA" d="M180.897,655.351c-1.998,0.75-1.186,1.766-1.186,1.766l1.815,3.039
			c0.886,1.528,2.427,0.805,2.427,0.805l9.905-4.025c1.42-0.52,0.99-1.572,0.99-1.572l-1.869-3.026
			c-0.892-1.409-1.936-0.788-1.936-0.788L180.897,655.351z"/>
		
			<line fill="none" stroke="#000000" stroke-linecap="round" stroke-linejoin="round" stroke-miterlimit="10" x1="191.512" y1="660.507" x2="188.853" y2="661.602"/>
		<path fill="#232323" d="M166.402,603.054c-1.781,0.358-1.462,1.797-1.462,1.797l0.405,4.745c0.341,1.463,2.42,0.965,2.42,0.965
			l9.808-1.723c1.529-0.299,1.373-2.113,1.373-2.113l-0.261-4.377c-0.277-1.402-1.942-0.979-1.942-0.979L166.402,603.054z"/>
	</g>
	<path fill="#F4F4F4" d="M169.265,627.213c-2.825-3.296-6.505-3.443-9.965-0.683l0,0c0,0-2.345,3.988,0.063,12.602
		c2.551,9.127,6.208,10.507,6.208,10.507C172.966,645.187,174.856,633.737,169.265,627.213z"/>
	<path opacity="0.1" fill="#262626" d="M169.265,627.213c-2.825-3.296-6.505-3.443-9.965-0.683c0,0-0.226,0.385-0.465,1.172
		c2.916-1.48,5.859-0.925,8.21,1.818c4.485,5.234,4.146,13.631,0.022,19.049C173.19,643.562,174.455,633.269,169.265,627.213z"/>
</g>
</svg>
