<?xml version="1.0" encoding="utf-8"?>
<!-- Generator: Adobe Illustrator 17.0.0, SVG Export Plug-In . SVG Version: 6.00 Build 0)  -->
<!DOCTYPE svg PUBLIC "-//W3C//DTD SVG 1.1//EN" "http://www.w3.org/Graphics/SVG/1.1/DTD/svg11.dtd">
<svg version="1.1" id="Layer_1" xmlns="http://www.w3.org/2000/svg" xmlns:xlink="http://www.w3.org/1999/xlink" x="0px" y="0px"
	 width="1233px" height="294.5px" viewBox="0 0 1233 294.5" enable-background="new 0 0 1233 294.5" xml:space="preserve">
<g>
	<g>
		<g>
			<path d="M577,157h-3v-7h3V157z M577,145h-3v-7h3V145z M577,133h-3v-7h3V133z M577,121h-3v-7h3V121z M577,109h-3v-0.5
				c0-2.529,0.819-4.933,2.368-6.954l2.381,1.825c-1.144,1.492-1.749,3.266-1.749,5.128V109z M582.052,100.75l-1.233-2.734
				c1.492-0.673,3.08-1.015,4.718-1.016h2.771v3h-2.771C584.327,100,583.154,100.253,582.052,100.75z M852.308,100h-7v-3h7V100z
				 M840.308,100h-7v-3h7V100z M828.308,100h-7v-3h7V100z M816.308,100h-7v-3h7V100z M804.308,100h-7v-3h7V100z M792.308,100h-7v-3
				h7V100z M780.308,100h-7v-3h7V100z M768.308,100h-7v-3h7V100z M756.308,100h-7v-3h7V100z M744.308,100h-7v-3h7V100z M732.308,100
				h-7v-3h7V100z M720.308,100h-7v-3h7V100z M708.308,100h-7v-3h7V100z M696.308,100h-7v-3h7V100z M684.308,100h-7v-3h7V100z
				 M672.308,100h-7v-3h7V100z M660.308,100h-7v-3h7V100z M648.308,100h-7v-3h7V100z M636.308,100h-7v-3h7V100z M624.308,100h-7v-3
				h7V100z M612.308,100h-7v-3h7V100z M600.308,100h-7v-3h7V100z"/>
		</g>
	</g>
	<g>
		<g>
			<path fill="#414042" d="M655,161c0-2.209-1.791-4-4-4H499c-2.209,0-4,1.791-4,4v100c0,2.209,1.791,4,4,4h152c2.209,0,4-1.791,4-4
				V161z"/>
		</g>
		<g>
			<path fill="#141414" d="M654,162c0-2.209-1.791-4-4-4H500c-2.209,0-4,1.791-4,4v98c0,2.209,1.791,4,4,4h150c2.209,0,4-1.791,4-4
				V162z"/>
		</g>
		<g>
			<path fill="#2B2B2B" d="M639,164c0-0.552-0.448-1-1-1H512c-0.552,0-1,0.448-1,1v94c0,0.552,0.448,1,1,1h126c0.552,0,1-0.448,1-1
				V164z"/>
		</g>
		<circle fill="#323535" cx="504.991" cy="213.725" r="0.526"/>
		<g>
			<circle fill="#555B5D" cx="504.923" cy="210.371" r="1.054"/>
			<circle fill="#676E70" cx="504.923" cy="210.371" r="0.589"/>
			<circle fill="#555B5D" cx="504.923" cy="210.371" r="0.147"/>
		</g>
		<g>
			<path opacity="0.3" fill="#A1AEB1" enable-background="new    " d="M642.293,210.484c0,2.085,1.69,3.775,3.775,3.775
				c2.085,0,3.775-1.69,3.775-3.775c0-2.085-1.69-3.775-3.775-3.775C643.984,206.709,642.293,208.399,642.293,210.484z
				 M649.422,210.484c0,1.852-1.501,3.353-3.353,3.353c-1.852,0-3.353-1.501-3.353-3.353c0-1.852,1.501-3.354,3.353-3.354
				C647.921,207.131,649.422,208.632,649.422,210.484z"/>
			<defs>
				<filter id="Adobe_OpacityMaskFilter" filterUnits="userSpaceOnUse" x="642.293" y="207.457" width="6.36" height="6.802">
					<feColorMatrix  type="matrix" values="1 0 0 0 0  0 1 0 0 0  0 0 1 0 0  0 0 0 1 0"/>
				</filter>
			</defs>
			<mask maskUnits="userSpaceOnUse" x="642.293" y="207.457" width="6.36" height="6.802" id="SVGID_3_">
				<g filter="url(#Adobe_OpacityMaskFilter)">
					
						<linearGradient id="SVGID_1_" gradientUnits="userSpaceOnUse" x1="881.7871" y1="1778.0699" x2="875.6132" y2="1770.5957" gradientTransform="matrix(0.342 0.2153 0.2503 0.4618 245.7133 -641.6221)">
						<stop  offset="0.3817" style="stop-color:#050607"/>
						<stop  offset="1" style="stop-color:#FFFFFF"/>
					</linearGradient>
					<path fill="url(#SVGID_1_)" d="M994.972,362.81c0.741,0.915,0.833,2.064,0.207,2.572l-7.374,5.978
						c-0.626,0.508-1.734,0.179-2.475-0.734l-0.069-0.085c-0.74-0.913-0.833-2.064-0.206-2.571l7.374-5.979
						c0.626-0.508,1.733-0.178,2.474,0.734L994.972,362.81z"/>
					
						<linearGradient id="SVGID_2_" gradientUnits="userSpaceOnUse" x1="741.0104" y1="2079.7629" x2="734.8419" y2="2072.2954" gradientTransform="matrix(0.2976 0.1605 0.1903 0.3878 339.5577 -525.9446)">
						<stop  offset="0.3817" style="stop-color:#050607"/>
						<stop  offset="1" style="stop-color:#FFFFFF"/>
					</linearGradient>
					<path fill="url(#SVGID_2_)" d="M958.895,393.48c0.605,0.746,0.586,1.76-0.04,2.267l-7.374,5.978
						c-0.626,0.508-1.624,0.316-2.228-0.43l-0.056-0.068c-0.605-0.745-0.586-1.76,0.041-2.266l7.374-5.98
						c0.626-0.508,1.622-0.313,2.226,0.43L958.895,393.48z"/>
				</g>
			</mask>
			<path opacity="0.3" mask="url(#SVGID_3_)" fill="#C7D1D3" enable-background="new    " d="M648.382,212.91
				c-0.602,0.574-1.416,0.927-2.314,0.927c-1.852,0-3.353-1.501-3.353-3.353c0-1.109,0.539-2.093,1.369-2.703l-0.272-0.324
				c-0.922,0.688-1.519,1.788-1.519,3.027c0,2.085,1.69,3.775,3.775,3.775c1.001,0,1.91-0.39,2.585-1.025L648.382,212.91z"/>
		</g>
		<path opacity="0.1" fill="#FFFFFF" enable-background="new    " d="M651.31,255.654c-3.916-1.489-7.293-10.423-7.293-10.423
			c-4.204-9.915,1.058-13.867,1.058-13.867c5.792-3.966,9.89,0.902,9.89,0.902l2.264,4.688l-3.331,1.19L651.31,255.654z"/>
		<path opacity="0.1" fill="#FFFFFF" enable-background="new    " d="M498.682,255.654c3.916-1.489,7.293-10.423,7.293-10.423
			c4.204-9.915-1.058-13.867-1.058-13.867c-5.792-3.966-9.89,0.902-9.89,0.902l-2.264,4.688l3.331,1.19L498.682,255.654z"/>
	</g>
	<g>
		<rect x="518" y="176" fill="#414042" width="114" height="65"/>
		<rect x="518" y="241" fill="#E6E7E8" width="114" height="2"/>
		<rect x="518" y="241" fill="#61C2AC" width="42" height="2"/>
		<rect x="518" y="243" fill="#231F20" width="114" height="5"/>
		<circle fill="#E6E7E8" cx="559.162" cy="241.2" r="2.286"/>
		<circle fill="#61C2AC" cx="559.162" cy="241.2" r="0.857"/>
		<path fill="#8E8E8E" d="M522.007,245.1l-2.14,1.189c-0.025,0.014-0.046,0.016-0.064,0.005s-0.027-0.03-0.027-0.058v-2.372
			c0-0.028,0.009-0.047,0.027-0.058s0.039-0.009,0.064,0.005l2.14,1.189c0.025,0.014,0.037,0.031,0.037,0.05
			S522.031,245.086,522.007,245.1z"/>
		<path fill="#8E8E8E" d="M581.853,208.312l-13.374,7.432c-0.154,0.087-0.287,0.097-0.398,0.03s-0.166-0.188-0.166-0.363v-14.824
			c0-0.175,0.055-0.295,0.166-0.363s0.243-0.057,0.398,0.03l13.374,7.432c0.154,0.087,0.232,0.191,0.232,0.312
			S582.008,208.225,581.853,208.312z"/>
		<path fill="#8E8E8E" d="M525.985,246.267c-0.02,0.02-0.038,0.027-0.052,0.021c-0.014-0.006-0.021-0.024-0.021-0.052v-2.372
			c0-0.028,0.007-0.045,0.021-0.052c0.014-0.006,0.031,0.001,0.052,0.021l1.144,1.144c0.009,0.009,0.016,0.019,0.021,0.031v-1.144
			c0-0.028,0.007-0.045,0.021-0.052c0.014-0.007,0.031,0.001,0.052,0.021l1.144,1.144c0.009,0.009,0.016,0.019,0.021,0.031v-1.092
			c0-0.028,0.01-0.052,0.031-0.073c0.02-0.02,0.045-0.031,0.073-0.031h0.206c0.028,0,0.052,0.01,0.073,0.031
			c0.02,0.02,0.031,0.045,0.031,0.073v2.269c0,0.028-0.01,0.052-0.031,0.073c-0.02,0.02-0.045,0.031-0.073,0.031h-0.206
			c-0.028,0-0.052-0.01-0.073-0.031c-0.02-0.02-0.031-0.045-0.031-0.073v-1.092c-0.005,0.011-0.012,0.021-0.021,0.031l-1.144,1.144
			c-0.02,0.02-0.038,0.027-0.052,0.021c-0.014-0.006-0.021-0.024-0.021-0.052v-1.144c-0.005,0.011-0.012,0.021-0.021,0.031
			L525.985,246.267z"/>
		<path fill="#8E8E8E" d="M534.305,243.954v2.191c0,0.035-0.013,0.065-0.038,0.091c-0.025,0.026-0.056,0.038-0.091,0.038
			c-0.035,0-0.065-0.013-0.091-0.038l-0.671-0.671h-0.528c-0.035,0-0.065-0.013-0.091-0.038s-0.038-0.056-0.038-0.091v-0.773
			c0-0.035,0.013-0.065,0.038-0.091c0.025-0.026,0.056-0.038,0.091-0.038h0.528l0.671-0.671c0.026-0.026,0.056-0.038,0.091-0.038
			c0.035,0,0.065,0.013,0.091,0.038S534.305,243.919,534.305,243.954z M534.993,244.764c0.057,0.089,0.086,0.184,0.086,0.286
			s-0.029,0.197-0.086,0.285s-0.133,0.151-0.227,0.188c-0.013,0.007-0.03,0.01-0.05,0.01c-0.035,0-0.065-0.012-0.091-0.037
			s-0.038-0.055-0.038-0.092c0-0.028,0.008-0.052,0.024-0.072c0.016-0.02,0.036-0.036,0.058-0.05
			c0.022-0.014,0.046-0.03,0.068-0.046c0.022-0.016,0.042-0.041,0.058-0.072s0.024-0.069,0.024-0.115s-0.008-0.084-0.024-0.115
			s-0.036-0.055-0.058-0.072c-0.022-0.017-0.046-0.032-0.068-0.046c-0.022-0.014-0.042-0.031-0.058-0.05
			c-0.016-0.019-0.024-0.043-0.024-0.072c0-0.036,0.013-0.067,0.038-0.092s0.056-0.037,0.091-0.037c0.02,0,0.037,0.003,0.05,0.01
			C534.86,244.613,534.936,244.675,534.993,244.764z M535.423,244.481c0.114,0.174,0.171,0.364,0.171,0.569
			s-0.057,0.395-0.171,0.569c-0.114,0.174-0.265,0.3-0.453,0.38c-0.017,0.007-0.034,0.01-0.05,0.01
			c-0.036,0-0.067-0.013-0.093-0.038s-0.038-0.056-0.038-0.091c0-0.052,0.026-0.092,0.079-0.119
			c0.075-0.039,0.126-0.068,0.153-0.089c0.099-0.073,0.177-0.163,0.233-0.273c0.056-0.11,0.084-0.226,0.084-0.349
			s-0.028-0.24-0.084-0.349c-0.056-0.109-0.133-0.2-0.233-0.273c-0.027-0.02-0.078-0.05-0.153-0.089
			c-0.052-0.027-0.079-0.066-0.079-0.119c0-0.035,0.013-0.065,0.038-0.091c0.025-0.026,0.056-0.038,0.091-0.038
			c0.017,0,0.035,0.003,0.052,0.01C535.158,244.181,535.309,244.307,535.423,244.481z"/>
		<path fill="#8E8E8E" d="M615.352,244.83v0.447c0,0.016-0.005,0.032-0.016,0.046s-0.024,0.023-0.04,0.026l-0.373,0.056
			c-0.026,0.073-0.052,0.134-0.079,0.183c0.047,0.067,0.119,0.16,0.216,0.278c0.013,0.016,0.02,0.033,0.02,0.05
			s-0.006,0.033-0.018,0.046c-0.036,0.05-0.103,0.122-0.199,0.218c-0.096,0.096-0.16,0.143-0.189,0.143
			c-0.016,0-0.034-0.006-0.052-0.018l-0.278-0.218c-0.059,0.031-0.12,0.056-0.183,0.077c-0.021,0.183-0.041,0.307-0.058,0.375
			c-0.009,0.038-0.034,0.056-0.073,0.056h-0.447c-0.019,0-0.035-0.006-0.049-0.017s-0.022-0.026-0.023-0.043l-0.056-0.371
			c-0.066-0.021-0.126-0.046-0.181-0.075l-0.284,0.216c-0.013,0.012-0.03,0.018-0.05,0.018c-0.019,0-0.036-0.007-0.05-0.022
			c-0.169-0.153-0.28-0.266-0.332-0.338c-0.009-0.013-0.014-0.029-0.014-0.046c0-0.016,0.005-0.032,0.016-0.046
			c0.02-0.028,0.054-0.073,0.103-0.134s0.085-0.108,0.109-0.142c-0.036-0.067-0.064-0.134-0.083-0.199l-0.369-0.054
			c-0.017-0.003-0.032-0.011-0.042-0.025s-0.016-0.03-0.016-0.047v-0.447c0-0.016,0.005-0.032,0.016-0.046
			c0.011-0.014,0.023-0.023,0.038-0.026l0.375-0.056c0.019-0.062,0.045-0.124,0.079-0.185c-0.054-0.077-0.126-0.169-0.216-0.278
			c-0.013-0.016-0.02-0.032-0.02-0.048c0-0.013,0.006-0.029,0.018-0.046c0.035-0.048,0.101-0.121,0.198-0.217
			c0.097-0.096,0.161-0.144,0.19-0.144c0.017,0,0.035,0.007,0.052,0.02l0.278,0.216c0.059-0.031,0.12-0.056,0.183-0.077
			c0.021-0.183,0.041-0.307,0.058-0.375c0.009-0.038,0.034-0.056,0.073-0.056h0.447c0.019,0,0.035,0.006,0.049,0.017
			c0.014,0.011,0.022,0.026,0.023,0.043l0.056,0.371c0.066,0.021,0.126,0.046,0.181,0.075l0.286-0.216
			c0.012-0.012,0.028-0.018,0.048-0.018c0.017,0,0.034,0.007,0.05,0.02c0.173,0.16,0.284,0.274,0.332,0.342
			c0.009,0.011,0.014,0.026,0.014,0.044c0,0.016-0.005,0.032-0.016,0.046c-0.02,0.028-0.054,0.073-0.103,0.134
			s-0.085,0.108-0.109,0.142c0.035,0.067,0.062,0.133,0.083,0.197l0.369,0.056c0.017,0.003,0.032,0.011,0.042,0.025
			S615.352,244.813,615.352,244.83z M614.169,245.415c0.101-0.101,0.151-0.222,0.151-0.365s-0.05-0.264-0.151-0.365
			s-0.222-0.151-0.365-0.151s-0.264,0.05-0.365,0.151c-0.101,0.101-0.151,0.222-0.151,0.365s0.05,0.264,0.151,0.365
			c0.101,0.101,0.222,0.151,0.365,0.151S614.069,245.515,614.169,245.415z"/>
		<path fill="#8E8E8E" d="M608.996,244.274c0.138,0.237,0.207,0.496,0.207,0.776s-0.069,0.539-0.207,0.776
			c-0.138,0.237-0.326,0.425-0.563,0.563s-0.496,0.207-0.776,0.207c-0.28,0-0.539-0.069-0.776-0.207s-0.425-0.326-0.563-0.563
			s-0.207-0.496-0.207-0.776s0.069-0.539,0.207-0.776s0.326-0.425,0.563-0.563s0.496-0.207,0.776-0.207
			c0.28,0,0.539,0.069,0.776,0.207S608.858,244.037,608.996,244.274z M608.606,245.6c0.098-0.168,0.147-0.351,0.147-0.55
			s-0.049-0.382-0.147-0.55c-0.098-0.168-0.231-0.301-0.399-0.399c-0.168-0.098-0.351-0.147-0.55-0.147
			c-0.199,0-0.382,0.049-0.55,0.147s-0.301,0.231-0.399,0.399s-0.147,0.351-0.147,0.55s0.049,0.382,0.147,0.55
			s0.231,0.301,0.399,0.399s0.351,0.147,0.55,0.147c0.199,0,0.382-0.049,0.55-0.147C608.375,245.901,608.508,245.768,608.606,245.6z
			 M607.915,244.341v0.902c0,0.019-0.006,0.034-0.018,0.046c-0.012,0.012-0.028,0.018-0.046,0.018h-0.645
			c-0.019,0-0.034-0.006-0.046-0.018s-0.018-0.028-0.018-0.046v-0.129c0-0.019,0.006-0.034,0.018-0.046s0.028-0.018,0.046-0.018
			h0.451v-0.709c0-0.019,0.006-0.034,0.018-0.046s0.028-0.018,0.046-0.018h0.129c0.019,0,0.034,0.006,0.046,0.018
			S607.915,244.322,607.915,244.341z"/>
		<rect x="618.45" y="243.95" fill="none" stroke="#8E8E8E" stroke-width="0.55" stroke-miterlimit="10" width="3.3" height="2.2"/>
		<g>
			<polyline fill="none" stroke="#8E8E8E" stroke-width="0.55" stroke-miterlimit="10" points="629.713,244.358 629.713,243.503 
				629.1,243.503 			"/>
			<polyline fill="none" stroke="#8E8E8E" stroke-width="0.55" stroke-miterlimit="10" points="626.223,243.503 625.609,243.503 
				625.609,244.358 			"/>
			<polyline fill="none" stroke="#8E8E8E" stroke-width="0.55" stroke-miterlimit="10" points="629.1,246.597 629.713,246.597 
				629.713,245.855 			"/>
			<polyline fill="none" stroke="#8E8E8E" stroke-width="0.55" stroke-miterlimit="10" points="625.609,245.855 625.609,246.597 
				626.223,246.597 			"/>
		</g>
	</g>
	<g>
		<g>
			<path d="M727,93.5h-3v-7h3V93.5z M727,81.5h-3v-7h3V81.5z M727,69.5h-3v-7h3V69.5z M727,57.5h-3v-7h3V57.5z M727,45.5h-3v-4h3
				V45.5z"/>
		</g>
	</g>
	<g>
		<g>
			<path fill="#141414" d="M554.153,124.398c-0.503,0-0.981-0.173-1.382-0.5c-0.428-0.349-0.712-0.805-0.847-1.356
				c-0.087-0.229-0.133-0.549-0.007-0.955c0.005-0.018,0.008-0.026,0.01-0.026c0.001,0,0.002,0.005,0.002,0.015
				c0-0.369,0.198-0.666,0.302-0.823l0.147-0.221c0.06-0.088,0.149-0.205,0.309-0.392c0.145-0.168,0.242-0.275,0.29-0.323
				c0.094-0.111,0.403-0.455,0.881-0.983l1.021-1.125c0.125-0.136,0.372-0.434,0.848-1.083c0.373-0.51,0.669-0.974,0.879-1.377
				c0.223-0.428,0.479-0.987,0.761-1.665c0.186-0.445,0.356-0.911,0.51-1.394c-2.889-1.75-5.225-3.898-6.95-6.395
				c-1.891-2.737-2.85-5.72-2.85-8.867c0-2.731,0.753-5.374,2.239-7.853c1.461-2.439,3.451-4.571,5.916-6.338
				c2.441-1.749,5.381-3.153,8.738-4.174c3.348-1.019,6.904-1.535,10.568-1.535c4.913,0,9.513,0.875,13.672,2.601
				c4.191,1.74,7.562,4.154,10.02,7.174c2.5,3.073,3.768,6.48,3.768,10.125s-1.268,7.052-3.768,10.125
				c-2.457,3.02-5.828,5.433-10.02,7.173c-4.159,1.727-8.759,2.602-13.672,2.602c-1.272,0-2.6-0.066-3.952-0.198
				c-3.928,3.382-8.524,5.762-13.667,7.077c-0.98,0.281-2.164,0.51-3.491,0.674C554.33,124.394,554.241,124.398,554.153,124.398z"/>
			<path fill="#D1D3D4" d="M575.537,78.03c4.804,0,9.233,0.842,13.289,2.525c4.056,1.683,7.265,3.977,9.627,6.881
				c2.363,2.904,3.544,6.069,3.544,9.494c0,3.426-1.181,6.59-3.544,9.494c-2.362,2.904-5.572,5.197-9.627,6.881
				c-4.056,1.683-8.485,2.525-13.289,2.525c-1.378,0-2.805-0.079-4.282-0.236c-3.898,3.445-8.426,5.827-13.584,7.147
				c-0.965,0.276-2.087,0.492-3.367,0.65c-0.051,0.006-0.102,0.009-0.152,0.009c-0.274,0-0.524-0.092-0.749-0.275
				c-0.266-0.217-0.438-0.502-0.517-0.856v-0.03c-0.059-0.079-0.064-0.197-0.015-0.354c0.049-0.158,0.069-0.256,0.059-0.295
				s0.034-0.133,0.133-0.281c0.098-0.148,0.158-0.236,0.177-0.266c0.02-0.03,0.089-0.113,0.207-0.251
				c0.118-0.138,0.197-0.226,0.236-0.266c0.138-0.158,0.443-0.497,0.915-1.019c0.473-0.522,0.812-0.896,1.019-1.122
				c0.207-0.226,0.512-0.615,0.915-1.166c0.403-0.551,0.724-1.053,0.96-1.506s0.502-1.034,0.797-1.742
				c0.295-0.709,0.551-1.457,0.768-2.244c-3.091-1.752-5.527-3.918-7.309-6.497c-1.782-2.579-2.673-5.345-2.673-8.298
				c0-2.559,0.699-5.006,2.097-7.339s3.278-4.346,5.64-6.039c2.363-1.693,5.178-3.037,8.446-4.031
				C568.529,78.527,571.954,78.03,575.537,78.03 M575.537,76.03c-3.764,0-7.417,0.531-10.859,1.578
				c-3.462,1.053-6.5,2.506-9.029,4.319c-2.575,1.846-4.658,4.079-6.191,6.637c-1.58,2.637-2.381,5.452-2.381,8.366
				c0,3.353,1.018,6.528,3.027,9.435c1.667,2.412,3.872,4.511,6.569,6.253c-0.073,0.198-0.15,0.392-0.229,0.582
				c-0.272,0.653-0.516,1.186-0.724,1.586c-0.189,0.362-0.458,0.782-0.8,1.25c-0.471,0.644-0.69,0.902-0.779,0.999
				c-0.208,0.228-0.549,0.604-1.024,1.128c-0.458,0.506-0.763,0.845-0.914,1.017c-0.064,0.068-0.156,0.171-0.274,0.309
				c-0.196,0.229-0.278,0.332-0.352,0.443l-0.059,0.088l-0.118,0.177c-0.127,0.19-0.406,0.609-0.462,1.176
				c-0.137,0.51-0.124,1.009,0.026,1.453c0.191,0.738,0.595,1.375,1.176,1.848c0.582,0.474,1.277,0.724,2.012,0.724
				c0.126,0,0.255-0.007,0.386-0.023c1.375-0.169,2.601-0.406,3.655-0.705c5.142-1.319,9.754-3.674,13.72-7.004
				c1.239,0.108,2.455,0.163,3.624,0.163c5.046,0,9.775-0.901,14.056-2.678c4.346-1.804,7.849-4.316,10.412-7.466
				c2.649-3.256,3.992-6.875,3.992-10.756s-1.343-7.5-3.992-10.756c-2.563-3.15-6.066-5.662-10.412-7.466
				C585.312,76.93,580.583,76.03,575.537,76.03L575.537,76.03z"/>
		</g>
		<g>
			<rect x="560" y="92" fill="#FCC34F" width="32" height="2"/>
			<rect x="560" y="96" fill="#79BCAD" width="27" height="2"/>
			<rect x="560.306" y="99.5" fill="#BAC368" width="24.258" height="2"/>
		</g>
	</g>
	<path opacity="0.4" fill="#232323" enable-background="new    " d="M481.132,231.938c-15.702,23.716-8.77,62.562-8.77,62.562h4.674
		C475.943,276.586,481.132,231.938,481.132,231.938z"/>
	<path opacity="0.4" fill="#232323" enable-background="new    " d="M668.568,231.938c15.702,23.716,8.836,62.562,8.836,62.562
		h-4.74C673.757,276.586,668.568,231.938,668.568,231.938z"/>
	<g>
		<g>
			<g>
				<path id="SVGID_6_" fill="#353535" d="M499.084,295.328h-24.211c-1.348-11.147-2.734-31.3,1.341-50.561
					c1.371-6.484,7.739-10.627,14.224-9.257c6.484,1.372,10.628,7.74,9.257,14.224C495.942,267.47,497.921,286.992,499.084,295.328z
					"/>
			</g>
			<g>
				<g>
					<defs>
						<path id="SVGID_4_" d="M499.084,295.328h-24.211c-1.348-11.147-2.734-31.3,1.341-50.561
							c1.371-6.484,7.739-10.627,14.224-9.257c6.484,1.372,10.628,7.74,9.257,14.224
							C495.942,267.47,497.921,286.992,499.084,295.328z"/>
					</defs>
					<clipPath id="SVGID_5_">
						<use xlink:href="#SVGID_4_"  overflow="visible"/>
					</clipPath>
					<g clip-path="url(#SVGID_5_)">
						<path fill="#262626" d="M477.861,336.47c-0.035-0.147-0.201-0.843-0.465-2.014l6.454-1.456h8.605L477.861,336.47z
							 M507.454,333h-23.605l22.81-5.147c0.216,0.958,0.352,1.527,0.379,1.641L507.454,333z M476.714,331.354
							c-0.309-1.446-0.667-3.17-1.055-5.126l29.428-5.834c0.354,1.788,0.682,3.365,0.964,4.687L476.714,331.354z M475.062,323.15
							c-0.303-1.602-0.617-3.317-0.934-5.127l29.551-5.172c0.292,1.667,0.581,3.246,0.859,4.721L475.062,323.15z M473.601,314.93
							c-0.275-1.659-0.549-3.382-0.817-5.155l29.663-4.48c0.246,1.627,0.498,3.207,0.75,4.729L473.601,314.93z M472.329,306.66
							c-0.24-1.699-0.473-3.437-0.693-5.202l29.77-3.713c0.2,1.602,0.411,3.177,0.628,4.719L472.329,306.66z M471.261,298.317
							c-0.198-1.738-0.382-3.497-0.548-5.267l29.867-2.816c0.149,1.576,0.312,3.142,0.489,4.688L471.261,298.317z M470.433,289.865
							c-0.145-1.777-0.27-3.562-0.372-5.346l29.95-1.721c0.089,1.547,0.198,3.096,0.323,4.639L470.433,289.865z M469.9,281.287
							c-0.078-1.86-0.127-3.695-0.147-5.453l29.998-0.346c0.017,1.459,0.058,2.989,0.123,4.551L469.9,281.287z M499.747,272.799
							l-29.999-0.277c0.018-1.92,0.073-3.806,0.163-5.607l29.963,1.5C499.803,269.81,499.76,271.285,499.747,272.799z
							 M500.038,265.852l-29.907-2.361c0.16-2.021,0.372-3.99,0.631-5.855l29.715,4.129
							C500.298,263.044,500.15,264.419,500.038,265.852z M500.848,259.451l-29.505-5.43c0.403-2.19,0.892-4.299,1.453-6.268
							l28.851,8.227C501.347,257.03,501.079,258.198,500.848,259.451z M502.221,254.205l-28.146-10.381
							c0.917-2.485,2-4.806,3.22-6.896l25.913,15.115C502.867,252.628,502.535,253.355,502.221,254.205z"/>
					</g>
				</g>
			</g>
		</g>
		<path fill="#FFFFFF" d="M493.816,238.032c3.253-10.205,10.047-5.331,10.047-5.331c6.751,4.843-5.064,22.724-5.211,22.953
			c0,0-15.157-0.355-23.062-7.707c0,0,0.202-24.384,19.406-25.192v12.478"/>
		<path opacity="0.1" fill="#262626" enable-background="new    " d="M494.997,222.754v1.831
			c-16.581,3.275-17.709,24.734-17.709,24.734s-0.887-0.539-1.698-1.372C475.591,247.947,475.792,223.562,494.997,222.754z"/>
	</g>
	<g>
		<g>
			<g>
				<path id="SVGID_8_" fill="#353535" d="M650.878,295.328h24.211c1.348-11.147,2.734-31.3-1.341-50.561
					c-1.371-6.484-7.739-10.627-14.224-9.257c-6.484,1.372-10.628,7.74-9.257,14.224
					C654.021,267.47,652.041,286.992,650.878,295.328z"/>
			</g>
			<g>
				<g>
					<defs>
						<path id="SVGID_7_" d="M650.878,295.328h24.211c1.348-11.147,2.734-31.3-1.341-50.561c-1.371-6.484-7.739-10.627-14.224-9.257
							c-6.484,1.372-10.628,7.74-9.257,14.224C654.021,267.47,652.041,286.992,650.878,295.328z"/>
					</defs>
					<clipPath id="SVGID_9_">
						<use xlink:href="#SVGID_7_"  overflow="visible"/>
					</clipPath>
					<g clip-path="url(#SVGID_9_)">
						<path fill="#262626" d="M657.508,348v-15l-14.571-3.562c0.031-0.128,0.162-0.677,0.367-1.585l14.205,3.205v-3.069
							l-13.597-2.907c0.283-1.321,0.61-2.898,0.964-4.687l12.632,2.504v-3.04l-12.085-2.287c0.279-1.475,0.567-3.054,0.859-4.721
							l29.551,5.172c-0.317,1.81-0.63,3.525-0.934,5.127l-17.392-3.291v3.04l16.795,3.33c-0.388,1.956-0.746,3.68-1.055,5.126
							l-15.74-3.366v3.069l15.059,3.398c-0.146,0.649-0.262,1.15-0.342,1.489C670.275,344.273,663.428,348,657.508,348z
							 M676.361,314.93l-29.597-4.906c0.252-1.522,0.504-3.103,0.75-4.729l29.663,4.48
							C676.91,311.548,676.636,313.271,676.361,314.93z M677.633,306.66l-29.705-4.196c0.218-1.542,0.429-3.117,0.628-4.719
							l29.77,3.713C678.106,303.224,677.874,304.961,677.633,306.66z M678.701,298.317l-29.808-3.395
							c0.176-1.547,0.34-3.112,0.489-4.688l29.867,2.816C679.083,294.82,678.898,296.579,678.701,298.317z M679.529,289.865
							l-29.901-2.428c0.125-1.543,0.234-3.092,0.323-4.639l29.95,1.721C679.799,286.303,679.674,288.088,679.529,289.865z
							 M680.062,281.287l-29.974-1.248c0.065-1.562,0.106-3.092,0.123-4.551l29.998,0.346
							C680.189,277.592,680.14,279.427,680.062,281.287z M650.215,272.799c-0.014-1.514-0.056-2.989-0.126-4.385l29.963-1.5
							c0.09,1.802,0.145,3.688,0.163,5.607L650.215,272.799z M649.924,265.852c-0.113-1.433-0.26-2.808-0.438-4.088l29.715-4.129
							c0.259,1.865,0.471,3.835,0.631,5.855L649.924,265.852z M649.115,259.455c-0.231-1.256-0.5-2.425-0.8-3.475l28.851-8.227
							c0.56,1.965,1.049,4.072,1.453,6.264L649.115,259.455z M647.741,254.205c-0.313-0.85-0.646-1.577-0.986-2.162l25.913-15.115
							c1.22,2.091,2.303,4.411,3.22,6.896L647.741,254.205z"/>
					</g>
				</g>
			</g>
		</g>
		<path fill="#FFFFFF" d="M656.146,238.032c-3.253-10.205-10.047-5.331-10.047-5.331c-6.751,4.843,5.064,22.724,5.211,22.953
			c0,0,15.157-0.355,23.062-7.707c0,0-0.202-24.384-19.406-25.192v12.478"/>
		<path opacity="0.1" fill="#262626" enable-background="new    " d="M654.965,222.754v1.831
			c16.581,3.275,17.709,24.734,17.709,24.734s0.887-0.539,1.698-1.372C674.372,247.947,674.17,223.562,654.965,222.754z"/>
	</g>
	<g>
		<path fill="#61C2AC" d="M743.969,19.605c-1.047,1.531-2.312,2.836-3.797,3.914c0.016,0.219,0.023,0.547,0.023,0.984
			c0,2.031-0.297,4.059-0.891,6.082s-1.496,3.965-2.707,5.824c-1.211,1.859-2.652,3.504-4.324,4.934s-3.688,2.57-6.047,3.422
			s-4.883,1.277-7.57,1.277c-4.234,0-8.109-1.133-11.625-3.398c0.547,0.062,1.156,0.094,1.828,0.094
			c3.516,0,6.648-1.078,9.398-3.234c-1.641-0.031-3.109-0.535-4.406-1.512c-1.297-0.977-2.188-2.223-2.672-3.738
			c0.516,0.078,0.992,0.117,1.43,0.117c0.672,0,1.336-0.086,1.992-0.258c-1.75-0.359-3.199-1.23-4.348-2.613
			s-1.723-2.988-1.723-4.816V26.59c1.062,0.594,2.203,0.914,3.422,0.961c-1.031-0.688-1.852-1.586-2.461-2.695
			s-0.914-2.312-0.914-3.609c0-1.375,0.344-2.648,1.031-3.82c1.891,2.328,4.191,4.191,6.902,5.59
			c2.711,1.399,5.613,2.176,8.707,2.332c-0.125-0.594-0.188-1.172-0.188-1.734c0-2.094,0.738-3.879,2.215-5.355
			c1.477-1.476,3.262-2.215,5.355-2.215c2.188,0,4.031,0.797,5.531,2.391c1.703-0.328,3.305-0.938,4.805-1.828
			c-0.578,1.797-1.688,3.188-3.328,4.172C741.063,20.62,742.516,20.23,743.969,19.605z"/>
		<g>
			<path fill="#FFFFFF" d="M743.279,4.25c0,2.33,1.889,4.219,4.219,4.219c-2.33,0-4.219,1.889-4.219,4.219
				c0-2.33-1.89-4.219-4.219-4.219C741.39,8.469,743.279,6.58,743.279,4.25z"/>
			<path fill="#FFFFFF" d="M749.498,21.656c0,1.243,1.007,2.25,2.25,2.25c-1.243,0-2.25,1.007-2.25,2.25
				c0-1.243-1.008-2.25-2.25-2.25C748.49,23.906,749.498,22.899,749.498,21.656z"/>
		</g>
	</g>
	<g>
		<g>
			<path d="M1196.305,188h-7v-3h7V188z M1184.305,188h-7v-3h7V188z M1172.305,188h-7v-3h7V188z M1160.305,188h-7v-3h7V188z
				 M1148.305,188h-7v-3h7V188z M1136.305,188h-7v-3h7V188z M1124.305,188h-7v-3h7V188z M1112.305,188h-7v-3h7V188z M1100.305,188
				h-7v-3h7V188z M1088.305,188h-7v-3h7V188z M1076.305,188h-7v-3h7V188z M1064.305,188h-7v-3h7V188z M1052.305,188h-7v-3h7V188z
				 M1040.305,188h-7v-3h7V188z M1028.305,188h-7v-3h7V188z M1016.305,188h-7v-3h7V188z M1004.305,188h-7v-3h7V188z M992.305,188h-7
				v-3h7V188z M980.305,188h-7v-3h7V188z M968.305,188h-7v-3h7V188z M956.305,188h-7v-3h7V188z M944.305,188h-7v-3h7V188z
				 M932.305,188h-7v-3h7V188z M920.305,188h-7v-3h7V188z M908.305,188h-7v-3h7V188z M896.305,188h-7v-3h7V188z M884.305,188h-7v-3
				h7V188z M872.305,188h-7v-3h7V188z M860.305,188h-7v-3h7V188z M848.305,188h-7v-3h7V188z M836.305,188h-7v-3h7V188z M824.305,188
				h-7v-3h7V188z M812.305,188h-7v-3h7V188z M800.305,188h-3.768c-1.248,0-2.477-0.2-3.653-0.596l0.955-2.844
				c0.868,0.292,1.776,0.439,2.698,0.439h3.768V188z M788.106,184.329c-1.861-1.987-2.959-4.564-3.092-7.256l2.996-0.148
				c0.098,1.983,0.91,3.885,2.286,5.354L788.106,184.329z M788,172h-3v-7h3V172z M788,160h-3v-7h3V160z M788,148h-3v-7h3V148z
				 M788,136h-3v-7h3V136z M788,124h-3v-7h3V124z M788,112h-3v-7h3V112z"/>
		</g>
	</g>
	<g>
		<g>
			<path fill="#141414" d="M901,119c0,1.105-0.895,2-2,2h-38c-1.105,0-2-0.895-2-2V84c0-1.105,0.895-2,2-2h38c1.105,0,2,0.895,2,2
				V119z"/>
			<path fill="none" stroke="#BAC368" stroke-width="2" stroke-linecap="round" stroke-linejoin="round" stroke-miterlimit="10" d="
				M901,119c0,1.105-0.895,2-2,2h-38c-1.105,0-2-0.895-2-2V84c0-1.105,0.895-2,2-2h38c1.105,0,2,0.895,2,2V119z"/>
		</g>
		<g>
			<path fill="#BAC368" d="M859,89v-5.216c0-1.1,0.9-1.784,2-1.784h38c1.1,0,2,0.684,2,1.784V89"/>
			<path fill="none" stroke="#BAC368" stroke-width="2" stroke-miterlimit="10" d="M859,89v-5.216c0-1.1,0.9-1.784,2-1.784h38
				c1.1,0,2,0.684,2,1.784V89"/>
		</g>
		<g>
			<path fill="none" stroke="#BAC368" stroke-miterlimit="10" d="M899.5,120c0,0,0,0.536,0,1.284s-0.4,1.216-1.5,1.216h-35
				c-1.1,0-2.5-0.468-2.5-1.216s0-1.284,0-1.284"/>
		</g>
		<rect x="873" y="84" opacity="0.5" fill="#FFFFFF" enable-background="new    " width="15" height="2"/>
		<g>
			<circle fill="#232323" cx="866" cy="84.061" r="2.277"/>
			<circle fill="#232323" cx="894" cy="84.061" r="2.277"/>
		</g>
		
			<line fill="none" stroke="#FFFFFF" stroke-width="2" stroke-linecap="round" stroke-linejoin="round" stroke-miterlimit="10" x1="866" y1="84" x2="866" y2="78"/>
		
			<line fill="none" stroke="#FFFFFF" stroke-width="2" stroke-linecap="round" stroke-linejoin="round" stroke-miterlimit="10" x1="894" y1="84" x2="894" y2="78"/>
		
			<line opacity="0.5" fill="none" stroke="#414042" stroke-width="2" stroke-miterlimit="10" enable-background="new    " x1="860" y1="97" x2="900" y2="97"/>
		
			<line opacity="0.5" fill="none" stroke="#414042" stroke-width="2" stroke-miterlimit="10" enable-background="new    " x1="860" y1="105" x2="900" y2="105"/>
		
			<line opacity="0.5" fill="none" stroke="#414042" stroke-width="2" stroke-miterlimit="10" enable-background="new    " x1="860" y1="113" x2="900" y2="113"/>
		
			<line opacity="0.5" fill="none" stroke="#414042" stroke-width="2" stroke-miterlimit="10" enable-background="new    " x1="868" y1="89" x2="868" y2="120"/>
		
			<line opacity="0.5" fill="none" stroke="#414042" stroke-width="2" stroke-miterlimit="10" enable-background="new    " x1="876" y1="89" x2="876" y2="120"/>
		
			<line opacity="0.5" fill="none" stroke="#414042" stroke-width="2" stroke-miterlimit="10" enable-background="new    " x1="884" y1="89" x2="884" y2="120"/>
		
			<line opacity="0.5" fill="none" stroke="#414042" stroke-width="2" stroke-miterlimit="10" enable-background="new    " x1="892" y1="89" x2="892" y2="120"/>
		
			<rect x="868" y="105" opacity="0.7" fill="none" stroke="#BAC368" stroke-width="2" stroke-miterlimit="10" enable-background="new    " width="8" height="8"/>
	</g>
	<g>
		<g>
			<path d="M1089.497,100H1087v-3h2.497c1.292,0,2.535-0.286,3.692-0.85l1.314,2.696C1092.934,99.612,1091.249,100,1089.497,100z
				 M1082,100h-7v-3h7V100z M1070,100h-7v-3h7V100z M1058,100h-7v-3h7V100z M1046,100h-7v-3h7V100z M1034,100h-7v-3h7V100z
				 M1022,100h-7v-3h7V100z M1010,100h-7v-3h7V100z M998,100h-7v-3h7V100z M986,100h-7v-3h7V100z M974,100h-7v-3h7V100z M962,100h-7
				v-3h7V100z M950,100h-7v-3h7V100z M938,100h-7v-3h7V100z M926,100h-7v-3h7V100z M914,100h-7v-3h7V100z M1098.846,95.179
				l-2.438-1.748c1.039-1.45,1.589-3.155,1.589-4.931v-0.799h3V88.5C1100.997,90.907,1100.253,93.217,1098.846,95.179z
				 M1100.997,82.701h-3v-7h3V82.701z M1100.997,70.701h-3v-7h3V70.701z M1100.997,58.701h-3v-7h3V58.701z"/>
		</g>
	</g>
	<g>
		<g>
			<path fill="none" stroke="#FCC34F" stroke-width="2" stroke-linecap="round" stroke-linejoin="round" stroke-miterlimit="10" d="
				M1219,187v-29.5c0-16.716-14.199-16.415-14.199-16.415"/>
			<rect x="1204" y="185" fill="#FCC34F" width="29" height="4"/>
			
				<line fill="none" stroke="#FCC34F" stroke-width="6" stroke-linecap="round" stroke-linejoin="round" stroke-miterlimit="10" x1="1190.25" y1="138.75" x2="1207.348" y2="141.232"/>
			<g>
				<g>
					<path fill="#FFFFFF" d="M1167.729,134.193c-0.335-0.051-0.517-0.061-0.674-0.07c-0.144-0.007-0.274-0.016-0.544-0.056
						c-0.376-0.058-0.734,0.199-0.789,0.579c-0.058,0.379,0.202,0.734,0.583,0.792c0.333,0.05,0.511,0.06,0.672,0.069
						c0.148,0.01,0.276,0.017,0.543,0.058c0.202,0.032,0.276,0.066,0.401,0.126v-0.013c0.283,0.044,0.418,0.071,0.565,0.101
						c0.155,0.032,0.319,0.068,0.638,0.117c0.324,0.051,0.493,0.064,0.659,0.078c0.14,0.01,0.279,0.023,0.554,0.066
						c0.257,0.039,0.372,0.073,0.507,0.114c0.161,0.049,0.34,0.102,0.693,0.156c0.32,0.048,0.486,0.067,0.644,0.081
						c0.147,0.013,0.287,0.028,0.566,0.07c0.28,0.044,0.413,0.075,0.555,0.105c0.159,0.034,0.323,0.071,0.648,0.122
						c0.329,0.051,0.506,0.065,0.66,0.076c0.147,0.013,0.28,0.02,0.552,0.062c0.329,0.051,0.507,0.064,0.663,0.076
						c0.145,0.011,0.279,0.022,0.554,0.065c0.28,0.043,0.417,0.074,0.558,0.105c0.159,0.035,0.318,0.07,0.642,0.121
						c0.324,0.051,0.49,0.064,0.648,0.078c0.149,0.015,0.283,0.026,0.567,0.072c0.258,0.038,0.381,0.073,0.516,0.111
						c0.157,0.045,0.338,0.094,0.677,0.148c0.294,0.044,0.44,0.072,0.583,0.099c0.159,0.03,0.312,0.059,0.626,0.109
						c0.309,0.048,0.461,0.069,0.615,0.09c0.146,0.02,0.298,0.04,0.594,0.086c0.313,0.051,0.606-0.121,0.732-0.395
						c0.027-0.058,0.046-0.118,0.057-0.185c0.06-0.378-0.198-0.73-0.581-0.79c-0.306-0.048-0.458-0.069-0.611-0.091
						c-0.149-0.021-0.298-0.041-0.596-0.088c-0.291-0.045-0.435-0.071-0.58-0.099c-0.152-0.026-0.308-0.056-0.623-0.108
						c-0.26-0.039-0.376-0.07-0.519-0.111c-0.155-0.043-0.332-0.093-0.677-0.148c-0.324-0.05-0.49-0.065-0.65-0.079
						c-0.147-0.013-0.283-0.026-0.563-0.069c-0.28-0.044-0.415-0.071-0.558-0.105c-0.156-0.034-0.32-0.071-0.645-0.122
						c-0.328-0.049-0.504-0.064-0.659-0.077c-0.146-0.009-0.278-0.019-0.553-0.06c-0.331-0.054-0.507-0.065-0.662-0.077
						c-0.144-0.012-0.279-0.022-0.554-0.065c-0.278-0.042-0.414-0.073-0.556-0.103c-0.158-0.037-0.32-0.072-0.645-0.122
						c-0.319-0.05-0.486-0.067-0.646-0.082c-0.148-0.016-0.283-0.026-0.568-0.07c-0.254-0.04-0.369-0.075-0.501-0.113
						c-0.164-0.049-0.342-0.103-0.692-0.157c-0.329-0.053-0.496-0.064-0.656-0.078c-0.142-0.011-0.282-0.023-0.559-0.067
						c-0.281-0.042-0.42-0.071-0.562-0.102c-0.16-0.033-0.319-0.068-0.641-0.117L1167.729,134.193z"/>
					<g>
						<path fill="#FFFFFF" d="M1186.321,132.004c0.082-0.077,0.14-0.168,0.175-0.27c0.082-0.24,0.03-0.517-0.16-0.709
							c-0.213-0.22-0.32-0.329-0.43-0.434c-0.103-0.105-0.212-0.209-0.414-0.421c-0.202-0.206-0.299-0.313-0.398-0.422
							c-0.105-0.115-0.21-0.23-0.427-0.452c-0.18-0.184-0.252-0.278-0.336-0.391c-0.097-0.129-0.207-0.275-0.446-0.521
							c-0.23-0.232-0.347-0.342-0.466-0.448c-0.106-0.096-0.208-0.187-0.401-0.387c-0.191-0.198-0.284-0.301-0.372-0.409
							c-0.105-0.123-0.212-0.247-0.434-0.478c-0.231-0.237-0.365-0.352-0.478-0.452c-0.107-0.094-0.205-0.18-0.397-0.375
							c-0.229-0.236-0.36-0.353-0.475-0.452c-0.107-0.094-0.207-0.182-0.399-0.377c-0.194-0.199-0.276-0.3-0.372-0.409
							c-0.104-0.124-0.211-0.247-0.433-0.481c-0.225-0.231-0.348-0.341-0.464-0.447c-0.108-0.097-0.211-0.188-0.404-0.388
							c-0.268-0.276-0.707-0.282-0.98-0.013c-0.275,0.266-0.282,0.706-0.013,0.979c0.223,0.23,0.343,0.34,0.463,0.448
							c0.104,0.095,0.205,0.189,0.4,0.39c0.194,0.196,0.282,0.3,0.375,0.409c0.103,0.12,0.209,0.246,0.436,0.48
							c0.226,0.235,0.361,0.349,0.476,0.451c0.107,0.093,0.205,0.18,0.397,0.375c0.229,0.235,0.36,0.352,0.475,0.453
							c0.106,0.094,0.205,0.18,0.397,0.376c0.196,0.199,0.282,0.301,0.372,0.409c0.105,0.122,0.211,0.249,0.437,0.479
							c0.223,0.23,0.345,0.34,0.463,0.447c0.106,0.095,0.206,0.187,0.402,0.386c0.18,0.184,0.251,0.281,0.336,0.391
							c0.097,0.129,0.21,0.276,0.448,0.522c0.204,0.208,0.298,0.314,0.398,0.421c0.104,0.117,0.209,0.232,0.426,0.454
							c0.213,0.219,0.321,0.326,0.428,0.432c0.105,0.106,0.211,0.21,0.416,0.422C1185.609,132.266,1186.05,132.273,1186.321,132.004
							z"/>
						<path fill="#FFFFFF" d="M1173.884,149.234c0.138,0.356,0.542,0.531,0.898,0.392c0.263-0.104,0.396-0.148,0.536-0.189
							c0.154-0.05,0.313-0.099,0.622-0.223c0.31-0.12,0.47-0.197,0.61-0.266c0.13-0.061,0.254-0.123,0.513-0.224
							c0.309-0.124,0.47-0.199,0.611-0.268c0.131-0.063,0.253-0.124,0.511-0.223c0.264-0.103,0.397-0.147,0.536-0.191
							c0.155-0.049,0.315-0.1,0.62-0.221c0.304-0.118,0.457-0.19,0.604-0.258c0.132-0.06,0.258-0.12,0.518-0.22
							c0.25-0.101,0.37-0.132,0.508-0.165c0.16-0.042,0.34-0.089,0.663-0.214c0.276-0.108,0.414-0.156,0.555-0.209
							c0.148-0.051,0.299-0.106,0.593-0.219c0.29-0.115,0.436-0.175,0.579-0.232c0.14-0.06,0.278-0.115,0.558-0.226
							c0.356-0.139,0.534-0.542,0.394-0.899c-0.05-0.128-0.132-0.232-0.233-0.307c-0.184-0.136-0.438-0.175-0.665-0.088
							c-0.291,0.115-0.436,0.175-0.579,0.232c-0.14,0.06-0.279,0.117-0.561,0.227c-0.274,0.109-0.412,0.155-0.553,0.208
							c-0.149,0.05-0.299,0.106-0.593,0.219c-0.247,0.097-0.368,0.131-0.504,0.165c-0.16,0.039-0.341,0.088-0.666,0.212
							c-0.303,0.122-0.452,0.19-0.602,0.259c-0.132,0.062-0.259,0.12-0.524,0.226c-0.263,0.101-0.395,0.142-0.535,0.19
							c-0.154,0.047-0.314,0.098-0.62,0.218c-0.311,0.122-0.472,0.202-0.611,0.268c-0.13,0.064-0.253,0.121-0.514,0.227
							c-0.31,0.12-0.467,0.196-0.61,0.266c-0.131,0.063-0.253,0.124-0.511,0.223c-0.267,0.105-0.399,0.148-0.536,0.191
							c-0.155,0.046-0.315,0.1-0.624,0.221C1173.919,148.475,1173.742,148.878,1173.884,149.234z"/>
					</g>
					<g>
						<path opacity="0.5" fill="#FFFFFF" enable-background="new    " d="M1184.732,148.36c-0.17,0.236-0.26,0.352-0.349,0.465
							c-0.095,0.124-0.191,0.249-0.376,0.502c-0.148,0.208-0.231,0.297-0.327,0.398c-0.111,0.121-0.237,0.256-0.437,0.536
							c-0.189,0.26-0.274,0.395-0.362,0.533c-0.075,0.121-0.149,0.237-0.314,0.464c-0.162,0.223-0.246,0.327-0.338,0.438
							c-0.103,0.125-0.208,0.251-0.399,0.512c-0.192,0.267-0.284,0.417-0.363,0.548c-0.075,0.121-0.143,0.236-0.302,0.454
							c-0.193,0.266-0.286,0.418-0.365,0.549c-0.072,0.12-0.143,0.236-0.303,0.457c-0.164,0.225-0.251,0.33-0.34,0.44
							c-0.103,0.125-0.208,0.25-0.4,0.514c-0.186,0.259-0.276,0.397-0.359,0.532c-0.077,0.12-0.151,0.238-0.315,0.463
							c-0.148,0.206-0.232,0.293-0.324,0.391c-0.116,0.117-0.246,0.252-0.451,0.538c-0.19,0.262-0.279,0.405-0.362,0.542
							c-0.075,0.121-0.146,0.233-0.308,0.459c-0.166,0.23-0.25,0.334-0.342,0.447c-0.099,0.122-0.204,0.251-0.392,0.512
							c-0.201,0.279-0.291,0.444-0.37,0.587c-0.064,0.121-0.122,0.226-0.268,0.434c-0.228,0.313-0.157,0.744,0.154,0.971
							c0.307,0.223,0.744,0.152,0.966-0.155c0.204-0.283,0.292-0.446,0.369-0.588c0.068-0.126,0.122-0.229,0.273-0.438
							c0.165-0.227,0.253-0.335,0.345-0.449c0.1-0.123,0.201-0.247,0.388-0.505c0.192-0.268,0.28-0.411,0.364-0.547
							c0.075-0.118,0.146-0.233,0.306-0.457c0.149-0.204,0.231-0.29,0.328-0.391c0.112-0.117,0.242-0.252,0.448-0.537
							c0.188-0.261,0.276-0.397,0.359-0.531c0.078-0.119,0.154-0.239,0.314-0.464c0.166-0.226,0.254-0.33,0.346-0.441
							c0.098-0.119,0.206-0.249,0.395-0.512c0.192-0.267,0.285-0.416,0.365-0.546c0.075-0.122,0.142-0.235,0.302-0.457
							c0.194-0.266,0.283-0.414,0.362-0.545c0.077-0.123,0.143-0.235,0.306-0.458c0.163-0.225,0.25-0.33,0.341-0.439
							c0.103-0.125,0.207-0.249,0.394-0.513c0.19-0.262,0.279-0.401,0.367-0.539c0.075-0.121,0.148-0.234,0.311-0.46
							c0.152-0.209,0.236-0.3,0.33-0.399c0.11-0.119,0.233-0.253,0.438-0.533c0.17-0.236,0.257-0.348,0.351-0.467
							c0.094-0.122,0.186-0.245,0.372-0.502c0.178-0.246,0.264-0.371,0.354-0.497c0.085-0.12,0.167-0.242,0.343-0.482
							c0.217-0.299,0.159-0.711-0.126-0.942c-0.011-0.009-0.021-0.017-0.032-0.023c-0.309-0.228-0.742-0.158-0.966,0.152
							c-0.182,0.249-0.269,0.377-0.356,0.502C1184.989,148.002,1184.907,148.121,1184.732,148.36z"/>
						<path opacity="0.5" fill="#FFFFFF" enable-background="new    " d="M1187.989,127.486c-0.089-0.277-0.14-0.414-0.191-0.549
							c-0.052-0.147-0.106-0.295-0.205-0.592c-0.078-0.243-0.13-0.353-0.19-0.479c-0.069-0.149-0.148-0.316-0.253-0.644
							c-0.1-0.305-0.141-0.46-0.182-0.617c-0.035-0.138-0.069-0.271-0.157-0.538c-0.086-0.262-0.135-0.386-0.189-0.52
							c-0.06-0.15-0.121-0.302-0.224-0.609c-0.102-0.313-0.143-0.484-0.178-0.632c-0.035-0.138-0.064-0.268-0.15-0.525
							c-0.103-0.312-0.145-0.485-0.181-0.634c-0.032-0.137-0.064-0.268-0.149-0.527c-0.087-0.264-0.138-0.391-0.19-0.522
							c-0.06-0.15-0.122-0.302-0.224-0.612c-0.098-0.303-0.142-0.463-0.18-0.616c-0.036-0.138-0.072-0.273-0.159-0.537
							c-0.078-0.241-0.131-0.35-0.19-0.471c-0.075-0.147-0.157-0.315-0.265-0.65c-0.101-0.307-0.142-0.47-0.18-0.626
							c-0.035-0.138-0.068-0.266-0.154-0.531c-0.088-0.269-0.137-0.394-0.19-0.53c-0.057-0.146-0.118-0.301-0.217-0.607
							c-0.106-0.327-0.142-0.511-0.174-0.672c-0.024-0.134-0.047-0.253-0.123-0.494c-0.122-0.367,0.077-0.757,0.443-0.878
							c0.36-0.119,0.755,0.082,0.873,0.442c0.108,0.332,0.143,0.513,0.173,0.673c0.027,0.141,0.047,0.255,0.127,0.501
							c0.088,0.267,0.139,0.396,0.192,0.532c0.058,0.148,0.116,0.296,0.216,0.599c0.101,0.313,0.142,0.476,0.18,0.632
							c0.035,0.135,0.068,0.266,0.153,0.529c0.079,0.24,0.132,0.347,0.193,0.472c0.071,0.146,0.154,0.314,0.263,0.648
							c0.099,0.305,0.142,0.463,0.18,0.616c0.038,0.137,0.074,0.275,0.158,0.538c0.089,0.266,0.141,0.392,0.195,0.526
							c0.057,0.143,0.12,0.3,0.22,0.608c0.102,0.312,0.144,0.483,0.181,0.632c0.034,0.139,0.064,0.268,0.148,0.528
							c0.103,0.312,0.144,0.481,0.179,0.63c0.036,0.14,0.065,0.267,0.152,0.529c0.087,0.264,0.138,0.391,0.191,0.522
							c0.06,0.15,0.121,0.3,0.219,0.609c0.101,0.307,0.144,0.467,0.185,0.625c0.035,0.138,0.07,0.268,0.156,0.533
							c0.081,0.245,0.133,0.357,0.192,0.481c0.068,0.147,0.145,0.312,0.255,0.641c0.089,0.277,0.139,0.41,0.192,0.551
							c0.052,0.145,0.103,0.291,0.201,0.591c0.094,0.289,0.139,0.434,0.185,0.581c0.044,0.14,0.086,0.281,0.18,0.564
							c0.116,0.351-0.066,0.726-0.407,0.859c-0.013,0.005-0.025,0.01-0.038,0.012c-0.364,0.124-0.755-0.076-0.874-0.439
							c-0.097-0.293-0.142-0.441-0.186-0.586C1188.124,127.905,1188.082,127.767,1187.989,127.486z"/>
					</g>
					<g>
						<path opacity="0.5" fill="#FFFFFF" enable-background="new    " d="M1180.687,141.952c0.139-0.03,0.205-0.037,0.281-0.046
							c0.086-0.008,0.183-0.017,0.362-0.054c0.154-0.034,0.231-0.049,0.308-0.064c0.083-0.015,0.165-0.029,0.329-0.065
							c0.161-0.034,0.241-0.055,0.322-0.072c0.077-0.019,0.156-0.037,0.312-0.071c0.017-0.004,0.033-0.008,0.048-0.014
							c0.159-0.059,0.254-0.227,0.218-0.398c-0.04-0.186-0.224-0.307-0.412-0.265c-0.161,0.033-0.241,0.054-0.323,0.071
							c-0.077,0.02-0.156,0.037-0.312,0.071c-0.153,0.033-0.23,0.048-0.308,0.061c-0.082,0.015-0.165,0.031-0.329,0.066
							c-0.138,0.031-0.205,0.036-0.281,0.044c-0.086,0.009-0.183,0.017-0.361,0.057c-0.169,0.036-0.253,0.059-0.335,0.082
							c-0.075,0.023-0.147,0.041-0.296,0.074c-0.148,0.032-0.221,0.041-0.299,0.054c-0.084,0.013-0.17,0.026-0.339,0.062
							c-0.172,0.037-0.257,0.062-0.34,0.089c-0.074,0.021-0.143,0.04-0.291,0.072c-0.171,0.037-0.258,0.061-0.339,0.086
							c-0.075,0.021-0.144,0.043-0.291,0.073c-0.148,0.032-0.221,0.045-0.298,0.056c-0.086,0.012-0.173,0.025-0.342,0.062
							c-0.167,0.037-0.253,0.059-0.335,0.082c-0.075,0.023-0.147,0.041-0.296,0.073c-0.189,0.039-0.307,0.225-0.265,0.413
							c0.039,0.186,0.224,0.305,0.411,0.264c0.168-0.036,0.253-0.058,0.335-0.081c0.076-0.02,0.147-0.04,0.298-0.072
							c0.147-0.032,0.22-0.044,0.297-0.057c0.084-0.011,0.172-0.025,0.342-0.06c0.172-0.037,0.256-0.063,0.34-0.088
							c0.073-0.022,0.144-0.041,0.29-0.074c0.172-0.037,0.256-0.062,0.34-0.086c0.074-0.021,0.144-0.042,0.291-0.072
							c0.148-0.032,0.221-0.045,0.297-0.056c0.085-0.013,0.173-0.027,0.341-0.064c0.169-0.035,0.254-0.059,0.337-0.081
							C1180.467,142.004,1180.538,141.983,1180.687,141.952z"/>
						<path opacity="0.5" fill="#FFFFFF" enable-background="new    " d="M1184.049,133.582c0.029-0.048,0.044-0.1,0.047-0.154
							c0.006-0.127-0.057-0.252-0.175-0.318c-0.133-0.076-0.199-0.113-0.267-0.149c-0.064-0.036-0.131-0.071-0.257-0.145
							c-0.126-0.071-0.187-0.109-0.25-0.147c-0.066-0.041-0.133-0.081-0.268-0.158c-0.112-0.064-0.159-0.099-0.216-0.141
							c-0.065-0.049-0.138-0.103-0.287-0.188c-0.143-0.08-0.214-0.116-0.286-0.151c-0.064-0.031-0.126-0.061-0.246-0.13
							c-0.119-0.068-0.178-0.105-0.236-0.145c-0.068-0.044-0.136-0.089-0.275-0.17c-0.144-0.082-0.224-0.118-0.292-0.151
							c-0.064-0.03-0.124-0.058-0.243-0.125c-0.143-0.082-0.222-0.12-0.291-0.151c-0.064-0.03-0.125-0.059-0.244-0.126
							c-0.121-0.069-0.174-0.106-0.236-0.145c-0.067-0.045-0.136-0.089-0.275-0.171c-0.14-0.08-0.214-0.115-0.285-0.15
							c-0.065-0.032-0.127-0.061-0.248-0.13c-0.167-0.095-0.379-0.038-0.473,0.13c-0.095,0.166-0.037,0.378,0.13,0.472
							c0.139,0.08,0.212,0.116,0.285,0.151c0.063,0.031,0.125,0.062,0.246,0.132c0.121,0.067,0.177,0.105,0.237,0.144
							c0.066,0.044,0.135,0.089,0.276,0.17c0.141,0.081,0.222,0.118,0.291,0.151c0.064,0.03,0.124,0.058,0.243,0.125
							c0.143,0.081,0.222,0.119,0.291,0.151c0.064,0.03,0.124,0.058,0.243,0.126c0.122,0.068,0.177,0.105,0.236,0.145
							c0.068,0.044,0.136,0.09,0.276,0.17c0.139,0.08,0.213,0.115,0.285,0.15c0.064,0.031,0.125,0.061,0.247,0.13
							c0.112,0.064,0.159,0.1,0.216,0.141c0.065,0.049,0.139,0.104,0.288,0.189c0.127,0.072,0.187,0.11,0.25,0.147
							c0.066,0.042,0.132,0.082,0.268,0.159c0.133,0.075,0.199,0.112,0.266,0.148c0.065,0.036,0.13,0.071,0.258,0.145
							C1183.743,133.807,1183.956,133.749,1184.049,133.582z"/>
					</g>
				</g>
			</g>
		</g>
	</g>
	<g>
		
			<path fill="#141414" stroke="#D1D3D4" stroke-width="2" stroke-linecap="round" stroke-linejoin="round" stroke-miterlimit="10" d="
			M1003.106,173.75v25.5c0,0.656-0.305,1.117-0.914,1.383c-0.203,0.078-0.398,0.117-0.586,0.117c-0.422,0-0.773-0.148-1.055-0.445
			l-9.445-9.445v3.891c0,1.859-0.66,3.449-1.98,4.77s-2.91,1.98-4.77,1.98h-16.5c-1.859,0-3.449-0.66-4.77-1.98
			c-1.321-1.32-1.98-2.91-1.98-4.77v-16.5c0-1.859,0.66-3.449,1.98-4.77c1.32-1.321,2.91-1.98,4.77-1.98h16.5
			c1.859,0,3.449,0.66,4.77,1.98s1.98,2.91,1.98,4.77v3.867l9.445-9.422c0.281-0.297,0.633-0.445,1.055-0.445
			c0.188,0,0.383,0.039,0.586,0.117C1002.801,172.633,1003.106,173.094,1003.106,173.75z"/>
		<path fill="#8E8E8E" d="M980.71,186.695l-8.359,4.645c-0.097,0.055-0.179,0.061-0.249,0.019c-0.069-0.042-0.104-0.117-0.104-0.227
			v-9.265c0-0.109,0.035-0.185,0.104-0.227c0.069-0.042,0.152-0.036,0.249,0.019l8.359,4.645c0.097,0.055,0.145,0.12,0.145,0.195
			S980.806,186.641,980.71,186.695z"/>
	</g>
	<g>
		<g opacity="0.5">
			<line fill="none" stroke="#FFFFFF" stroke-width="2" stroke-miterlimit="10" x1="1100" y1="38" x2="1100" y2="47"/>
		</g>
		
			<line opacity="0.5" fill="none" stroke="#FFFFFF" stroke-miterlimit="10" enable-background="new    " x1="1091" y1="0.5" x2="1108" y2="0.5"/>
		<g opacity="0.5">
			
				<line fill="none" stroke="#FFFFFF" stroke-width="2" stroke-miterlimit="10" x1="1084.505" y1="36.353" x2="1073.152" y2="56.567"/>
			
				<line fill="none" stroke="#FFFFFF" stroke-width="2" stroke-miterlimit="10" x1="1127.681" y1="56.567" x2="1116.328" y2="36.353"/>
		</g>
		<g>
			<rect x="1072" y="3" fill="#141414" width="57" height="36"/>
			<path fill="none" stroke="#D1D3D4" stroke-width="2" stroke-linecap="round" stroke-linejoin="round" stroke-miterlimit="10" d="
				M1129,37c0,1.105-0.895,2-2,2h-53c-1.105,0-2-0.895-2-2V5c0-1.105,0.895-2,2-2h53c1.105,0,2,0.895,2,2V37z"/>
		</g>
	</g>
	<g>
		<rect x="1084" y="16" fill="#FCC34F" width="32" height="2"/>
		<rect x="1086" y="20" fill="#79BCAD" width="27" height="2"/>
		<rect x="1088.349" y="23.5" fill="#BAC368" width="22.258" height="2"/>
	</g>
</g>
</svg>
