<?xml version="1.0" encoding="utf-8"?>
<!-- Generator: Adobe Illustrator 17.0.0, SVG Export Plug-In . SVG Version: 6.00 Build 0)  -->
<!DOCTYPE svg PUBLIC "-//W3C//DTD SVG 1.1//EN" "http://www.w3.org/Graphics/SVG/1.1/DTD/svg11.dtd">
<svg version="1.1" id="Layer_1" xmlns="http://www.w3.org/2000/svg" xmlns:xlink="http://www.w3.org/1999/xlink" x="0px" y="0px"
	 width="128px" height="116px" viewBox="0 0 128 116" enable-background="new 0 0 128 116" xml:space="preserve">
<g opacity="0.6">
	<g>
		<g>
			<polygon fill="#6D6E71" points="127.461,19.497 117.066,19.497 117.066,9.102 112.656,9.102 112.656,19.497 102.261,19.497 
				102.261,23.907 112.656,23.907 112.656,34.302 117.066,34.302 117.066,23.907 127.461,23.907 			"/>
		</g>
		<path fill="#6D6E71" d="M81.192,76.041c0.036-0.221,0.06-0.443,0.06-0.669V60.241c2.011-3.322,3.637-7.115,4.587-11.22
			c3.252-0.119,5.854-2.785,5.854-6.066c0-1.226-0.366-2.366-0.991-3.321c0.214-1.212,0.554-3.447,0.734-6.204l2.233,3.995
			C94.73,22.397,93.874,8.539,74.974,2.869C62.078-1.099,54.689-0.303,45.935,5.531c-1.856,0.434-4.854,1.46-7.194,3.801
			c-0.103,0.038-0.204,0.08-0.308,0.117l0.132,0.06c-1.415,1.477-2.565,3.457-3.03,6.108c0,0-1.455,5.119-0.281,13.306
			c0,0,0.279,5.116,1.971,10.251c-0.827,1.038-1.324,2.351-1.324,3.781c0,3.293,2.62,5.967,5.888,6.068
			c0.956,3.995,2.572,7.694,4.553,10.951v15.398c0,0.242,0.026,0.482,0.068,0.719c-17.246,2.173-41.56,9.577-45.87,33.823
			c0,3.135,28.413,5.676,63.461,5.676s63.461-2.541,63.461-5.676C123.118,85.482,98.459,78.15,81.192,76.041z"/>
	</g>
</g>
</svg>
