<?xml version="1.0" encoding="utf-8"?>
<!-- Generator: Adobe Illustrator 17.0.0, SVG Export Plug-In . SVG Version: 6.00 Build 0)  -->
<!DOCTYPE svg PUBLIC "-//W3C//DTD SVG 1.1//EN" "http://www.w3.org/Graphics/SVG/1.1/DTD/svg11.dtd">
<svg version="1.1" id="Layer_1" xmlns="http://www.w3.org/2000/svg" xmlns:xlink="http://www.w3.org/1999/xlink" x="0px" y="0px"
	 width="25px" height="50px" viewBox="0 0 25 50" enable-background="new 0 0 25 50" xml:space="preserve">
<g>
	<g>
		<path fill="#FFFFFF" d="M2.518,22.187c-0.335-0.051-0.517-0.061-0.674-0.07C1.7,22.11,1.571,22.101,1.3,22.061
			c-0.376-0.058-0.734,0.199-0.789,0.579c-0.058,0.379,0.202,0.734,0.583,0.792c0.333,0.05,0.511,0.06,0.672,0.069
			c0.148,0.01,0.276,0.017,0.543,0.058c0.202,0.032,0.276,0.066,0.401,0.126v-0.013c0.283,0.044,0.418,0.071,0.565,0.101
			c0.155,0.032,0.319,0.068,0.638,0.117c0.324,0.051,0.493,0.064,0.659,0.078c0.14,0.01,0.279,0.023,0.554,0.066
			c0.257,0.039,0.373,0.073,0.507,0.114c0.161,0.049,0.34,0.102,0.693,0.156c0.32,0.048,0.486,0.067,0.644,0.081
			c0.147,0.013,0.287,0.028,0.566,0.07c0.28,0.044,0.413,0.075,0.555,0.105c0.159,0.034,0.323,0.071,0.648,0.122
			c0.329,0.051,0.506,0.065,0.66,0.076c0.147,0.013,0.28,0.02,0.552,0.062c0.329,0.051,0.507,0.064,0.663,0.076
			c0.145,0.011,0.279,0.022,0.554,0.065c0.28,0.043,0.417,0.074,0.558,0.105c0.159,0.035,0.318,0.07,0.642,0.121
			s0.49,0.064,0.648,0.078c0.149,0.015,0.283,0.026,0.567,0.072c0.258,0.038,0.381,0.073,0.516,0.111
			c0.157,0.045,0.338,0.094,0.677,0.148c0.294,0.044,0.44,0.072,0.583,0.099c0.159,0.03,0.312,0.059,0.626,0.109
			c0.309,0.048,0.461,0.069,0.615,0.09c0.146,0.02,0.298,0.04,0.595,0.086c0.313,0.051,0.606-0.121,0.732-0.395
			c0.027-0.058,0.046-0.118,0.057-0.185c0.06-0.378-0.198-0.73-0.581-0.79c-0.306-0.048-0.458-0.069-0.611-0.091
			c-0.149-0.021-0.298-0.041-0.596-0.088c-0.291-0.045-0.435-0.071-0.58-0.099c-0.152-0.026-0.308-0.056-0.623-0.108
			c-0.26-0.039-0.376-0.07-0.519-0.111c-0.155-0.043-0.332-0.093-0.677-0.148c-0.324-0.05-0.49-0.065-0.65-0.079
			c-0.147-0.013-0.283-0.026-0.563-0.069c-0.28-0.044-0.415-0.071-0.558-0.105c-0.156-0.034-0.32-0.071-0.645-0.122
			c-0.328-0.049-0.504-0.064-0.659-0.077c-0.146-0.009-0.278-0.019-0.553-0.06c-0.331-0.054-0.507-0.065-0.662-0.077
			c-0.144-0.012-0.279-0.022-0.554-0.065c-0.278-0.042-0.414-0.073-0.556-0.103c-0.158-0.037-0.32-0.072-0.645-0.122
			c-0.319-0.05-0.486-0.067-0.646-0.082c-0.149-0.016-0.283-0.026-0.568-0.07c-0.254-0.04-0.369-0.075-0.501-0.113
			c-0.164-0.049-0.342-0.103-0.692-0.157c-0.329-0.053-0.496-0.064-0.656-0.078c-0.142-0.011-0.282-0.023-0.559-0.067
			c-0.281-0.042-0.42-0.071-0.562-0.102c-0.16-0.033-0.319-0.068-0.641-0.117L2.518,22.187z"/>
		<g>
			<path fill="#FFFFFF" d="M21.11,19.997c0.082-0.077,0.14-0.168,0.175-0.27c0.082-0.24,0.03-0.517-0.16-0.709
				c-0.213-0.22-0.32-0.329-0.43-0.434c-0.103-0.105-0.212-0.209-0.414-0.421c-0.202-0.206-0.299-0.313-0.398-0.422
				c-0.105-0.115-0.21-0.23-0.427-0.452c-0.18-0.184-0.252-0.278-0.336-0.391c-0.097-0.129-0.207-0.275-0.446-0.521
				c-0.23-0.232-0.347-0.342-0.466-0.448c-0.106-0.096-0.208-0.187-0.401-0.387c-0.191-0.198-0.284-0.301-0.372-0.409
				c-0.105-0.123-0.212-0.247-0.434-0.478c-0.231-0.237-0.365-0.352-0.478-0.452c-0.107-0.094-0.205-0.18-0.397-0.375
				c-0.229-0.236-0.36-0.353-0.475-0.452c-0.107-0.094-0.207-0.182-0.399-0.377c-0.194-0.199-0.276-0.3-0.372-0.409
				c-0.104-0.124-0.211-0.247-0.433-0.481c-0.225-0.231-0.348-0.341-0.463-0.447c-0.108-0.097-0.21-0.188-0.404-0.388
				c-0.268-0.276-0.707-0.282-0.98-0.013c-0.275,0.266-0.282,0.706-0.013,0.979c0.223,0.23,0.343,0.34,0.463,0.448
				c0.103,0.095,0.205,0.189,0.4,0.39c0.194,0.196,0.282,0.3,0.375,0.409c0.103,0.121,0.209,0.246,0.436,0.48
				c0.226,0.235,0.361,0.349,0.476,0.451c0.107,0.093,0.205,0.18,0.397,0.375c0.229,0.235,0.36,0.352,0.475,0.453
				c0.106,0.094,0.205,0.18,0.397,0.376c0.196,0.199,0.282,0.301,0.372,0.409c0.105,0.122,0.211,0.249,0.437,0.479
				c0.223,0.23,0.345,0.34,0.463,0.447c0.106,0.095,0.206,0.187,0.402,0.386c0.18,0.184,0.251,0.281,0.336,0.391
				c0.097,0.129,0.21,0.276,0.448,0.522c0.204,0.208,0.298,0.314,0.398,0.421c0.104,0.117,0.209,0.232,0.426,0.454
				c0.213,0.218,0.321,0.326,0.428,0.432c0.105,0.106,0.211,0.21,0.416,0.422C20.398,20.259,20.839,20.266,21.11,19.997z"/>
			<path fill="#FFFFFF" d="M8.673,37.227c0.138,0.356,0.542,0.531,0.898,0.392c0.263-0.104,0.396-0.148,0.536-0.189
				c0.154-0.05,0.313-0.099,0.622-0.223c0.31-0.12,0.47-0.197,0.61-0.266c0.13-0.061,0.254-0.123,0.513-0.224
				c0.309-0.124,0.47-0.199,0.611-0.268c0.131-0.063,0.253-0.124,0.511-0.223c0.264-0.103,0.397-0.147,0.536-0.191
				c0.155-0.049,0.315-0.1,0.62-0.221c0.304-0.118,0.457-0.19,0.604-0.258c0.132-0.06,0.258-0.12,0.518-0.22
				c0.25-0.101,0.37-0.132,0.508-0.165c0.16-0.042,0.34-0.089,0.663-0.215c0.276-0.108,0.414-0.156,0.555-0.209
				c0.148-0.051,0.299-0.106,0.593-0.219c0.29-0.115,0.436-0.175,0.579-0.232c0.14-0.06,0.278-0.115,0.558-0.226
				c0.356-0.139,0.534-0.542,0.394-0.899c-0.05-0.128-0.132-0.232-0.233-0.307c-0.184-0.136-0.437-0.175-0.665-0.088
				c-0.291,0.115-0.436,0.175-0.579,0.232c-0.14,0.06-0.279,0.117-0.561,0.227c-0.274,0.109-0.412,0.155-0.553,0.208
				c-0.149,0.05-0.299,0.106-0.593,0.219c-0.247,0.097-0.368,0.131-0.504,0.165c-0.16,0.039-0.341,0.088-0.666,0.212
				c-0.303,0.122-0.452,0.19-0.602,0.259c-0.132,0.062-0.259,0.12-0.524,0.226c-0.263,0.101-0.395,0.142-0.535,0.19
				c-0.154,0.047-0.314,0.098-0.62,0.218c-0.311,0.122-0.472,0.202-0.611,0.268c-0.13,0.064-0.253,0.121-0.514,0.227
				c-0.31,0.12-0.467,0.196-0.61,0.266c-0.131,0.063-0.253,0.124-0.511,0.223c-0.267,0.105-0.399,0.148-0.536,0.191
				c-0.155,0.046-0.315,0.1-0.624,0.221C8.708,36.469,8.531,36.871,8.673,37.227z"/>
		</g>
		<g>
			<path opacity="0.5" fill="#FFFFFF" d="M19.521,36.354c-0.17,0.236-0.26,0.352-0.349,0.465c-0.095,0.124-0.191,0.249-0.376,0.502
				c-0.148,0.208-0.231,0.297-0.327,0.398c-0.111,0.121-0.237,0.256-0.437,0.536c-0.189,0.26-0.274,0.395-0.362,0.533
				c-0.075,0.121-0.149,0.237-0.314,0.464c-0.162,0.223-0.246,0.327-0.338,0.438c-0.103,0.125-0.208,0.251-0.399,0.512
				c-0.192,0.267-0.284,0.417-0.363,0.548c-0.075,0.121-0.143,0.236-0.302,0.454c-0.193,0.266-0.286,0.418-0.365,0.549
				c-0.072,0.12-0.143,0.236-0.303,0.457c-0.164,0.225-0.251,0.33-0.34,0.44c-0.103,0.125-0.208,0.25-0.4,0.514
				c-0.186,0.259-0.276,0.397-0.359,0.532c-0.077,0.12-0.151,0.238-0.315,0.463c-0.148,0.206-0.232,0.293-0.324,0.391
				c-0.116,0.117-0.246,0.252-0.451,0.538c-0.19,0.262-0.279,0.405-0.363,0.542c-0.075,0.121-0.145,0.233-0.308,0.459
				c-0.166,0.23-0.25,0.334-0.343,0.447c-0.099,0.122-0.204,0.251-0.392,0.512c-0.201,0.279-0.291,0.444-0.37,0.587
				c-0.064,0.121-0.122,0.226-0.268,0.434c-0.228,0.313-0.157,0.744,0.154,0.971c0.307,0.223,0.744,0.152,0.966-0.155
				c0.204-0.283,0.292-0.446,0.369-0.588c0.068-0.126,0.123-0.229,0.273-0.438c0.165-0.227,0.253-0.335,0.345-0.449
				c0.1-0.123,0.201-0.247,0.388-0.505c0.192-0.268,0.28-0.411,0.364-0.547c0.075-0.118,0.145-0.233,0.306-0.457
				c0.149-0.204,0.231-0.29,0.328-0.391c0.112-0.117,0.242-0.252,0.448-0.537c0.188-0.261,0.276-0.397,0.359-0.532
				c0.078-0.119,0.154-0.239,0.314-0.464c0.166-0.226,0.254-0.33,0.346-0.441c0.098-0.119,0.206-0.249,0.395-0.512
				c0.192-0.267,0.285-0.416,0.365-0.546c0.075-0.122,0.142-0.235,0.302-0.457c0.194-0.266,0.283-0.414,0.362-0.545
				c0.077-0.123,0.143-0.235,0.306-0.458c0.163-0.225,0.25-0.33,0.341-0.439c0.103-0.125,0.207-0.249,0.394-0.513
				c0.19-0.262,0.279-0.401,0.367-0.539c0.075-0.121,0.148-0.234,0.311-0.46c0.152-0.209,0.236-0.3,0.33-0.399
				c0.11-0.119,0.233-0.253,0.438-0.533c0.17-0.236,0.257-0.348,0.351-0.467c0.094-0.122,0.186-0.246,0.372-0.502
				c0.178-0.246,0.264-0.371,0.354-0.497c0.085-0.12,0.167-0.242,0.343-0.482c0.217-0.299,0.158-0.711-0.126-0.942
				c-0.011-0.009-0.021-0.017-0.032-0.023c-0.309-0.228-0.742-0.158-0.966,0.152c-0.182,0.249-0.269,0.377-0.356,0.502
				C19.778,35.996,19.696,36.115,19.521,36.354z"/>
			<path opacity="0.5" fill="#FFFFFF" d="M22.778,15.479c-0.089-0.277-0.14-0.414-0.191-0.549c-0.052-0.147-0.106-0.295-0.205-0.592
				c-0.078-0.243-0.13-0.353-0.19-0.479c-0.069-0.149-0.148-0.316-0.253-0.644c-0.101-0.305-0.141-0.46-0.182-0.617
				c-0.035-0.138-0.069-0.271-0.157-0.538c-0.086-0.262-0.135-0.386-0.189-0.52c-0.06-0.15-0.121-0.302-0.224-0.609
				c-0.102-0.313-0.143-0.484-0.178-0.632c-0.035-0.138-0.064-0.268-0.15-0.525c-0.103-0.312-0.145-0.485-0.181-0.634
				c-0.032-0.137-0.064-0.268-0.149-0.527c-0.087-0.264-0.138-0.391-0.19-0.523c-0.06-0.15-0.122-0.302-0.224-0.612
				c-0.098-0.303-0.142-0.462-0.18-0.616c-0.036-0.138-0.072-0.273-0.159-0.537c-0.078-0.241-0.131-0.35-0.19-0.471
				c-0.075-0.147-0.157-0.315-0.265-0.65c-0.101-0.307-0.142-0.47-0.18-0.626c-0.035-0.138-0.068-0.266-0.153-0.531
				c-0.088-0.269-0.137-0.394-0.19-0.53C18.74,3.37,18.679,3.215,18.58,2.909c-0.107-0.327-0.142-0.511-0.174-0.672
				c-0.024-0.134-0.047-0.253-0.123-0.494c-0.122-0.367,0.077-0.757,0.443-0.878c0.36-0.119,0.755,0.082,0.873,0.442
				c0.108,0.332,0.143,0.513,0.173,0.673c0.027,0.141,0.047,0.255,0.127,0.501c0.088,0.267,0.139,0.396,0.192,0.532
				c0.058,0.148,0.116,0.296,0.216,0.599c0.101,0.313,0.142,0.476,0.18,0.632c0.035,0.135,0.068,0.266,0.153,0.529
				c0.079,0.24,0.132,0.347,0.193,0.472c0.071,0.146,0.154,0.314,0.263,0.648c0.099,0.305,0.142,0.463,0.18,0.616
				c0.038,0.137,0.074,0.275,0.158,0.538c0.089,0.266,0.141,0.392,0.195,0.526c0.057,0.143,0.12,0.3,0.22,0.608
				c0.102,0.312,0.144,0.483,0.181,0.632c0.034,0.139,0.064,0.268,0.148,0.528c0.103,0.312,0.144,0.481,0.179,0.63
				c0.036,0.14,0.065,0.267,0.152,0.529c0.087,0.264,0.138,0.391,0.191,0.522c0.06,0.15,0.121,0.3,0.219,0.609
				c0.101,0.307,0.144,0.467,0.185,0.625c0.035,0.138,0.07,0.268,0.156,0.533c0.081,0.245,0.133,0.357,0.192,0.481
				c0.068,0.147,0.145,0.312,0.255,0.641c0.089,0.277,0.139,0.41,0.192,0.551c0.052,0.145,0.103,0.291,0.201,0.591
				c0.094,0.289,0.139,0.434,0.185,0.581c0.044,0.14,0.086,0.281,0.18,0.564c0.116,0.351-0.066,0.726-0.407,0.859
				c-0.013,0.005-0.025,0.01-0.038,0.012c-0.364,0.124-0.755-0.076-0.874-0.439c-0.097-0.293-0.142-0.441-0.186-0.586
				C22.913,15.898,22.871,15.76,22.778,15.479z"/>
		</g>
		<g>
			<path opacity="0.5" fill="#FFFFFF" d="M15.476,29.945c0.139-0.03,0.205-0.037,0.281-0.046c0.086-0.008,0.183-0.017,0.362-0.054
				c0.154-0.034,0.231-0.049,0.308-0.064c0.083-0.015,0.165-0.029,0.329-0.065c0.161-0.034,0.241-0.055,0.322-0.072
				c0.077-0.019,0.156-0.037,0.312-0.071c0.017-0.004,0.033-0.008,0.048-0.014c0.159-0.059,0.254-0.227,0.218-0.398
				c-0.04-0.186-0.224-0.307-0.412-0.265c-0.161,0.033-0.241,0.054-0.323,0.071c-0.077,0.02-0.156,0.037-0.312,0.071
				c-0.153,0.033-0.23,0.048-0.308,0.061c-0.082,0.015-0.165,0.031-0.329,0.066c-0.138,0.031-0.205,0.036-0.281,0.044
				c-0.086,0.009-0.183,0.017-0.361,0.057c-0.169,0.036-0.253,0.059-0.335,0.082c-0.075,0.023-0.147,0.041-0.296,0.074
				c-0.148,0.032-0.221,0.041-0.299,0.054c-0.084,0.013-0.17,0.026-0.339,0.062c-0.172,0.037-0.257,0.062-0.34,0.089
				c-0.074,0.021-0.143,0.04-0.291,0.072c-0.171,0.037-0.258,0.061-0.339,0.086c-0.075,0.021-0.144,0.043-0.291,0.073
				c-0.148,0.032-0.221,0.045-0.298,0.056c-0.086,0.012-0.173,0.025-0.342,0.062c-0.167,0.037-0.253,0.059-0.335,0.082
				c-0.075,0.023-0.147,0.041-0.296,0.073c-0.189,0.039-0.307,0.225-0.265,0.413c0.039,0.186,0.224,0.305,0.411,0.264
				c0.168-0.036,0.253-0.058,0.335-0.081c0.076-0.02,0.147-0.04,0.298-0.072c0.147-0.032,0.22-0.044,0.297-0.057
				c0.084-0.011,0.172-0.025,0.342-0.06c0.172-0.037,0.256-0.063,0.34-0.088c0.073-0.022,0.144-0.041,0.29-0.074
				c0.172-0.037,0.256-0.062,0.34-0.086c0.074-0.021,0.144-0.042,0.291-0.072c0.148-0.032,0.221-0.045,0.297-0.056
				c0.085-0.013,0.173-0.027,0.341-0.064c0.17-0.035,0.254-0.059,0.337-0.081C15.256,29.998,15.327,29.977,15.476,29.945z"/>
			<path opacity="0.5" fill="#FFFFFF" d="M18.838,21.575c0.029-0.048,0.044-0.1,0.047-0.154c0.006-0.127-0.057-0.252-0.175-0.318
				c-0.133-0.076-0.199-0.113-0.267-0.149c-0.064-0.036-0.131-0.071-0.257-0.145c-0.126-0.071-0.187-0.109-0.25-0.147
				c-0.066-0.041-0.133-0.081-0.268-0.158c-0.112-0.064-0.159-0.099-0.216-0.141c-0.065-0.049-0.138-0.103-0.287-0.188
				c-0.143-0.08-0.214-0.116-0.286-0.151c-0.064-0.031-0.126-0.061-0.246-0.13c-0.119-0.068-0.178-0.105-0.236-0.145
				c-0.067-0.044-0.136-0.089-0.275-0.17c-0.144-0.082-0.224-0.118-0.292-0.151c-0.064-0.03-0.124-0.058-0.243-0.125
				c-0.143-0.082-0.222-0.12-0.291-0.151c-0.064-0.03-0.125-0.059-0.244-0.126c-0.121-0.069-0.174-0.106-0.236-0.145
				c-0.067-0.045-0.136-0.089-0.275-0.171c-0.14-0.08-0.214-0.115-0.285-0.15c-0.065-0.032-0.127-0.061-0.248-0.13
				c-0.167-0.095-0.379-0.038-0.473,0.13c-0.095,0.166-0.037,0.378,0.13,0.472c0.139,0.08,0.212,0.116,0.285,0.151
				c0.063,0.031,0.125,0.062,0.246,0.132c0.121,0.067,0.177,0.105,0.237,0.144c0.066,0.044,0.135,0.089,0.276,0.17
				c0.141,0.081,0.222,0.118,0.291,0.151c0.064,0.03,0.124,0.058,0.243,0.125c0.143,0.081,0.222,0.119,0.291,0.151
				c0.064,0.03,0.124,0.058,0.243,0.126c0.122,0.068,0.177,0.105,0.236,0.145c0.068,0.044,0.136,0.09,0.276,0.17
				c0.139,0.08,0.213,0.115,0.285,0.15c0.064,0.031,0.125,0.061,0.247,0.13c0.112,0.064,0.159,0.1,0.216,0.141
				c0.065,0.049,0.139,0.103,0.288,0.189c0.127,0.072,0.187,0.11,0.25,0.147c0.066,0.042,0.132,0.082,0.268,0.159
				c0.133,0.075,0.199,0.112,0.266,0.148c0.065,0.036,0.13,0.071,0.258,0.145C18.532,21.8,18.745,21.742,18.838,21.575z"/>
		</g>
	</g>
</g>
</svg>
