<?xml version="1.0" encoding="utf-8"?>
<!-- Generator: Adobe Illustrator 17.0.0, SVG Export Plug-In . SVG Version: 6.00 Build 0)  -->
<!DOCTYPE svg PUBLIC "-//W3C//DTD SVG 1.1//EN" "http://www.w3.org/Graphics/SVG/1.1/DTD/svg11.dtd">
<svg version="1.1" id="Layer_1" xmlns="http://www.w3.org/2000/svg" xmlns:xlink="http://www.w3.org/1999/xlink" x="0px" y="0px"
	 width="270px" height="180px" viewBox="0 0 270 180" enable-background="new 0 0 270 180" xml:space="preserve">
<g>
	<rect y="53.691" fill="#303030" width="270" height="20"/>
	<g>
		<polygon fill="#232323" points="234.41,182.691 35.734,182.691 21,73.691 249,73.691 		"/>
	</g>
	<path fill="#232323" d="M252,49.691V22.315c0-5.679-1.58-10.301-4.697-13.406c-1.591-1.585-3.367-2.62-5-3.302
		c-0.19-1.275-1.181-2.334-2.523-2.529l-17.099-2.482c-1.631-0.242-3.161,0.898-3.399,2.538s0.898,3.162,2.538,3.4l17.099,2.482
		c0.146,0.021,0.291,0.032,0.435,0.032c0.996,0,1.899-0.504,2.448-1.292c3.738,1.571,8.199,5.37,8.199,14.559v27.376h-14v4h29v-4
		H252z"/>
	<g opacity="0.5">
		<polygon fill="#E6E7E8" points="137.47,133.319 145.033,111.311 149.089,111.311 141.428,133.319 		"/>
		<polygon fill="#E6E7E8" points="139.767,122.327 137.175,113.855 133.263,113.855 130.287,123.503 126.974,113.855 
			122.919,113.855 128.775,130.631 131.559,130.631 135.207,118.967 137.939,127.646 		"/>
		<polygon fill="#E6E7E8" points="109.544,123.887 109.544,120.599 121.208,115.103 121.208,118.631 113.504,122.183 
			121.208,125.831 121.208,129.383 		"/>
		<polygon fill="#E6E7E8" points="162.456,120.599 162.456,123.887 150.792,129.383 150.792,125.831 158.496,122.183 
			150.792,118.631 150.792,115.103 		"/>
	</g>
	<polygon fill="#161717" points="249,73.691 21,73.691 27.749,124.987 	"/>
</g>
</svg>
